<?xml version="1.0" encoding="utf-8" standalone="no"?>
<!DOCTYPE svg PUBLIC "-//W3C//DTD SVG 1.1//EN"
  "http://www.w3.org/Graphics/SVG/1.1/DTD/svg11.dtd">
<svg xmlns:xlink="http://www.w3.org/1999/xlink" width="576pt" height="576pt" viewBox="0 0 576 576" xmlns="http://www.w3.org/2000/svg" version="1.1">
 <metadata>
  <rdf:RDF xmlns:dc="http://purl.org/dc/elements/1.1/" xmlns:cc="http://creativecommons.org/ns#" xmlns:rdf="http://www.w3.org/1999/02/22-rdf-syntax-ns#">
   <cc:Work>
    <dc:type rdf:resource="http://purl.org/dc/dcmitype/StillImage"/>
    <dc:date>2025-04-27T14:09:26.959396</dc:date>
    <dc:format>image/svg+xml</dc:format>
    <dc:creator>
     <cc:Agent>
      <dc:title>Matplotlib v3.7.3, https://matplotlib.org/</dc:title>
     </cc:Agent>
    </dc:creator>
   </cc:Work>
  </rdf:RDF>
 </metadata>
 <defs>
  <style type="text/css">*{stroke-linejoin: round; stroke-linecap: butt}</style>
 </defs>
 <g id="figure_1">
  <g id="patch_1">
   <path d="M 0 576 
L 576 576 
L 576 0 
L 0 0 
z
" style="fill: #ffffff"/>
  </g>
  <g id="axes_1">
   <g id="patch_2">
    <path d="M 67.79 513.016 
L 358.58 513.016 
L 358.58 36.24 
L 67.79 36.24 
z
" style="fill: #ffffff"/>
   </g>
   <g id="patch_3">
    <path d="M 90.507969 513.016 
L 154.118281 513.016 
L 154.118281 499.731384 
L 90.507969 499.731384 
z
" clip-path="url(#p148551b2b6)" style="fill: #ff0000"/>
   </g>
   <g id="patch_4">
    <path d="M 181.379844 513.016 
L 244.990156 513.016 
L 244.990156 466.522071 
L 181.379844 466.522071 
z
" clip-path="url(#p148551b2b6)" style="fill: #ff0000"/>
   </g>
   <g id="patch_5">
    <path d="M 272.251719 513.016 
L 335.862031 513.016 
L 335.862031 416.035024 
L 272.251719 416.035024 
z
" clip-path="url(#p148551b2b6)" style="fill: #ff0000"/>
   </g>
   <g id="patch_6">
    <path d="M 90.507969 499.731384 
L 154.118281 499.731384 
L 154.118281 412.041169 
L 90.507969 412.041169 
z
" clip-path="url(#p148551b2b6)" style="fill: #92f0f0"/>
   </g>
   <g id="patch_7">
    <path d="M 181.379844 466.522071 
L 244.990156 466.522071 
L 244.990156 337.406034 
L 181.379844 337.406034 
z
" clip-path="url(#p148551b2b6)" style="fill: #92f0f0"/>
   </g>
   <g id="patch_8">
    <path d="M 272.251719 416.035024 
L 335.862031 416.035024 
L 335.862031 289.492579 
L 272.251719 289.492579 
z
" clip-path="url(#p148551b2b6)" style="fill: #92f0f0"/>
   </g>
   <g id="patch_9">
    <path d="M 90.507969 412.041169 
L 154.118281 412.041169 
L 154.118281 410.408503 
L 90.507969 410.408503 
z
" clip-path="url(#p148551b2b6)" style="fill: #4c72b0"/>
   </g>
   <g id="patch_10">
    <path d="M 181.379844 337.406034 
L 244.990156 337.406034 
L 244.990156 326.83036 
L 181.379844 326.83036 
z
" clip-path="url(#p148551b2b6)" style="fill: #4c72b0"/>
   </g>
   <g id="patch_11">
    <path d="M 272.251719 289.492579 
L 335.862031 289.492579 
L 335.862031 278.284515 
L 272.251719 278.284515 
z
" clip-path="url(#p148551b2b6)" style="fill: #4c72b0"/>
   </g>
   <g id="patch_12">
    <path d="M 90.507969 410.408503 
L 154.118281 410.408503 
L 154.118281 338.933628 
L 90.507969 338.933628 
z
" clip-path="url(#p148551b2b6)" style="fill: #dd8452"/>
   </g>
   <g id="patch_13">
    <path d="M 181.379844 326.83036 
L 244.990156 326.83036 
L 244.990156 268.566616 
L 181.379844 268.566616 
z
" clip-path="url(#p148551b2b6)" style="fill: #dd8452"/>
   </g>
   <g id="patch_14">
    <path d="M 272.251719 278.284515 
L 335.862031 278.284515 
L 335.862031 232.951888 
L 272.251719 232.951888 
z
" clip-path="url(#p148551b2b6)" style="fill: #dd8452"/>
   </g>
   <g id="patch_15">
    <path d="M 90.507969 338.933628 
L 154.118281 338.933628 
L 154.118281 285.904213 
L 90.507969 285.904213 
z
" clip-path="url(#p148551b2b6)" style="fill: #ffe59a"/>
   </g>
   <g id="patch_16">
    <path d="M 181.379844 268.566616 
L 244.990156 268.566616 
L 244.990156 233.058246 
L 181.379844 233.058246 
z
" clip-path="url(#p148551b2b6)" style="fill: #ffe59a"/>
   </g>
   <g id="patch_17">
    <path d="M 272.251719 232.951888 
L 335.862031 232.951888 
L 335.862031 219.209207 
L 272.251719 219.209207 
z
" clip-path="url(#p148551b2b6)" style="fill: #ffe59a"/>
   </g>
   <g id="patch_18">
    <path d="M 90.507969 285.904213 
L 154.118281 285.904213 
L 154.118281 231.381311 
L 90.507969 231.381311 
z
" clip-path="url(#p148551b2b6)" style="fill: #55a868"/>
   </g>
   <g id="patch_19">
    <path d="M 181.379844 233.058246 
L 244.990156 233.058246 
L 244.990156 213.876883 
L 181.379844 213.876883 
z
" clip-path="url(#p148551b2b6)" style="fill: #55a868"/>
   </g>
   <g id="patch_20">
    <path d="M 272.251719 219.209207 
L 335.862031 219.209207 
L 335.862031 204.576575 
L 272.251719 204.576575 
z
" clip-path="url(#p148551b2b6)" style="fill: #55a868"/>
   </g>
   <g id="patch_21">
    <path d="M 90.507969 231.381311 
L 154.118281 231.381311 
L 154.118281 197.57249 
L 90.507969 197.57249 
z
" clip-path="url(#p148551b2b6)" style="fill: #c44e52"/>
   </g>
   <g id="patch_22">
    <path d="M 181.379844 213.876883 
L 244.990156 213.876883 
L 244.990156 191.0301 
L 181.379844 191.0301 
z
" clip-path="url(#p148551b2b6)" style="fill: #c44e52"/>
   </g>
   <g id="patch_23">
    <path d="M 272.251719 204.576575 
L 335.862031 204.576575 
L 335.862031 188.884104 
L 272.251719 188.884104 
z
" clip-path="url(#p148551b2b6)" style="fill: #c44e52"/>
   </g>
   <g id="patch_24">
    <path d="M 90.507969 197.57249 
L 154.118281 197.57249 
L 154.118281 163.202664 
L 90.507969 163.202664 
z
" clip-path="url(#p148551b2b6)" style="fill: #f4cccd"/>
   </g>
   <g id="patch_25">
    <path d="M 181.379844 191.0301 
L 244.990156 191.0301 
L 244.990156 166.076829 
L 181.379844 166.076829 
z
" clip-path="url(#p148551b2b6)" style="fill: #f4cccd"/>
   </g>
   <g id="patch_26">
    <path d="M 272.251719 188.884104 
L 335.862031 188.884104 
L 335.862031 178.203011 
L 272.251719 178.203011 
z
" clip-path="url(#p148551b2b6)" style="fill: #f4cccd"/>
   </g>
   <g id="patch_27">
    <path d="M 90.507969 163.202664 
L 154.118281 163.202664 
L 154.118281 163.173076 
L 90.507969 163.173076 
z
" clip-path="url(#p148551b2b6)" style="fill: #8172b3"/>
   </g>
   <g id="patch_28">
    <path d="M 181.379844 166.076829 
L 244.990156 166.076829 
L 244.990156 165.443486 
L 181.379844 165.443486 
z
" clip-path="url(#p148551b2b6)" style="fill: #8172b3"/>
   </g>
   <g id="patch_29">
    <path d="M 272.251719 178.203011 
L 335.862031 178.203011 
L 335.862031 177.376694 
L 272.251719 177.376694 
z
" clip-path="url(#p148551b2b6)" style="fill: #8172b3"/>
   </g>
   <g id="patch_30">
    <path d="M 90.507969 163.173076 
L 154.118281 163.173076 
L 154.118281 160.683492 
L 90.507969 160.683492 
z
" clip-path="url(#p148551b2b6)" style="fill: #937860"/>
   </g>
   <g id="patch_31">
    <path d="M 181.379844 165.443486 
L 244.990156 165.443486 
L 244.990156 161.561292 
L 181.379844 161.561292 
z
" clip-path="url(#p148551b2b6)" style="fill: #937860"/>
   </g>
   <g id="patch_32">
    <path d="M 272.251719 177.376694 
L 335.862031 177.376694 
L 335.862031 167.298388 
L 272.251719 167.298388 
z
" clip-path="url(#p148551b2b6)" style="fill: #937860"/>
   </g>
   <g id="patch_33">
    <path d="M 90.507969 160.683492 
L 154.118281 160.683492 
L 154.118281 159.579359 
L 90.507969 159.579359 
z
" clip-path="url(#p148551b2b6)" style="fill: #da8bc3"/>
   </g>
   <g id="patch_34">
    <path d="M 181.379844 161.561292 
L 244.990156 161.561292 
L 244.990156 156.473594 
L 181.379844 156.473594 
z
" clip-path="url(#p148551b2b6)" style="fill: #da8bc3"/>
   </g>
   <g id="patch_35">
    <path d="M 272.251719 167.298388 
L 335.862031 167.298388 
L 335.862031 153.466382 
L 272.251719 153.466382 
z
" clip-path="url(#p148551b2b6)" style="fill: #da8bc3"/>
   </g>
   <g id="patch_36">
    <path d="M 90.507969 159.579359 
L 154.118281 159.579359 
L 154.118281 156.577573 
L 90.507969 156.577573 
z
" clip-path="url(#p148551b2b6)" style="fill: #8c8c8c"/>
   </g>
   <g id="patch_37">
    <path d="M 181.379844 156.473594 
L 244.990156 156.473594 
L 244.990156 151.301546 
L 181.379844 151.301546 
z
" clip-path="url(#p148551b2b6)" style="fill: #8c8c8c"/>
   </g>
   <g id="patch_38">
    <path d="M 272.251719 153.466382 
L 335.862031 153.466382 
L 335.862031 143.929447 
L 272.251719 143.929447 
z
" clip-path="url(#p148551b2b6)" style="fill: #8c8c8c"/>
   </g>
   <g id="patch_39">
    <path d="M 90.507969 156.577573 
L 154.118281 156.577573 
L 154.118281 147.829408 
L 90.507969 147.829408 
z
" clip-path="url(#p148551b2b6)" style="fill: #ccb974"/>
   </g>
   <g id="patch_40">
    <path d="M 181.379844 151.301546 
L 244.990156 151.301546 
L 244.990156 147.877893 
L 181.379844 147.877893 
z
" clip-path="url(#p148551b2b6)" style="fill: #ccb974"/>
   </g>
   <g id="patch_41">
    <path d="M 272.251719 143.929447 
L 335.862031 143.929447 
L 335.862031 134.70895 
L 272.251719 134.70895 
z
" clip-path="url(#p148551b2b6)" style="fill: #ccb974"/>
   </g>
   <g id="patch_42">
    <path d="M 90.507969 147.829408 
L 154.118281 147.829408 
L 154.118281 145.225354 
L 90.507969 145.225354 
z
" clip-path="url(#p148551b2b6)" style="fill: #ffa505"/>
   </g>
   <g id="patch_43">
    <path d="M 181.379844 147.877893 
L 244.990156 147.877893 
L 244.990156 142.330605 
L 181.379844 142.330605 
z
" clip-path="url(#p148551b2b6)" style="fill: #ffa505"/>
   </g>
   <g id="patch_44">
    <path d="M 272.251719 134.70895 
L 335.862031 134.70895 
L 335.862031 125.829297 
L 272.251719 125.829297 
z
" clip-path="url(#p148551b2b6)" style="fill: #ffa505"/>
   </g>
   <g id="patch_45">
    <path d="M 90.507969 145.225354 
L 154.118281 145.225354 
L 154.118281 144.970512 
L 90.507969 144.970512 
z
" clip-path="url(#p148551b2b6)" style="fill: #64b5cd"/>
   </g>
   <g id="patch_46">
    <path d="M 181.379844 142.330605 
L 244.990156 142.330605 
L 244.990156 141.8361 
L 181.379844 141.8361 
z
" clip-path="url(#p148551b2b6)" style="fill: #64b5cd"/>
   </g>
   <g id="patch_47">
    <path d="M 272.251719 125.829297 
L 335.862031 125.829297 
L 335.862031 116.985965 
L 272.251719 116.985965 
z
" clip-path="url(#p148551b2b6)" style="fill: #64b5cd"/>
   </g>
   <g id="patch_48">
    <path d="M 90.507969 144.970512 
L 154.118281 144.970512 
L 154.118281 58.943619 
L 90.507969 58.943619 
z
" clip-path="url(#p148551b2b6)" style="fill: #ededed"/>
   </g>
   <g id="patch_49">
    <path d="M 181.379844 141.8361 
L 244.990156 141.8361 
L 244.990156 58.943619 
L 181.379844 58.943619 
z
" clip-path="url(#p148551b2b6)" style="fill: #ededed"/>
   </g>
   <g id="patch_50">
    <path d="M 272.251719 116.985965 
L 335.862031 116.985965 
L 335.862031 58.943619 
L 272.251719 58.943619 
z
" clip-path="url(#p148551b2b6)" style="fill: #ededed"/>
   </g>
   <g id="matplotlib.axis_1">
    <g id="xtick_1">
     <g id="line2d_1">
      <defs>
       <path id="me0bc7a39a6" d="M 0 0 
L 0 3.5 
" style="stroke: #000000; stroke-width: 0.8"/>
      </defs>
      <g>
       <use xlink:href="#me0bc7a39a6" x="122.313125" y="513.016" style="stroke: #000000; stroke-width: 0.8"/>
      </g>
     </g>
     <g id="text_1">
      <!-- H Skin -->
      <g transform="translate(96.750625 532.1735) scale(0.16 -0.16)">
       <defs>
        <path id="DejaVuSans-48" d="M 628 4666 
L 1259 4666 
L 1259 2753 
L 3553 2753 
L 3553 4666 
L 4184 4666 
L 4184 0 
L 3553 0 
L 3553 2222 
L 1259 2222 
L 1259 0 
L 628 0 
L 628 4666 
z
" transform="scale(0.015625)"/>
        <path id="DejaVuSans-20" transform="scale(0.015625)"/>
        <path id="DejaVuSans-53" d="M 3425 4513 
L 3425 3897 
Q 3066 4069 2747 4153 
Q 2428 4238 2131 4238 
Q 1616 4238 1336 4038 
Q 1056 3838 1056 3469 
Q 1056 3159 1242 3001 
Q 1428 2844 1947 2747 
L 2328 2669 
Q 3034 2534 3370 2195 
Q 3706 1856 3706 1288 
Q 3706 609 3251 259 
Q 2797 -91 1919 -91 
Q 1588 -91 1214 -16 
Q 841 59 441 206 
L 441 856 
Q 825 641 1194 531 
Q 1563 422 1919 422 
Q 2459 422 2753 634 
Q 3047 847 3047 1241 
Q 3047 1584 2836 1778 
Q 2625 1972 2144 2069 
L 1759 2144 
Q 1053 2284 737 2584 
Q 422 2884 422 3419 
Q 422 4038 858 4394 
Q 1294 4750 2059 4750 
Q 2388 4750 2728 4690 
Q 3069 4631 3425 4513 
z
" transform="scale(0.015625)"/>
        <path id="DejaVuSans-6b" d="M 581 4863 
L 1159 4863 
L 1159 1991 
L 2875 3500 
L 3609 3500 
L 1753 1863 
L 3688 0 
L 2938 0 
L 1159 1709 
L 1159 0 
L 581 0 
L 581 4863 
z
" transform="scale(0.015625)"/>
        <path id="DejaVuSans-69" d="M 603 3500 
L 1178 3500 
L 1178 0 
L 603 0 
L 603 3500 
z
M 603 4863 
L 1178 4863 
L 1178 4134 
L 603 4134 
L 603 4863 
z
" transform="scale(0.015625)"/>
        <path id="DejaVuSans-6e" d="M 3513 2113 
L 3513 0 
L 2938 0 
L 2938 2094 
Q 2938 2591 2744 2837 
Q 2550 3084 2163 3084 
Q 1697 3084 1428 2787 
Q 1159 2491 1159 1978 
L 1159 0 
L 581 0 
L 581 3500 
L 1159 3500 
L 1159 2956 
Q 1366 3272 1645 3428 
Q 1925 3584 2291 3584 
Q 2894 3584 3203 3211 
Q 3513 2838 3513 2113 
z
" transform="scale(0.015625)"/>
       </defs>
       <use xlink:href="#DejaVuSans-48"/>
       <use xlink:href="#DejaVuSans-20" x="75.195312"/>
       <use xlink:href="#DejaVuSans-53" x="106.982422"/>
       <use xlink:href="#DejaVuSans-6b" x="170.458984"/>
       <use xlink:href="#DejaVuSans-69" x="228.369141"/>
       <use xlink:href="#DejaVuSans-6e" x="256.152344"/>
      </g>
      <!-- (n=87) -->
      <g transform="translate(94.116875 550.09) scale(0.16 -0.16)">
       <defs>
        <path id="DejaVuSans-28" d="M 1984 4856 
Q 1566 4138 1362 3434 
Q 1159 2731 1159 2009 
Q 1159 1288 1364 580 
Q 1569 -128 1984 -844 
L 1484 -844 
Q 1016 -109 783 600 
Q 550 1309 550 2009 
Q 550 2706 781 3412 
Q 1013 4119 1484 4856 
L 1984 4856 
z
" transform="scale(0.015625)"/>
        <path id="DejaVuSans-3d" d="M 678 2906 
L 4684 2906 
L 4684 2381 
L 678 2381 
L 678 2906 
z
M 678 1631 
L 4684 1631 
L 4684 1100 
L 678 1100 
L 678 1631 
z
" transform="scale(0.015625)"/>
        <path id="DejaVuSans-38" d="M 2034 2216 
Q 1584 2216 1326 1975 
Q 1069 1734 1069 1313 
Q 1069 891 1326 650 
Q 1584 409 2034 409 
Q 2484 409 2743 651 
Q 3003 894 3003 1313 
Q 3003 1734 2745 1975 
Q 2488 2216 2034 2216 
z
M 1403 2484 
Q 997 2584 770 2862 
Q 544 3141 544 3541 
Q 544 4100 942 4425 
Q 1341 4750 2034 4750 
Q 2731 4750 3128 4425 
Q 3525 4100 3525 3541 
Q 3525 3141 3298 2862 
Q 3072 2584 2669 2484 
Q 3125 2378 3379 2068 
Q 3634 1759 3634 1313 
Q 3634 634 3220 271 
Q 2806 -91 2034 -91 
Q 1263 -91 848 271 
Q 434 634 434 1313 
Q 434 1759 690 2068 
Q 947 2378 1403 2484 
z
M 1172 3481 
Q 1172 3119 1398 2916 
Q 1625 2713 2034 2713 
Q 2441 2713 2670 2916 
Q 2900 3119 2900 3481 
Q 2900 3844 2670 4047 
Q 2441 4250 2034 4250 
Q 1625 4250 1398 4047 
Q 1172 3844 1172 3481 
z
" transform="scale(0.015625)"/>
        <path id="DejaVuSans-37" d="M 525 4666 
L 3525 4666 
L 3525 4397 
L 1831 0 
L 1172 0 
L 2766 4134 
L 525 4134 
L 525 4666 
z
" transform="scale(0.015625)"/>
        <path id="DejaVuSans-29" d="M 513 4856 
L 1013 4856 
Q 1481 4119 1714 3412 
Q 1947 2706 1947 2009 
Q 1947 1309 1714 600 
Q 1481 -109 1013 -844 
L 513 -844 
Q 928 -128 1133 580 
Q 1338 1288 1338 2009 
Q 1338 2731 1133 3434 
Q 928 4138 513 4856 
z
" transform="scale(0.015625)"/>
       </defs>
       <use xlink:href="#DejaVuSans-28"/>
       <use xlink:href="#DejaVuSans-6e" x="39.013672"/>
       <use xlink:href="#DejaVuSans-3d" x="102.392578"/>
       <use xlink:href="#DejaVuSans-38" x="186.181641"/>
       <use xlink:href="#DejaVuSans-37" x="249.804688"/>
       <use xlink:href="#DejaVuSans-29" x="313.427734"/>
      </g>
     </g>
    </g>
    <g id="xtick_2">
     <g id="line2d_2">
      <g>
       <use xlink:href="#me0bc7a39a6" x="213.185" y="513.016" style="stroke: #000000; stroke-width: 0.8"/>
      </g>
     </g>
     <g id="text_2">
      <!-- AD-NL Skin -->
      <g transform="translate(168.6775 532.1735) scale(0.16 -0.16)">
       <defs>
        <path id="DejaVuSans-41" d="M 2188 4044 
L 1331 1722 
L 3047 1722 
L 2188 4044 
z
M 1831 4666 
L 2547 4666 
L 4325 0 
L 3669 0 
L 3244 1197 
L 1141 1197 
L 716 0 
L 50 0 
L 1831 4666 
z
" transform="scale(0.015625)"/>
        <path id="DejaVuSans-44" d="M 1259 4147 
L 1259 519 
L 2022 519 
Q 2988 519 3436 956 
Q 3884 1394 3884 2338 
Q 3884 3275 3436 3711 
Q 2988 4147 2022 4147 
L 1259 4147 
z
M 628 4666 
L 1925 4666 
Q 3281 4666 3915 4102 
Q 4550 3538 4550 2338 
Q 4550 1131 3912 565 
Q 3275 0 1925 0 
L 628 0 
L 628 4666 
z
" transform="scale(0.015625)"/>
        <path id="DejaVuSans-2d" d="M 313 2009 
L 1997 2009 
L 1997 1497 
L 313 1497 
L 313 2009 
z
" transform="scale(0.015625)"/>
        <path id="DejaVuSans-4e" d="M 628 4666 
L 1478 4666 
L 3547 763 
L 3547 4666 
L 4159 4666 
L 4159 0 
L 3309 0 
L 1241 3903 
L 1241 0 
L 628 0 
L 628 4666 
z
" transform="scale(0.015625)"/>
        <path id="DejaVuSans-4c" d="M 628 4666 
L 1259 4666 
L 1259 531 
L 3531 531 
L 3531 0 
L 628 0 
L 628 4666 
z
" transform="scale(0.015625)"/>
       </defs>
       <use xlink:href="#DejaVuSans-41"/>
       <use xlink:href="#DejaVuSans-44" x="68.408203"/>
       <use xlink:href="#DejaVuSans-2d" x="145.410156"/>
       <use xlink:href="#DejaVuSans-4e" x="181.494141"/>
       <use xlink:href="#DejaVuSans-4c" x="256.298828"/>
       <use xlink:href="#DejaVuSans-20" x="312.011719"/>
       <use xlink:href="#DejaVuSans-53" x="343.798828"/>
       <use xlink:href="#DejaVuSans-6b" x="407.275391"/>
       <use xlink:href="#DejaVuSans-69" x="465.185547"/>
       <use xlink:href="#DejaVuSans-6e" x="492.96875"/>
      </g>
      <!-- (n=111) -->
      <g transform="translate(179.89875 550.09) scale(0.16 -0.16)">
       <defs>
        <path id="DejaVuSans-31" d="M 794 531 
L 1825 531 
L 1825 4091 
L 703 3866 
L 703 4441 
L 1819 4666 
L 2450 4666 
L 2450 531 
L 3481 531 
L 3481 0 
L 794 0 
L 794 531 
z
" transform="scale(0.015625)"/>
       </defs>
       <use xlink:href="#DejaVuSans-28"/>
       <use xlink:href="#DejaVuSans-6e" x="39.013672"/>
       <use xlink:href="#DejaVuSans-3d" x="102.392578"/>
       <use xlink:href="#DejaVuSans-31" x="186.181641"/>
       <use xlink:href="#DejaVuSans-31" x="249.804688"/>
       <use xlink:href="#DejaVuSans-31" x="313.427734"/>
       <use xlink:href="#DejaVuSans-29" x="377.050781"/>
      </g>
     </g>
    </g>
    <g id="xtick_3">
     <g id="line2d_3">
      <g>
       <use xlink:href="#me0bc7a39a6" x="304.056875" y="513.016" style="stroke: #000000; stroke-width: 0.8"/>
      </g>
     </g>
     <g id="text_3">
      <!-- AD-L Skin -->
      <g transform="translate(265.534375 532.1735) scale(0.16 -0.16)">
       <use xlink:href="#DejaVuSans-41"/>
       <use xlink:href="#DejaVuSans-44" x="68.408203"/>
       <use xlink:href="#DejaVuSans-2d" x="145.410156"/>
       <use xlink:href="#DejaVuSans-4c" x="181.494141"/>
       <use xlink:href="#DejaVuSans-20" x="237.207031"/>
       <use xlink:href="#DejaVuSans-53" x="268.994141"/>
       <use xlink:href="#DejaVuSans-6b" x="332.470703"/>
       <use xlink:href="#DejaVuSans-69" x="390.380859"/>
       <use xlink:href="#DejaVuSans-6e" x="418.164062"/>
      </g>
      <!-- (n=107) -->
      <g transform="translate(270.770625 550.09) scale(0.16 -0.16)">
       <defs>
        <path id="DejaVuSans-30" d="M 2034 4250 
Q 1547 4250 1301 3770 
Q 1056 3291 1056 2328 
Q 1056 1369 1301 889 
Q 1547 409 2034 409 
Q 2525 409 2770 889 
Q 3016 1369 3016 2328 
Q 3016 3291 2770 3770 
Q 2525 4250 2034 4250 
z
M 2034 4750 
Q 2819 4750 3233 4129 
Q 3647 3509 3647 2328 
Q 3647 1150 3233 529 
Q 2819 -91 2034 -91 
Q 1250 -91 836 529 
Q 422 1150 422 2328 
Q 422 3509 836 4129 
Q 1250 4750 2034 4750 
z
" transform="scale(0.015625)"/>
       </defs>
       <use xlink:href="#DejaVuSans-28"/>
       <use xlink:href="#DejaVuSans-6e" x="39.013672"/>
       <use xlink:href="#DejaVuSans-3d" x="102.392578"/>
       <use xlink:href="#DejaVuSans-31" x="186.181641"/>
       <use xlink:href="#DejaVuSans-30" x="249.804688"/>
       <use xlink:href="#DejaVuSans-37" x="313.427734"/>
       <use xlink:href="#DejaVuSans-29" x="377.050781"/>
      </g>
     </g>
    </g>
    <g id="text_4">
     <!--   -->
     <g transform="translate(211.595938 565.015937) scale(0.1 -0.1)">
      <use xlink:href="#DejaVuSans-20"/>
     </g>
    </g>
   </g>
   <g id="matplotlib.axis_2">
    <g id="ytick_1">
     <g id="line2d_4">
      <defs>
       <path id="m7398f97a6f" d="M 0 0 
L -3.5 0 
" style="stroke: #000000; stroke-width: 0.8"/>
      </defs>
      <g>
       <use xlink:href="#m7398f97a6f" x="67.79" y="513.016" style="stroke: #000000; stroke-width: 0.8"/>
      </g>
     </g>
     <g id="text_5">
      <!-- 0.0 -->
      <g transform="translate(32.164375 519.854594) scale(0.18 -0.18)">
       <defs>
        <path id="DejaVuSans-2e" d="M 684 794 
L 1344 794 
L 1344 0 
L 684 0 
L 684 794 
z
" transform="scale(0.015625)"/>
       </defs>
       <use xlink:href="#DejaVuSans-30"/>
       <use xlink:href="#DejaVuSans-2e" x="63.623047"/>
       <use xlink:href="#DejaVuSans-30" x="95.410156"/>
      </g>
     </g>
    </g>
    <g id="ytick_2">
     <g id="line2d_5">
      <g>
       <use xlink:href="#m7398f97a6f" x="67.79" y="422.201524" style="stroke: #000000; stroke-width: 0.8"/>
      </g>
     </g>
     <g id="text_6">
      <!-- 0.2 -->
      <g transform="translate(32.164375 429.040118) scale(0.18 -0.18)">
       <defs>
        <path id="DejaVuSans-32" d="M 1228 531 
L 3431 531 
L 3431 0 
L 469 0 
L 469 531 
Q 828 903 1448 1529 
Q 2069 2156 2228 2338 
Q 2531 2678 2651 2914 
Q 2772 3150 2772 3378 
Q 2772 3750 2511 3984 
Q 2250 4219 1831 4219 
Q 1534 4219 1204 4116 
Q 875 4013 500 3803 
L 500 4441 
Q 881 4594 1212 4672 
Q 1544 4750 1819 4750 
Q 2544 4750 2975 4387 
Q 3406 4025 3406 3419 
Q 3406 3131 3298 2873 
Q 3191 2616 2906 2266 
Q 2828 2175 2409 1742 
Q 1991 1309 1228 531 
z
" transform="scale(0.015625)"/>
       </defs>
       <use xlink:href="#DejaVuSans-30"/>
       <use xlink:href="#DejaVuSans-2e" x="63.623047"/>
       <use xlink:href="#DejaVuSans-32" x="95.410156"/>
      </g>
     </g>
    </g>
    <g id="ytick_3">
     <g id="line2d_6">
      <g>
       <use xlink:href="#m7398f97a6f" x="67.79" y="331.387048" style="stroke: #000000; stroke-width: 0.8"/>
      </g>
     </g>
     <g id="text_7">
      <!-- 0.4 -->
      <g transform="translate(32.164375 338.225641) scale(0.18 -0.18)">
       <defs>
        <path id="DejaVuSans-34" d="M 2419 4116 
L 825 1625 
L 2419 1625 
L 2419 4116 
z
M 2253 4666 
L 3047 4666 
L 3047 1625 
L 3713 1625 
L 3713 1100 
L 3047 1100 
L 3047 0 
L 2419 0 
L 2419 1100 
L 313 1100 
L 313 1709 
L 2253 4666 
z
" transform="scale(0.015625)"/>
       </defs>
       <use xlink:href="#DejaVuSans-30"/>
       <use xlink:href="#DejaVuSans-2e" x="63.623047"/>
       <use xlink:href="#DejaVuSans-34" x="95.410156"/>
      </g>
     </g>
    </g>
    <g id="ytick_4">
     <g id="line2d_7">
      <g>
       <use xlink:href="#m7398f97a6f" x="67.79" y="240.572571" style="stroke: #000000; stroke-width: 0.8"/>
      </g>
     </g>
     <g id="text_8">
      <!-- 0.6 -->
      <g transform="translate(32.164375 247.411165) scale(0.18 -0.18)">
       <defs>
        <path id="DejaVuSans-36" d="M 2113 2584 
Q 1688 2584 1439 2293 
Q 1191 2003 1191 1497 
Q 1191 994 1439 701 
Q 1688 409 2113 409 
Q 2538 409 2786 701 
Q 3034 994 3034 1497 
Q 3034 2003 2786 2293 
Q 2538 2584 2113 2584 
z
M 3366 4563 
L 3366 3988 
Q 3128 4100 2886 4159 
Q 2644 4219 2406 4219 
Q 1781 4219 1451 3797 
Q 1122 3375 1075 2522 
Q 1259 2794 1537 2939 
Q 1816 3084 2150 3084 
Q 2853 3084 3261 2657 
Q 3669 2231 3669 1497 
Q 3669 778 3244 343 
Q 2819 -91 2113 -91 
Q 1303 -91 875 529 
Q 447 1150 447 2328 
Q 447 3434 972 4092 
Q 1497 4750 2381 4750 
Q 2619 4750 2861 4703 
Q 3103 4656 3366 4563 
z
" transform="scale(0.015625)"/>
       </defs>
       <use xlink:href="#DejaVuSans-30"/>
       <use xlink:href="#DejaVuSans-2e" x="63.623047"/>
       <use xlink:href="#DejaVuSans-36" x="95.410156"/>
      </g>
     </g>
    </g>
    <g id="ytick_5">
     <g id="line2d_8">
      <g>
       <use xlink:href="#m7398f97a6f" x="67.79" y="149.758095" style="stroke: #000000; stroke-width: 0.8"/>
      </g>
     </g>
     <g id="text_9">
      <!-- 0.8 -->
      <g transform="translate(32.164375 156.596689) scale(0.18 -0.18)">
       <use xlink:href="#DejaVuSans-30"/>
       <use xlink:href="#DejaVuSans-2e" x="63.623047"/>
       <use xlink:href="#DejaVuSans-38" x="95.410156"/>
      </g>
     </g>
    </g>
    <g id="ytick_6">
     <g id="line2d_9">
      <g>
       <use xlink:href="#m7398f97a6f" x="67.79" y="58.943619" style="stroke: #000000; stroke-width: 0.8"/>
      </g>
     </g>
     <g id="text_10">
      <!-- 1.0 -->
      <g transform="translate(32.164375 65.782213) scale(0.18 -0.18)">
       <use xlink:href="#DejaVuSans-31"/>
       <use xlink:href="#DejaVuSans-2e" x="63.623047"/>
       <use xlink:href="#DejaVuSans-30" x="95.410156"/>
      </g>
     </g>
    </g>
    <g id="text_11">
     <!-- Relative Abundance -->
     <g transform="translate(24.420938 364.480344) rotate(-90) scale(0.18 -0.18)">
      <defs>
       <path id="DejaVuSans-52" d="M 2841 2188 
Q 3044 2119 3236 1894 
Q 3428 1669 3622 1275 
L 4263 0 
L 3584 0 
L 2988 1197 
Q 2756 1666 2539 1819 
Q 2322 1972 1947 1972 
L 1259 1972 
L 1259 0 
L 628 0 
L 628 4666 
L 2053 4666 
Q 2853 4666 3247 4331 
Q 3641 3997 3641 3322 
Q 3641 2881 3436 2590 
Q 3231 2300 2841 2188 
z
M 1259 4147 
L 1259 2491 
L 2053 2491 
Q 2509 2491 2742 2702 
Q 2975 2913 2975 3322 
Q 2975 3731 2742 3939 
Q 2509 4147 2053 4147 
L 1259 4147 
z
" transform="scale(0.015625)"/>
       <path id="DejaVuSans-65" d="M 3597 1894 
L 3597 1613 
L 953 1613 
Q 991 1019 1311 708 
Q 1631 397 2203 397 
Q 2534 397 2845 478 
Q 3156 559 3463 722 
L 3463 178 
Q 3153 47 2828 -22 
Q 2503 -91 2169 -91 
Q 1331 -91 842 396 
Q 353 884 353 1716 
Q 353 2575 817 3079 
Q 1281 3584 2069 3584 
Q 2775 3584 3186 3129 
Q 3597 2675 3597 1894 
z
M 3022 2063 
Q 3016 2534 2758 2815 
Q 2500 3097 2075 3097 
Q 1594 3097 1305 2825 
Q 1016 2553 972 2059 
L 3022 2063 
z
" transform="scale(0.015625)"/>
       <path id="DejaVuSans-6c" d="M 603 4863 
L 1178 4863 
L 1178 0 
L 603 0 
L 603 4863 
z
" transform="scale(0.015625)"/>
       <path id="DejaVuSans-61" d="M 2194 1759 
Q 1497 1759 1228 1600 
Q 959 1441 959 1056 
Q 959 750 1161 570 
Q 1363 391 1709 391 
Q 2188 391 2477 730 
Q 2766 1069 2766 1631 
L 2766 1759 
L 2194 1759 
z
M 3341 1997 
L 3341 0 
L 2766 0 
L 2766 531 
Q 2569 213 2275 61 
Q 1981 -91 1556 -91 
Q 1019 -91 701 211 
Q 384 513 384 1019 
Q 384 1609 779 1909 
Q 1175 2209 1959 2209 
L 2766 2209 
L 2766 2266 
Q 2766 2663 2505 2880 
Q 2244 3097 1772 3097 
Q 1472 3097 1187 3025 
Q 903 2953 641 2809 
L 641 3341 
Q 956 3463 1253 3523 
Q 1550 3584 1831 3584 
Q 2591 3584 2966 3190 
Q 3341 2797 3341 1997 
z
" transform="scale(0.015625)"/>
       <path id="DejaVuSans-74" d="M 1172 4494 
L 1172 3500 
L 2356 3500 
L 2356 3053 
L 1172 3053 
L 1172 1153 
Q 1172 725 1289 603 
Q 1406 481 1766 481 
L 2356 481 
L 2356 0 
L 1766 0 
Q 1100 0 847 248 
Q 594 497 594 1153 
L 594 3053 
L 172 3053 
L 172 3500 
L 594 3500 
L 594 4494 
L 1172 4494 
z
" transform="scale(0.015625)"/>
       <path id="DejaVuSans-76" d="M 191 3500 
L 800 3500 
L 1894 563 
L 2988 3500 
L 3597 3500 
L 2284 0 
L 1503 0 
L 191 3500 
z
" transform="scale(0.015625)"/>
       <path id="DejaVuSans-62" d="M 3116 1747 
Q 3116 2381 2855 2742 
Q 2594 3103 2138 3103 
Q 1681 3103 1420 2742 
Q 1159 2381 1159 1747 
Q 1159 1113 1420 752 
Q 1681 391 2138 391 
Q 2594 391 2855 752 
Q 3116 1113 3116 1747 
z
M 1159 2969 
Q 1341 3281 1617 3432 
Q 1894 3584 2278 3584 
Q 2916 3584 3314 3078 
Q 3713 2572 3713 1747 
Q 3713 922 3314 415 
Q 2916 -91 2278 -91 
Q 1894 -91 1617 61 
Q 1341 213 1159 525 
L 1159 0 
L 581 0 
L 581 4863 
L 1159 4863 
L 1159 2969 
z
" transform="scale(0.015625)"/>
       <path id="DejaVuSans-75" d="M 544 1381 
L 544 3500 
L 1119 3500 
L 1119 1403 
Q 1119 906 1312 657 
Q 1506 409 1894 409 
Q 2359 409 2629 706 
Q 2900 1003 2900 1516 
L 2900 3500 
L 3475 3500 
L 3475 0 
L 2900 0 
L 2900 538 
Q 2691 219 2414 64 
Q 2138 -91 1772 -91 
Q 1169 -91 856 284 
Q 544 659 544 1381 
z
M 1991 3584 
L 1991 3584 
z
" transform="scale(0.015625)"/>
       <path id="DejaVuSans-64" d="M 2906 2969 
L 2906 4863 
L 3481 4863 
L 3481 0 
L 2906 0 
L 2906 525 
Q 2725 213 2448 61 
Q 2172 -91 1784 -91 
Q 1150 -91 751 415 
Q 353 922 353 1747 
Q 353 2572 751 3078 
Q 1150 3584 1784 3584 
Q 2172 3584 2448 3432 
Q 2725 3281 2906 2969 
z
M 947 1747 
Q 947 1113 1208 752 
Q 1469 391 1925 391 
Q 2381 391 2643 752 
Q 2906 1113 2906 1747 
Q 2906 2381 2643 2742 
Q 2381 3103 1925 3103 
Q 1469 3103 1208 2742 
Q 947 2381 947 1747 
z
" transform="scale(0.015625)"/>
       <path id="DejaVuSans-63" d="M 3122 3366 
L 3122 2828 
Q 2878 2963 2633 3030 
Q 2388 3097 2138 3097 
Q 1578 3097 1268 2742 
Q 959 2388 959 1747 
Q 959 1106 1268 751 
Q 1578 397 2138 397 
Q 2388 397 2633 464 
Q 2878 531 3122 666 
L 3122 134 
Q 2881 22 2623 -34 
Q 2366 -91 2075 -91 
Q 1284 -91 818 406 
Q 353 903 353 1747 
Q 353 2603 823 3093 
Q 1294 3584 2113 3584 
Q 2378 3584 2631 3529 
Q 2884 3475 3122 3366 
z
" transform="scale(0.015625)"/>
      </defs>
      <use xlink:href="#DejaVuSans-52"/>
      <use xlink:href="#DejaVuSans-65" x="64.982422"/>
      <use xlink:href="#DejaVuSans-6c" x="126.505859"/>
      <use xlink:href="#DejaVuSans-61" x="154.289062"/>
      <use xlink:href="#DejaVuSans-74" x="215.568359"/>
      <use xlink:href="#DejaVuSans-69" x="254.777344"/>
      <use xlink:href="#DejaVuSans-76" x="282.560547"/>
      <use xlink:href="#DejaVuSans-65" x="341.740234"/>
      <use xlink:href="#DejaVuSans-20" x="403.263672"/>
      <use xlink:href="#DejaVuSans-41" x="435.050781"/>
      <use xlink:href="#DejaVuSans-62" x="503.458984"/>
      <use xlink:href="#DejaVuSans-75" x="566.935547"/>
      <use xlink:href="#DejaVuSans-6e" x="630.314453"/>
      <use xlink:href="#DejaVuSans-64" x="693.693359"/>
      <use xlink:href="#DejaVuSans-61" x="757.169922"/>
      <use xlink:href="#DejaVuSans-6e" x="818.449219"/>
      <use xlink:href="#DejaVuSans-63" x="881.828125"/>
      <use xlink:href="#DejaVuSans-65" x="936.808594"/>
     </g>
    </g>
   </g>
   <g id="patch_51">
    <path d="M 67.79 513.016 
L 67.79 36.24 
" style="fill: none; stroke: #000000; stroke-width: 0.8; stroke-linejoin: miter; stroke-linecap: square"/>
   </g>
   <g id="patch_52">
    <path d="M 358.58 513.016 
L 358.58 36.24 
" style="fill: none; stroke: #000000; stroke-width: 0.8; stroke-linejoin: miter; stroke-linecap: square"/>
   </g>
   <g id="patch_53">
    <path d="M 67.79 513.016 
L 358.58 513.016 
" style="fill: none; stroke: #000000; stroke-width: 0.8; stroke-linejoin: miter; stroke-linecap: square"/>
   </g>
   <g id="patch_54">
    <path d="M 67.79 36.24 
L 358.58 36.24 
" style="fill: none; stroke: #000000; stroke-width: 0.8; stroke-linejoin: miter; stroke-linecap: square"/>
   </g>
   <g id="text_12">
    <!-- Relative Abundance -->
    <g transform="translate(88.390078 30.24) scale(0.25 -0.25)">
     <use xlink:href="#DejaVuSans-52"/>
     <use xlink:href="#DejaVuSans-65" x="64.982422"/>
     <use xlink:href="#DejaVuSans-6c" x="126.505859"/>
     <use xlink:href="#DejaVuSans-61" x="154.289062"/>
     <use xlink:href="#DejaVuSans-74" x="215.568359"/>
     <use xlink:href="#DejaVuSans-69" x="254.777344"/>
     <use xlink:href="#DejaVuSans-76" x="282.560547"/>
     <use xlink:href="#DejaVuSans-65" x="341.740234"/>
     <use xlink:href="#DejaVuSans-20" x="403.263672"/>
     <use xlink:href="#DejaVuSans-41" x="435.050781"/>
     <use xlink:href="#DejaVuSans-62" x="503.458984"/>
     <use xlink:href="#DejaVuSans-75" x="566.935547"/>
     <use xlink:href="#DejaVuSans-6e" x="630.314453"/>
     <use xlink:href="#DejaVuSans-64" x="693.693359"/>
     <use xlink:href="#DejaVuSans-61" x="757.169922"/>
     <use xlink:href="#DejaVuSans-6e" x="818.449219"/>
     <use xlink:href="#DejaVuSans-63" x="881.828125"/>
     <use xlink:href="#DejaVuSans-65" x="936.808594"/>
    </g>
   </g>
   <g id="legend_1">
    <g id="patch_55">
     <path d="M 368.38 456.253625 
L 561.809688 456.253625 
Q 564.609688 456.253625 564.609688 453.453625 
L 564.609688 95.802375 
Q 564.609688 93.002375 561.809688 93.002375 
L 368.38 93.002375 
Q 365.58 93.002375 365.58 95.802375 
L 365.58 453.453625 
Q 365.58 456.253625 368.38 456.253625 
z
" style="fill: #ffffff; opacity: 0.8; stroke: #cccccc; stroke-linejoin: miter"/>
    </g>
    <g id="text_13">
     <!-- Genus -->
     <g transform="translate(436.4875 112.279562) scale(0.18 -0.18)">
      <defs>
       <path id="DejaVuSans-47" d="M 3809 666 
L 3809 1919 
L 2778 1919 
L 2778 2438 
L 4434 2438 
L 4434 434 
Q 4069 175 3628 42 
Q 3188 -91 2688 -91 
Q 1594 -91 976 548 
Q 359 1188 359 2328 
Q 359 3472 976 4111 
Q 1594 4750 2688 4750 
Q 3144 4750 3555 4637 
Q 3966 4525 4313 4306 
L 4313 3634 
Q 3963 3931 3569 4081 
Q 3175 4231 2741 4231 
Q 1884 4231 1454 3753 
Q 1025 3275 1025 2328 
Q 1025 1384 1454 906 
Q 1884 428 2741 428 
Q 3075 428 3337 486 
Q 3600 544 3809 666 
z
" transform="scale(0.015625)"/>
       <path id="DejaVuSans-73" d="M 2834 3397 
L 2834 2853 
Q 2591 2978 2328 3040 
Q 2066 3103 1784 3103 
Q 1356 3103 1142 2972 
Q 928 2841 928 2578 
Q 928 2378 1081 2264 
Q 1234 2150 1697 2047 
L 1894 2003 
Q 2506 1872 2764 1633 
Q 3022 1394 3022 966 
Q 3022 478 2636 193 
Q 2250 -91 1575 -91 
Q 1294 -91 989 -36 
Q 684 19 347 128 
L 347 722 
Q 666 556 975 473 
Q 1284 391 1588 391 
Q 1994 391 2212 530 
Q 2431 669 2431 922 
Q 2431 1156 2273 1281 
Q 2116 1406 1581 1522 
L 1381 1569 
Q 847 1681 609 1914 
Q 372 2147 372 2553 
Q 372 3047 722 3315 
Q 1072 3584 1716 3584 
Q 2034 3584 2315 3537 
Q 2597 3491 2834 3397 
z
" transform="scale(0.015625)"/>
      </defs>
      <use xlink:href="#DejaVuSans-47"/>
      <use xlink:href="#DejaVuSans-65" x="77.490234"/>
      <use xlink:href="#DejaVuSans-6e" x="139.013672"/>
      <use xlink:href="#DejaVuSans-75" x="202.392578"/>
      <use xlink:href="#DejaVuSans-73" x="265.771484"/>
     </g>
    </g>
    <g id="patch_56">
     <path d="M 371.18 133.660813 
L 399.18 133.660813 
L 399.18 123.860813 
L 371.18 123.860813 
z
" style="fill: #ff0000"/>
    </g>
    <g id="text_14">
     <!--  g__Streptococcus -->
     <g transform="translate(410.38 133.660813) scale(0.14 -0.14)">
      <defs>
       <path id="DejaVuSans-67" d="M 2906 1791 
Q 2906 2416 2648 2759 
Q 2391 3103 1925 3103 
Q 1463 3103 1205 2759 
Q 947 2416 947 1791 
Q 947 1169 1205 825 
Q 1463 481 1925 481 
Q 2391 481 2648 825 
Q 2906 1169 2906 1791 
z
M 3481 434 
Q 3481 -459 3084 -895 
Q 2688 -1331 1869 -1331 
Q 1566 -1331 1297 -1286 
Q 1028 -1241 775 -1147 
L 775 -588 
Q 1028 -725 1275 -790 
Q 1522 -856 1778 -856 
Q 2344 -856 2625 -561 
Q 2906 -266 2906 331 
L 2906 616 
Q 2728 306 2450 153 
Q 2172 0 1784 0 
Q 1141 0 747 490 
Q 353 981 353 1791 
Q 353 2603 747 3093 
Q 1141 3584 1784 3584 
Q 2172 3584 2450 3431 
Q 2728 3278 2906 2969 
L 2906 3500 
L 3481 3500 
L 3481 434 
z
" transform="scale(0.015625)"/>
       <path id="DejaVuSans-5f" d="M 3263 -1063 
L 3263 -1509 
L -63 -1509 
L -63 -1063 
L 3263 -1063 
z
" transform="scale(0.015625)"/>
       <path id="DejaVuSans-72" d="M 2631 2963 
Q 2534 3019 2420 3045 
Q 2306 3072 2169 3072 
Q 1681 3072 1420 2755 
Q 1159 2438 1159 1844 
L 1159 0 
L 581 0 
L 581 3500 
L 1159 3500 
L 1159 2956 
Q 1341 3275 1631 3429 
Q 1922 3584 2338 3584 
Q 2397 3584 2469 3576 
Q 2541 3569 2628 3553 
L 2631 2963 
z
" transform="scale(0.015625)"/>
       <path id="DejaVuSans-70" d="M 1159 525 
L 1159 -1331 
L 581 -1331 
L 581 3500 
L 1159 3500 
L 1159 2969 
Q 1341 3281 1617 3432 
Q 1894 3584 2278 3584 
Q 2916 3584 3314 3078 
Q 3713 2572 3713 1747 
Q 3713 922 3314 415 
Q 2916 -91 2278 -91 
Q 1894 -91 1617 61 
Q 1341 213 1159 525 
z
M 3116 1747 
Q 3116 2381 2855 2742 
Q 2594 3103 2138 3103 
Q 1681 3103 1420 2742 
Q 1159 2381 1159 1747 
Q 1159 1113 1420 752 
Q 1681 391 2138 391 
Q 2594 391 2855 752 
Q 3116 1113 3116 1747 
z
" transform="scale(0.015625)"/>
       <path id="DejaVuSans-6f" d="M 1959 3097 
Q 1497 3097 1228 2736 
Q 959 2375 959 1747 
Q 959 1119 1226 758 
Q 1494 397 1959 397 
Q 2419 397 2687 759 
Q 2956 1122 2956 1747 
Q 2956 2369 2687 2733 
Q 2419 3097 1959 3097 
z
M 1959 3584 
Q 2709 3584 3137 3096 
Q 3566 2609 3566 1747 
Q 3566 888 3137 398 
Q 2709 -91 1959 -91 
Q 1206 -91 779 398 
Q 353 888 353 1747 
Q 353 2609 779 3096 
Q 1206 3584 1959 3584 
z
" transform="scale(0.015625)"/>
      </defs>
      <use xlink:href="#DejaVuSans-20"/>
      <use xlink:href="#DejaVuSans-67" x="31.787109"/>
      <use xlink:href="#DejaVuSans-5f" x="95.263672"/>
      <use xlink:href="#DejaVuSans-5f" x="145.263672"/>
      <use xlink:href="#DejaVuSans-53" x="195.263672"/>
      <use xlink:href="#DejaVuSans-74" x="258.740234"/>
      <use xlink:href="#DejaVuSans-72" x="297.949219"/>
      <use xlink:href="#DejaVuSans-65" x="336.8125"/>
      <use xlink:href="#DejaVuSans-70" x="398.335938"/>
      <use xlink:href="#DejaVuSans-74" x="461.8125"/>
      <use xlink:href="#DejaVuSans-6f" x="501.021484"/>
      <use xlink:href="#DejaVuSans-63" x="562.203125"/>
      <use xlink:href="#DejaVuSans-6f" x="617.183594"/>
      <use xlink:href="#DejaVuSans-63" x="678.365234"/>
      <use xlink:href="#DejaVuSans-63" x="733.345703"/>
      <use xlink:href="#DejaVuSans-75" x="788.326172"/>
      <use xlink:href="#DejaVuSans-73" x="851.705078"/>
     </g>
    </g>
    <g id="patch_57">
     <path d="M 371.18 154.599563 
L 399.18 154.599563 
L 399.18 144.799563 
L 371.18 144.799563 
z
" style="fill: #92f0f0"/>
    </g>
    <g id="text_15">
     <!--  g__Staphylococcus -->
     <g transform="translate(410.38 154.599563) scale(0.14 -0.14)">
      <defs>
       <path id="DejaVuSans-68" d="M 3513 2113 
L 3513 0 
L 2938 0 
L 2938 2094 
Q 2938 2591 2744 2837 
Q 2550 3084 2163 3084 
Q 1697 3084 1428 2787 
Q 1159 2491 1159 1978 
L 1159 0 
L 581 0 
L 581 4863 
L 1159 4863 
L 1159 2956 
Q 1366 3272 1645 3428 
Q 1925 3584 2291 3584 
Q 2894 3584 3203 3211 
Q 3513 2838 3513 2113 
z
" transform="scale(0.015625)"/>
       <path id="DejaVuSans-79" d="M 2059 -325 
Q 1816 -950 1584 -1140 
Q 1353 -1331 966 -1331 
L 506 -1331 
L 506 -850 
L 844 -850 
Q 1081 -850 1212 -737 
Q 1344 -625 1503 -206 
L 1606 56 
L 191 3500 
L 800 3500 
L 1894 763 
L 2988 3500 
L 3597 3500 
L 2059 -325 
z
" transform="scale(0.015625)"/>
      </defs>
      <use xlink:href="#DejaVuSans-20"/>
      <use xlink:href="#DejaVuSans-67" x="31.787109"/>
      <use xlink:href="#DejaVuSans-5f" x="95.263672"/>
      <use xlink:href="#DejaVuSans-5f" x="145.263672"/>
      <use xlink:href="#DejaVuSans-53" x="195.263672"/>
      <use xlink:href="#DejaVuSans-74" x="258.740234"/>
      <use xlink:href="#DejaVuSans-61" x="297.949219"/>
      <use xlink:href="#DejaVuSans-70" x="359.228516"/>
      <use xlink:href="#DejaVuSans-68" x="422.705078"/>
      <use xlink:href="#DejaVuSans-79" x="486.083984"/>
      <use xlink:href="#DejaVuSans-6c" x="545.263672"/>
      <use xlink:href="#DejaVuSans-6f" x="573.046875"/>
      <use xlink:href="#DejaVuSans-63" x="634.228516"/>
      <use xlink:href="#DejaVuSans-6f" x="689.208984"/>
      <use xlink:href="#DejaVuSans-63" x="750.390625"/>
      <use xlink:href="#DejaVuSans-63" x="805.371094"/>
      <use xlink:href="#DejaVuSans-75" x="860.351562"/>
      <use xlink:href="#DejaVuSans-73" x="923.730469"/>
     </g>
    </g>
    <g id="patch_58">
     <path d="M 371.18 175.538313 
L 399.18 175.538313 
L 399.18 165.738313 
L 371.18 165.738313 
z
" style="fill: #4c72b0"/>
    </g>
    <g id="text_16">
     <!-- g__Haemophilus -->
     <g transform="translate(410.38 175.538313) scale(0.14 -0.14)">
      <defs>
       <path id="DejaVuSans-6d" d="M 3328 2828 
Q 3544 3216 3844 3400 
Q 4144 3584 4550 3584 
Q 5097 3584 5394 3201 
Q 5691 2819 5691 2113 
L 5691 0 
L 5113 0 
L 5113 2094 
Q 5113 2597 4934 2840 
Q 4756 3084 4391 3084 
Q 3944 3084 3684 2787 
Q 3425 2491 3425 1978 
L 3425 0 
L 2847 0 
L 2847 2094 
Q 2847 2600 2669 2842 
Q 2491 3084 2119 3084 
Q 1678 3084 1418 2786 
Q 1159 2488 1159 1978 
L 1159 0 
L 581 0 
L 581 3500 
L 1159 3500 
L 1159 2956 
Q 1356 3278 1631 3431 
Q 1906 3584 2284 3584 
Q 2666 3584 2933 3390 
Q 3200 3197 3328 2828 
z
" transform="scale(0.015625)"/>
      </defs>
      <use xlink:href="#DejaVuSans-67"/>
      <use xlink:href="#DejaVuSans-5f" x="63.476562"/>
      <use xlink:href="#DejaVuSans-5f" x="113.476562"/>
      <use xlink:href="#DejaVuSans-48" x="163.476562"/>
      <use xlink:href="#DejaVuSans-61" x="238.671875"/>
      <use xlink:href="#DejaVuSans-65" x="299.951172"/>
      <use xlink:href="#DejaVuSans-6d" x="361.474609"/>
      <use xlink:href="#DejaVuSans-6f" x="458.886719"/>
      <use xlink:href="#DejaVuSans-70" x="520.068359"/>
      <use xlink:href="#DejaVuSans-68" x="583.544922"/>
      <use xlink:href="#DejaVuSans-69" x="646.923828"/>
      <use xlink:href="#DejaVuSans-6c" x="674.707031"/>
      <use xlink:href="#DejaVuSans-75" x="702.490234"/>
      <use xlink:href="#DejaVuSans-73" x="765.869141"/>
     </g>
    </g>
    <g id="patch_59">
     <path d="M 371.18 196.477062 
L 399.18 196.477062 
L 399.18 186.677062 
L 371.18 186.677062 
z
" style="fill: #dd8452"/>
    </g>
    <g id="text_17">
     <!--  g__Unknown -->
     <g transform="translate(410.38 196.477062) scale(0.14 -0.14)">
      <defs>
       <path id="DejaVuSans-55" d="M 556 4666 
L 1191 4666 
L 1191 1831 
Q 1191 1081 1462 751 
Q 1734 422 2344 422 
Q 2950 422 3222 751 
Q 3494 1081 3494 1831 
L 3494 4666 
L 4128 4666 
L 4128 1753 
Q 4128 841 3676 375 
Q 3225 -91 2344 -91 
Q 1459 -91 1007 375 
Q 556 841 556 1753 
L 556 4666 
z
" transform="scale(0.015625)"/>
       <path id="DejaVuSans-77" d="M 269 3500 
L 844 3500 
L 1563 769 
L 2278 3500 
L 2956 3500 
L 3675 769 
L 4391 3500 
L 4966 3500 
L 4050 0 
L 3372 0 
L 2619 2869 
L 1863 0 
L 1184 0 
L 269 3500 
z
" transform="scale(0.015625)"/>
      </defs>
      <use xlink:href="#DejaVuSans-20"/>
      <use xlink:href="#DejaVuSans-67" x="31.787109"/>
      <use xlink:href="#DejaVuSans-5f" x="95.263672"/>
      <use xlink:href="#DejaVuSans-5f" x="145.263672"/>
      <use xlink:href="#DejaVuSans-55" x="195.263672"/>
      <use xlink:href="#DejaVuSans-6e" x="268.457031"/>
      <use xlink:href="#DejaVuSans-6b" x="331.835938"/>
      <use xlink:href="#DejaVuSans-6e" x="389.746094"/>
      <use xlink:href="#DejaVuSans-6f" x="453.125"/>
      <use xlink:href="#DejaVuSans-77" x="514.306641"/>
      <use xlink:href="#DejaVuSans-6e" x="596.09375"/>
     </g>
    </g>
    <g id="patch_60">
     <path d="M 371.18 217.415813 
L 399.18 217.415813 
L 399.18 207.615813 
L 371.18 207.615813 
z
" style="fill: #ffe59a"/>
    </g>
    <g id="text_18">
     <!--  g__Corynebacterium -->
     <g transform="translate(410.38 217.415813) scale(0.14 -0.14)">
      <defs>
       <path id="DejaVuSans-43" d="M 4122 4306 
L 4122 3641 
Q 3803 3938 3442 4084 
Q 3081 4231 2675 4231 
Q 1875 4231 1450 3742 
Q 1025 3253 1025 2328 
Q 1025 1406 1450 917 
Q 1875 428 2675 428 
Q 3081 428 3442 575 
Q 3803 722 4122 1019 
L 4122 359 
Q 3791 134 3420 21 
Q 3050 -91 2638 -91 
Q 1578 -91 968 557 
Q 359 1206 359 2328 
Q 359 3453 968 4101 
Q 1578 4750 2638 4750 
Q 3056 4750 3426 4639 
Q 3797 4528 4122 4306 
z
" transform="scale(0.015625)"/>
      </defs>
      <use xlink:href="#DejaVuSans-20"/>
      <use xlink:href="#DejaVuSans-67" x="31.787109"/>
      <use xlink:href="#DejaVuSans-5f" x="95.263672"/>
      <use xlink:href="#DejaVuSans-5f" x="145.263672"/>
      <use xlink:href="#DejaVuSans-43" x="195.263672"/>
      <use xlink:href="#DejaVuSans-6f" x="265.087891"/>
      <use xlink:href="#DejaVuSans-72" x="326.269531"/>
      <use xlink:href="#DejaVuSans-79" x="367.382812"/>
      <use xlink:href="#DejaVuSans-6e" x="426.5625"/>
      <use xlink:href="#DejaVuSans-65" x="489.941406"/>
      <use xlink:href="#DejaVuSans-62" x="551.464844"/>
      <use xlink:href="#DejaVuSans-61" x="614.941406"/>
      <use xlink:href="#DejaVuSans-63" x="676.220703"/>
      <use xlink:href="#DejaVuSans-74" x="731.201172"/>
      <use xlink:href="#DejaVuSans-65" x="770.410156"/>
      <use xlink:href="#DejaVuSans-72" x="831.933594"/>
      <use xlink:href="#DejaVuSans-69" x="873.046875"/>
      <use xlink:href="#DejaVuSans-75" x="900.830078"/>
      <use xlink:href="#DejaVuSans-6d" x="964.208984"/>
     </g>
    </g>
    <g id="patch_61">
     <path d="M 371.18 238.354563 
L 399.18 238.354563 
L 399.18 228.554563 
L 371.18 228.554563 
z
" style="fill: #55a868"/>
    </g>
    <g id="text_19">
     <!--  g__Acinetobacter -->
     <g transform="translate(410.38 238.354563) scale(0.14 -0.14)">
      <use xlink:href="#DejaVuSans-20"/>
      <use xlink:href="#DejaVuSans-67" x="31.787109"/>
      <use xlink:href="#DejaVuSans-5f" x="95.263672"/>
      <use xlink:href="#DejaVuSans-5f" x="145.263672"/>
      <use xlink:href="#DejaVuSans-41" x="195.263672"/>
      <use xlink:href="#DejaVuSans-63" x="261.921875"/>
      <use xlink:href="#DejaVuSans-69" x="316.902344"/>
      <use xlink:href="#DejaVuSans-6e" x="344.685547"/>
      <use xlink:href="#DejaVuSans-65" x="408.064453"/>
      <use xlink:href="#DejaVuSans-74" x="469.587891"/>
      <use xlink:href="#DejaVuSans-6f" x="508.796875"/>
      <use xlink:href="#DejaVuSans-62" x="569.978516"/>
      <use xlink:href="#DejaVuSans-61" x="633.455078"/>
      <use xlink:href="#DejaVuSans-63" x="694.734375"/>
      <use xlink:href="#DejaVuSans-74" x="749.714844"/>
      <use xlink:href="#DejaVuSans-65" x="788.923828"/>
      <use xlink:href="#DejaVuSans-72" x="850.447266"/>
     </g>
    </g>
    <g id="patch_62">
     <path d="M 371.18 259.293313 
L 399.18 259.293313 
L 399.18 249.493313 
L 371.18 249.493313 
z
" style="fill: #c44e52"/>
    </g>
    <g id="text_20">
     <!--  g__Prevotella -->
     <g transform="translate(410.38 259.293313) scale(0.14 -0.14)">
      <defs>
       <path id="DejaVuSans-50" d="M 1259 4147 
L 1259 2394 
L 2053 2394 
Q 2494 2394 2734 2622 
Q 2975 2850 2975 3272 
Q 2975 3691 2734 3919 
Q 2494 4147 2053 4147 
L 1259 4147 
z
M 628 4666 
L 2053 4666 
Q 2838 4666 3239 4311 
Q 3641 3956 3641 3272 
Q 3641 2581 3239 2228 
Q 2838 1875 2053 1875 
L 1259 1875 
L 1259 0 
L 628 0 
L 628 4666 
z
" transform="scale(0.015625)"/>
      </defs>
      <use xlink:href="#DejaVuSans-20"/>
      <use xlink:href="#DejaVuSans-67" x="31.787109"/>
      <use xlink:href="#DejaVuSans-5f" x="95.263672"/>
      <use xlink:href="#DejaVuSans-5f" x="145.263672"/>
      <use xlink:href="#DejaVuSans-50" x="195.263672"/>
      <use xlink:href="#DejaVuSans-72" x="253.816406"/>
      <use xlink:href="#DejaVuSans-65" x="292.679688"/>
      <use xlink:href="#DejaVuSans-76" x="354.203125"/>
      <use xlink:href="#DejaVuSans-6f" x="413.382812"/>
      <use xlink:href="#DejaVuSans-74" x="474.564453"/>
      <use xlink:href="#DejaVuSans-65" x="513.773438"/>
      <use xlink:href="#DejaVuSans-6c" x="575.296875"/>
      <use xlink:href="#DejaVuSans-6c" x="603.080078"/>
      <use xlink:href="#DejaVuSans-61" x="630.863281"/>
     </g>
    </g>
    <g id="patch_63">
     <path d="M 371.18 280.232062 
L 399.18 280.232062 
L 399.18 270.432062 
L 371.18 270.432062 
z
" style="fill: #f4cccd"/>
    </g>
    <g id="text_21">
     <!--  g__Micrococcus -->
     <g transform="translate(410.38 280.232062) scale(0.14 -0.14)">
      <defs>
       <path id="DejaVuSans-4d" d="M 628 4666 
L 1569 4666 
L 2759 1491 
L 3956 4666 
L 4897 4666 
L 4897 0 
L 4281 0 
L 4281 4097 
L 3078 897 
L 2444 897 
L 1241 4097 
L 1241 0 
L 628 0 
L 628 4666 
z
" transform="scale(0.015625)"/>
      </defs>
      <use xlink:href="#DejaVuSans-20"/>
      <use xlink:href="#DejaVuSans-67" x="31.787109"/>
      <use xlink:href="#DejaVuSans-5f" x="95.263672"/>
      <use xlink:href="#DejaVuSans-5f" x="145.263672"/>
      <use xlink:href="#DejaVuSans-4d" x="195.263672"/>
      <use xlink:href="#DejaVuSans-69" x="281.542969"/>
      <use xlink:href="#DejaVuSans-63" x="309.326172"/>
      <use xlink:href="#DejaVuSans-72" x="364.306641"/>
      <use xlink:href="#DejaVuSans-6f" x="403.169922"/>
      <use xlink:href="#DejaVuSans-63" x="464.351562"/>
      <use xlink:href="#DejaVuSans-6f" x="519.332031"/>
      <use xlink:href="#DejaVuSans-63" x="580.513672"/>
      <use xlink:href="#DejaVuSans-63" x="635.494141"/>
      <use xlink:href="#DejaVuSans-75" x="690.474609"/>
      <use xlink:href="#DejaVuSans-73" x="753.853516"/>
     </g>
    </g>
    <g id="patch_64">
     <path d="M 371.18 301.170813 
L 399.18 301.170813 
L 399.18 291.370812 
L 371.18 291.370812 
z
" style="fill: #8172b3"/>
    </g>
    <g id="text_22">
     <!--  g__Dolosigranulum -->
     <g transform="translate(410.38 301.170813) scale(0.14 -0.14)">
      <use xlink:href="#DejaVuSans-20"/>
      <use xlink:href="#DejaVuSans-67" x="31.787109"/>
      <use xlink:href="#DejaVuSans-5f" x="95.263672"/>
      <use xlink:href="#DejaVuSans-5f" x="145.263672"/>
      <use xlink:href="#DejaVuSans-44" x="195.263672"/>
      <use xlink:href="#DejaVuSans-6f" x="272.265625"/>
      <use xlink:href="#DejaVuSans-6c" x="333.447266"/>
      <use xlink:href="#DejaVuSans-6f" x="361.230469"/>
      <use xlink:href="#DejaVuSans-73" x="422.412109"/>
      <use xlink:href="#DejaVuSans-69" x="474.511719"/>
      <use xlink:href="#DejaVuSans-67" x="502.294922"/>
      <use xlink:href="#DejaVuSans-72" x="565.771484"/>
      <use xlink:href="#DejaVuSans-61" x="606.884766"/>
      <use xlink:href="#DejaVuSans-6e" x="668.164062"/>
      <use xlink:href="#DejaVuSans-75" x="731.542969"/>
      <use xlink:href="#DejaVuSans-6c" x="794.921875"/>
      <use xlink:href="#DejaVuSans-75" x="822.705078"/>
      <use xlink:href="#DejaVuSans-6d" x="886.083984"/>
     </g>
    </g>
    <g id="patch_65">
     <path d="M 371.18 322.109563 
L 399.18 322.109563 
L 399.18 312.309563 
L 371.18 312.309563 
z
" style="fill: #937860"/>
    </g>
    <g id="text_23">
     <!--  g__SIO2C1 -->
     <g transform="translate(410.38 322.109563) scale(0.14 -0.14)">
      <defs>
       <path id="DejaVuSans-49" d="M 628 4666 
L 1259 4666 
L 1259 0 
L 628 0 
L 628 4666 
z
" transform="scale(0.015625)"/>
       <path id="DejaVuSans-4f" d="M 2522 4238 
Q 1834 4238 1429 3725 
Q 1025 3213 1025 2328 
Q 1025 1447 1429 934 
Q 1834 422 2522 422 
Q 3209 422 3611 934 
Q 4013 1447 4013 2328 
Q 4013 3213 3611 3725 
Q 3209 4238 2522 4238 
z
M 2522 4750 
Q 3503 4750 4090 4092 
Q 4678 3434 4678 2328 
Q 4678 1225 4090 567 
Q 3503 -91 2522 -91 
Q 1538 -91 948 565 
Q 359 1222 359 2328 
Q 359 3434 948 4092 
Q 1538 4750 2522 4750 
z
" transform="scale(0.015625)"/>
      </defs>
      <use xlink:href="#DejaVuSans-20"/>
      <use xlink:href="#DejaVuSans-67" x="31.787109"/>
      <use xlink:href="#DejaVuSans-5f" x="95.263672"/>
      <use xlink:href="#DejaVuSans-5f" x="145.263672"/>
      <use xlink:href="#DejaVuSans-53" x="195.263672"/>
      <use xlink:href="#DejaVuSans-49" x="258.740234"/>
      <use xlink:href="#DejaVuSans-4f" x="288.232422"/>
      <use xlink:href="#DejaVuSans-32" x="366.943359"/>
      <use xlink:href="#DejaVuSans-43" x="430.566406"/>
      <use xlink:href="#DejaVuSans-31" x="500.390625"/>
     </g>
    </g>
    <g id="patch_66">
     <path d="M 371.18 343.048313 
L 399.18 343.048313 
L 399.18 333.248312 
L 371.18 333.248312 
z
" style="fill: #da8bc3"/>
    </g>
    <g id="text_24">
     <!-- g__Veillonella -->
     <g transform="translate(410.38 343.048313) scale(0.14 -0.14)">
      <defs>
       <path id="DejaVuSans-56" d="M 1831 0 
L 50 4666 
L 709 4666 
L 2188 738 
L 3669 4666 
L 4325 4666 
L 2547 0 
L 1831 0 
z
" transform="scale(0.015625)"/>
      </defs>
      <use xlink:href="#DejaVuSans-67"/>
      <use xlink:href="#DejaVuSans-5f" x="63.476562"/>
      <use xlink:href="#DejaVuSans-5f" x="113.476562"/>
      <use xlink:href="#DejaVuSans-56" x="163.476562"/>
      <use xlink:href="#DejaVuSans-65" x="224.134766"/>
      <use xlink:href="#DejaVuSans-69" x="285.658203"/>
      <use xlink:href="#DejaVuSans-6c" x="313.441406"/>
      <use xlink:href="#DejaVuSans-6c" x="341.224609"/>
      <use xlink:href="#DejaVuSans-6f" x="369.007812"/>
      <use xlink:href="#DejaVuSans-6e" x="430.189453"/>
      <use xlink:href="#DejaVuSans-65" x="493.568359"/>
      <use xlink:href="#DejaVuSans-6c" x="555.091797"/>
      <use xlink:href="#DejaVuSans-6c" x="582.875"/>
      <use xlink:href="#DejaVuSans-61" x="610.658203"/>
     </g>
    </g>
    <g id="patch_67">
     <path d="M 371.18 363.987062 
L 399.18 363.987062 
L 399.18 354.187062 
L 371.18 354.187062 
z
" style="fill: #8c8c8c"/>
    </g>
    <g id="text_25">
     <!-- g__Neisseria -->
     <g transform="translate(410.38 363.987062) scale(0.14 -0.14)">
      <use xlink:href="#DejaVuSans-67"/>
      <use xlink:href="#DejaVuSans-5f" x="63.476562"/>
      <use xlink:href="#DejaVuSans-5f" x="113.476562"/>
      <use xlink:href="#DejaVuSans-4e" x="163.476562"/>
      <use xlink:href="#DejaVuSans-65" x="238.28125"/>
      <use xlink:href="#DejaVuSans-69" x="299.804688"/>
      <use xlink:href="#DejaVuSans-73" x="327.587891"/>
      <use xlink:href="#DejaVuSans-73" x="379.6875"/>
      <use xlink:href="#DejaVuSans-65" x="431.787109"/>
      <use xlink:href="#DejaVuSans-72" x="493.310547"/>
      <use xlink:href="#DejaVuSans-69" x="534.423828"/>
      <use xlink:href="#DejaVuSans-61" x="562.207031"/>
     </g>
    </g>
    <g id="patch_68">
     <path d="M 371.18 384.925813 
L 399.18 384.925813 
L 399.18 375.125812 
L 371.18 375.125812 
z
" style="fill: #ccb974"/>
    </g>
    <g id="text_26">
     <!--  g__Psychrobacter -->
     <g transform="translate(410.38 384.925813) scale(0.14 -0.14)">
      <use xlink:href="#DejaVuSans-20"/>
      <use xlink:href="#DejaVuSans-67" x="31.787109"/>
      <use xlink:href="#DejaVuSans-5f" x="95.263672"/>
      <use xlink:href="#DejaVuSans-5f" x="145.263672"/>
      <use xlink:href="#DejaVuSans-50" x="195.263672"/>
      <use xlink:href="#DejaVuSans-73" x="253.816406"/>
      <use xlink:href="#DejaVuSans-79" x="305.916016"/>
      <use xlink:href="#DejaVuSans-63" x="365.095703"/>
      <use xlink:href="#DejaVuSans-68" x="420.076172"/>
      <use xlink:href="#DejaVuSans-72" x="483.455078"/>
      <use xlink:href="#DejaVuSans-6f" x="522.318359"/>
      <use xlink:href="#DejaVuSans-62" x="583.5"/>
      <use xlink:href="#DejaVuSans-61" x="646.976562"/>
      <use xlink:href="#DejaVuSans-63" x="708.255859"/>
      <use xlink:href="#DejaVuSans-74" x="763.236328"/>
      <use xlink:href="#DejaVuSans-65" x="802.445312"/>
      <use xlink:href="#DejaVuSans-72" x="863.96875"/>
     </g>
    </g>
    <g id="patch_69">
     <path d="M 371.18 405.864563 
L 399.18 405.864563 
L 399.18 396.064563 
L 371.18 396.064563 
z
" style="fill: #ffa505"/>
    </g>
    <g id="text_27">
     <!--  g__Cutibacterium -->
     <g transform="translate(410.38 405.864563) scale(0.14 -0.14)">
      <use xlink:href="#DejaVuSans-20"/>
      <use xlink:href="#DejaVuSans-67" x="31.787109"/>
      <use xlink:href="#DejaVuSans-5f" x="95.263672"/>
      <use xlink:href="#DejaVuSans-5f" x="145.263672"/>
      <use xlink:href="#DejaVuSans-43" x="195.263672"/>
      <use xlink:href="#DejaVuSans-75" x="265.087891"/>
      <use xlink:href="#DejaVuSans-74" x="328.466797"/>
      <use xlink:href="#DejaVuSans-69" x="367.675781"/>
      <use xlink:href="#DejaVuSans-62" x="395.458984"/>
      <use xlink:href="#DejaVuSans-61" x="458.935547"/>
      <use xlink:href="#DejaVuSans-63" x="520.214844"/>
      <use xlink:href="#DejaVuSans-74" x="575.195312"/>
      <use xlink:href="#DejaVuSans-65" x="614.404297"/>
      <use xlink:href="#DejaVuSans-72" x="675.927734"/>
      <use xlink:href="#DejaVuSans-69" x="717.041016"/>
      <use xlink:href="#DejaVuSans-75" x="744.824219"/>
      <use xlink:href="#DejaVuSans-6d" x="808.203125"/>
     </g>
    </g>
    <g id="patch_70">
     <path d="M 371.18 426.803313 
L 399.18 426.803313 
L 399.18 417.003313 
L 371.18 417.003313 
z
" style="fill: #64b5cd"/>
    </g>
    <g id="text_28">
     <!-- g__Pseudomonas -->
     <g transform="translate(410.38 426.803313) scale(0.14 -0.14)">
      <use xlink:href="#DejaVuSans-67"/>
      <use xlink:href="#DejaVuSans-5f" x="63.476562"/>
      <use xlink:href="#DejaVuSans-5f" x="113.476562"/>
      <use xlink:href="#DejaVuSans-50" x="163.476562"/>
      <use xlink:href="#DejaVuSans-73" x="222.029297"/>
      <use xlink:href="#DejaVuSans-65" x="274.128906"/>
      <use xlink:href="#DejaVuSans-75" x="335.652344"/>
      <use xlink:href="#DejaVuSans-64" x="399.03125"/>
      <use xlink:href="#DejaVuSans-6f" x="462.507812"/>
      <use xlink:href="#DejaVuSans-6d" x="523.689453"/>
      <use xlink:href="#DejaVuSans-6f" x="621.101562"/>
      <use xlink:href="#DejaVuSans-6e" x="682.283203"/>
      <use xlink:href="#DejaVuSans-61" x="745.662109"/>
      <use xlink:href="#DejaVuSans-73" x="806.941406"/>
     </g>
    </g>
    <g id="patch_71">
     <path d="M 371.18 447.742063 
L 399.18 447.742063 
L 399.18 437.942063 
L 371.18 437.942063 
z
" style="fill: #ededed"/>
    </g>
    <g id="text_29">
     <!-- Others -->
     <g transform="translate(410.38 447.742063) scale(0.14 -0.14)">
      <use xlink:href="#DejaVuSans-4f"/>
      <use xlink:href="#DejaVuSans-74" x="78.710938"/>
      <use xlink:href="#DejaVuSans-68" x="117.919922"/>
      <use xlink:href="#DejaVuSans-65" x="181.298828"/>
      <use xlink:href="#DejaVuSans-72" x="242.822266"/>
      <use xlink:href="#DejaVuSans-73" x="283.935547"/>
     </g>
    </g>
   </g>
  </g>
 </g>
 <defs>
  <clipPath id="p148551b2b6">
   <rect x="67.79" y="36.24" width="290.79" height="476.776"/>
  </clipPath>
 </defs>
</svg>
