<?xml version="1.0" encoding="utf-8" standalone="no"?>
<!DOCTYPE svg PUBLIC "-//W3C//DTD SVG 1.1//EN"
  "http://www.w3.org/Graphics/SVG/1.1/DTD/svg11.dtd">
<svg xmlns:xlink="http://www.w3.org/1999/xlink" width="720pt" height="648pt" viewBox="0 0 720 648" xmlns="http://www.w3.org/2000/svg" version="1.1">
 <metadata>
  <rdf:RDF xmlns:dc="http://purl.org/dc/elements/1.1/" xmlns:cc="http://creativecommons.org/ns#" xmlns:rdf="http://www.w3.org/1999/02/22-rdf-syntax-ns#">
   <cc:Work>
    <dc:type rdf:resource="http://purl.org/dc/dcmitype/StillImage"/>
    <dc:date>2025-04-22T12:55:02.986627</dc:date>
    <dc:format>image/svg+xml</dc:format>
    <dc:creator>
     <cc:Agent>
      <dc:title>Matplotlib v3.8.4, https://matplotlib.org/</dc:title>
     </cc:Agent>
    </dc:creator>
   </cc:Work>
  </rdf:RDF>
 </metadata>
 <defs>
  <style type="text/css">*{stroke-linejoin: round; stroke-linecap: butt}</style>
 </defs>
 <g id="figure_1">
  <g id="patch_1">
   <path d="M 0 648 
L 720 648 
L 720 0 
L 0 0 
z
" style="fill: #ffffff"/>
  </g>
  <g id="axes_1">
   <g id="patch_2">
    <path d="M 67.7 578.824 
L 450.47 578.824 
L 450.47 34.08 
L 67.7 34.08 
z
" style="fill: #ffffff"/>
   </g>
   <g id="patch_3">
    <path d="M 96.697727 578.824 
L 189.490455 578.824 
L 189.490455 563.645562 
L 96.697727 563.645562 
z
" clip-path="url(#p1d529744cb)" style="fill: #ff0000"/>
   </g>
   <g id="patch_4">
    <path d="M 212.688636 578.824 
L 305.481364 578.824 
L 305.481364 525.702012 
L 212.688636 525.702012 
z
" clip-path="url(#p1d529744cb)" style="fill: #ff0000"/>
   </g>
   <g id="patch_5">
    <path d="M 328.679545 578.824 
L 421.472273 578.824 
L 421.472273 468.017657 
L 328.679545 468.017657 
z
" clip-path="url(#p1d529744cb)" style="fill: #ff0000"/>
   </g>
   <g id="patch_6">
    <path d="M 96.697727 563.645562 
L 189.490455 563.645562 
L 189.490455 463.454448 
L 96.697727 463.454448 
z
" clip-path="url(#p1d529744cb)" style="fill: #92f0f0"/>
   </g>
   <g id="patch_7">
    <path d="M 212.688636 525.702012 
L 305.481364 525.702012 
L 305.481364 378.179514 
L 212.688636 378.179514 
z
" clip-path="url(#p1d529744cb)" style="fill: #92f0f0"/>
   </g>
   <g id="patch_8">
    <path d="M 328.679545 468.017657 
L 421.472273 468.017657 
L 421.472273 323.435636 
L 328.679545 323.435636 
z
" clip-path="url(#p1d529744cb)" style="fill: #92f0f0"/>
   </g>
   <g id="patch_9">
    <path d="M 96.697727 463.454448 
L 189.490455 463.454448 
L 189.490455 461.589034 
L 96.697727 461.589034 
z
" clip-path="url(#p1d529744cb)" style="fill: #4c72b0"/>
   </g>
   <g id="patch_10">
    <path d="M 212.688636 378.179514 
L 305.481364 378.179514 
L 305.481364 366.096199 
L 212.688636 366.096199 
z
" clip-path="url(#p1d529744cb)" style="fill: #4c72b0"/>
   </g>
   <g id="patch_11">
    <path d="M 328.679545 323.435636 
L 421.472273 323.435636 
L 421.472273 310.629778 
L 328.679545 310.629778 
z
" clip-path="url(#p1d529744cb)" style="fill: #4c72b0"/>
   </g>
   <g id="patch_12">
    <path d="M 96.697727 461.589034 
L 189.490455 461.589034 
L 189.490455 379.924879 
L 96.697727 379.924879 
z
" clip-path="url(#p1d529744cb)" style="fill: #dd8452"/>
   </g>
   <g id="patch_13">
    <path d="M 212.688636 366.096199 
L 305.481364 366.096199 
L 305.481364 299.52652 
L 212.688636 299.52652 
z
" clip-path="url(#p1d529744cb)" style="fill: #dd8452"/>
   </g>
   <g id="patch_14">
    <path d="M 328.679545 310.629778 
L 421.472273 310.629778 
L 421.472273 258.834645 
L 328.679545 258.834645 
z
" clip-path="url(#p1d529744cb)" style="fill: #dd8452"/>
   </g>
   <g id="patch_15">
    <path d="M 96.697727 379.924879 
L 189.490455 379.924879 
L 189.490455 319.335722 
L 96.697727 319.335722 
z
" clip-path="url(#p1d529744cb)" style="fill: #ffe59a"/>
   </g>
   <g id="patch_16">
    <path d="M 212.688636 299.52652 
L 305.481364 299.52652 
L 305.481364 258.956165 
L 212.688636 258.956165 
z
" clip-path="url(#p1d529744cb)" style="fill: #ffe59a"/>
   </g>
   <g id="patch_17">
    <path d="M 328.679545 258.834645 
L 421.472273 258.834645 
L 421.472273 243.132841 
L 328.679545 243.132841 
z
" clip-path="url(#p1d529744cb)" style="fill: #ffe59a"/>
   </g>
   <g id="patch_18">
    <path d="M 96.697727 319.335722 
L 189.490455 319.335722 
L 189.490455 257.040171 
L 96.697727 257.040171 
z
" clip-path="url(#p1d529744cb)" style="fill: #55a868"/>
   </g>
   <g id="patch_19">
    <path d="M 212.688636 258.956165 
L 305.481364 258.956165 
L 305.481364 237.040355 
L 212.688636 237.040355 
z
" clip-path="url(#p1d529744cb)" style="fill: #55a868"/>
   </g>
   <g id="patch_20">
    <path d="M 328.679545 243.132841 
L 421.472273 243.132841 
L 421.472273 226.414218 
L 328.679545 226.414218 
z
" clip-path="url(#p1d529744cb)" style="fill: #55a868"/>
   </g>
   <g id="patch_21">
    <path d="M 96.697727 257.040171 
L 189.490455 257.040171 
L 189.490455 218.411649 
L 96.697727 218.411649 
z
" clip-path="url(#p1d529744cb)" style="fill: #c44e52"/>
   </g>
   <g id="patch_22">
    <path d="M 212.688636 237.040355 
L 305.481364 237.040355 
L 305.481364 210.936591 
L 212.688636 210.936591 
z
" clip-path="url(#p1d529744cb)" style="fill: #c44e52"/>
   </g>
   <g id="patch_23">
    <path d="M 328.679545 226.414218 
L 421.472273 226.414218 
L 421.472273 208.484668 
L 328.679545 208.484668 
z
" clip-path="url(#p1d529744cb)" style="fill: #c44e52"/>
   </g>
   <g id="patch_24">
    <path d="M 96.697727 218.411649 
L 189.490455 218.411649 
L 189.490455 179.142145 
L 96.697727 179.142145 
z
" clip-path="url(#p1d529744cb)" style="fill: #f4cccd"/>
   </g>
   <g id="patch_25">
    <path d="M 212.688636 210.936591 
L 305.481364 210.936591 
L 305.481364 182.426045 
L 212.688636 182.426045 
z
" clip-path="url(#p1d529744cb)" style="fill: #f4cccd"/>
   </g>
   <g id="patch_26">
    <path d="M 328.679545 208.484668 
L 421.472273 208.484668 
L 421.472273 196.280904 
L 328.679545 196.280904 
z
" clip-path="url(#p1d529744cb)" style="fill: #f4cccd"/>
   </g>
   <g id="patch_27">
    <path d="M 96.697727 179.142145 
L 189.490455 179.142145 
L 189.490455 179.108339 
L 96.697727 179.108339 
z
" clip-path="url(#p1d529744cb)" style="fill: #8172b3"/>
   </g>
   <g id="patch_28">
    <path d="M 212.688636 182.426045 
L 305.481364 182.426045 
L 305.481364 181.702413 
L 212.688636 181.702413 
z
" clip-path="url(#p1d529744cb)" style="fill: #8172b3"/>
   </g>
   <g id="patch_29">
    <path d="M 328.679545 196.280904 
L 421.472273 196.280904 
L 421.472273 195.33679 
L 328.679545 195.33679 
z
" clip-path="url(#p1d529744cb)" style="fill: #8172b3"/>
   </g>
   <g id="patch_30">
    <path d="M 96.697727 179.108339 
L 189.490455 179.108339 
L 189.490455 176.263846 
L 96.697727 176.263846 
z
" clip-path="url(#p1d529744cb)" style="fill: #937860"/>
   </g>
   <g id="patch_31">
    <path d="M 212.688636 181.702413 
L 305.481364 181.702413 
L 305.481364 177.266783 
L 212.688636 177.266783 
z
" clip-path="url(#p1d529744cb)" style="fill: #937860"/>
   </g>
   <g id="patch_32">
    <path d="M 328.679545 195.33679 
L 421.472273 195.33679 
L 421.472273 183.821745 
L 328.679545 183.821745 
z
" clip-path="url(#p1d529744cb)" style="fill: #937860"/>
   </g>
   <g id="patch_33">
    <path d="M 96.697727 176.263846 
L 189.490455 176.263846 
L 189.490455 175.002311 
L 96.697727 175.002311 
z
" clip-path="url(#p1d529744cb)" style="fill: #da8bc3"/>
   </g>
   <g id="patch_34">
    <path d="M 212.688636 177.266783 
L 305.481364 177.266783 
L 305.481364 171.453796 
L 212.688636 171.453796 
z
" clip-path="url(#p1d529744cb)" style="fill: #da8bc3"/>
   </g>
   <g id="patch_35">
    <path d="M 328.679545 183.821745 
L 421.472273 183.821745 
L 421.472273 168.017883 
L 328.679545 168.017883 
z
" clip-path="url(#p1d529744cb)" style="fill: #da8bc3"/>
   </g>
   <g id="patch_36">
    <path d="M 96.697727 175.002311 
L 189.490455 175.002311 
L 189.490455 171.572598 
L 96.697727 171.572598 
z
" clip-path="url(#p1d529744cb)" style="fill: #8c8c8c"/>
   </g>
   <g id="patch_37">
    <path d="M 212.688636 171.453796 
L 305.481364 171.453796 
L 305.481364 165.544433 
L 212.688636 165.544433 
z
" clip-path="url(#p1d529744cb)" style="fill: #8c8c8c"/>
   </g>
   <g id="patch_38">
    <path d="M 328.679545 168.017883 
L 421.472273 168.017883 
L 421.472273 157.121386 
L 328.679545 157.121386 
z
" clip-path="url(#p1d529744cb)" style="fill: #8c8c8c"/>
   </g>
   <g id="patch_39">
    <path d="M 96.697727 171.572598 
L 189.490455 171.572598 
L 189.490455 161.577317 
L 96.697727 161.577317 
z
" clip-path="url(#p1d529744cb)" style="fill: #ccb974"/>
   </g>
   <g id="patch_40">
    <path d="M 212.688636 165.544433 
L 305.481364 165.544433 
L 305.481364 161.632714 
L 212.688636 161.632714 
z
" clip-path="url(#p1d529744cb)" style="fill: #ccb974"/>
   </g>
   <g id="patch_41">
    <path d="M 328.679545 157.121386 
L 421.472273 157.121386 
L 421.472273 146.586439 
L 328.679545 146.586439 
z
" clip-path="url(#p1d529744cb)" style="fill: #ccb974"/>
   </g>
   <g id="patch_42">
    <path d="M 96.697727 161.577317 
L 189.490455 161.577317 
L 189.490455 158.602035 
L 96.697727 158.602035 
z
" clip-path="url(#p1d529744cb)" style="fill: #ffa505"/>
   </g>
   <g id="patch_43">
    <path d="M 212.688636 161.632714 
L 305.481364 161.632714 
L 305.481364 155.294618 
L 212.688636 155.294618 
z
" clip-path="url(#p1d529744cb)" style="fill: #ffa505"/>
   </g>
   <g id="patch_44">
    <path d="M 328.679545 146.586439 
L 421.472273 146.586439 
L 421.472273 136.440925 
L 328.679545 136.440925 
z
" clip-path="url(#p1d529744cb)" style="fill: #ffa505"/>
   </g>
   <g id="patch_45">
    <path d="M 96.697727 158.602035 
L 189.490455 158.602035 
L 189.490455 158.310863 
L 96.697727 158.310863 
z
" clip-path="url(#p1d529744cb)" style="fill: #64b5cd"/>
   </g>
   <g id="patch_46">
    <path d="M 212.688636 155.294618 
L 305.481364 155.294618 
L 305.481364 154.729617 
L 212.688636 154.729617 
z
" clip-path="url(#p1d529744cb)" style="fill: #64b5cd"/>
   </g>
   <g id="patch_47">
    <path d="M 328.679545 136.440925 
L 421.472273 136.440925 
L 421.472273 126.336908 
L 328.679545 126.336908 
z
" clip-path="url(#p1d529744cb)" style="fill: #64b5cd"/>
   </g>
   <g id="patch_48">
    <path d="M 96.697727 158.310863 
L 189.490455 158.310863 
L 189.490455 60.02019 
L 96.697727 60.02019 
z
" clip-path="url(#p1d529744cb)" style="fill: #ededed"/>
   </g>
   <g id="patch_49">
    <path d="M 212.688636 154.729617 
L 305.481364 154.729617 
L 305.481364 60.02019 
L 212.688636 60.02019 
z
" clip-path="url(#p1d529744cb)" style="fill: #ededed"/>
   </g>
   <g id="patch_50">
    <path d="M 328.679545 126.336908 
L 421.472273 126.336908 
L 421.472273 60.02019 
L 328.679545 60.02019 
z
" clip-path="url(#p1d529744cb)" style="fill: #ededed"/>
   </g>
   <g id="matplotlib.axis_1">
    <g id="xtick_1">
     <g id="line2d_1">
      <defs>
       <path id="m3ea9bfd132" d="M 0 0 
L 0 3.5 
" style="stroke: #000000; stroke-width: 0.8"/>
      </defs>
      <g>
       <use xlink:href="#m3ea9bfd132" x="143.094091" y="578.824" style="stroke: #000000; stroke-width: 0.8"/>
      </g>
     </g>
     <g id="text_1">
      <!-- Healthy skin -->
      <g transform="translate(87.249091 599.501188) scale(0.18 -0.18)">
       <defs>
        <path id="DejaVuSans-48" d="M 628 4666 
L 1259 4666 
L 1259 2753 
L 3553 2753 
L 3553 4666 
L 4184 4666 
L 4184 0 
L 3553 0 
L 3553 2222 
L 1259 2222 
L 1259 0 
L 628 0 
L 628 4666 
z
" transform="scale(0.015625)"/>
        <path id="DejaVuSans-65" d="M 3597 1894 
L 3597 1613 
L 953 1613 
Q 991 1019 1311 708 
Q 1631 397 2203 397 
Q 2534 397 2845 478 
Q 3156 559 3463 722 
L 3463 178 
Q 3153 47 2828 -22 
Q 2503 -91 2169 -91 
Q 1331 -91 842 396 
Q 353 884 353 1716 
Q 353 2575 817 3079 
Q 1281 3584 2069 3584 
Q 2775 3584 3186 3129 
Q 3597 2675 3597 1894 
z
M 3022 2063 
Q 3016 2534 2758 2815 
Q 2500 3097 2075 3097 
Q 1594 3097 1305 2825 
Q 1016 2553 972 2059 
L 3022 2063 
z
" transform="scale(0.015625)"/>
        <path id="DejaVuSans-61" d="M 2194 1759 
Q 1497 1759 1228 1600 
Q 959 1441 959 1056 
Q 959 750 1161 570 
Q 1363 391 1709 391 
Q 2188 391 2477 730 
Q 2766 1069 2766 1631 
L 2766 1759 
L 2194 1759 
z
M 3341 1997 
L 3341 0 
L 2766 0 
L 2766 531 
Q 2569 213 2275 61 
Q 1981 -91 1556 -91 
Q 1019 -91 701 211 
Q 384 513 384 1019 
Q 384 1609 779 1909 
Q 1175 2209 1959 2209 
L 2766 2209 
L 2766 2266 
Q 2766 2663 2505 2880 
Q 2244 3097 1772 3097 
Q 1472 3097 1187 3025 
Q 903 2953 641 2809 
L 641 3341 
Q 956 3463 1253 3523 
Q 1550 3584 1831 3584 
Q 2591 3584 2966 3190 
Q 3341 2797 3341 1997 
z
" transform="scale(0.015625)"/>
        <path id="DejaVuSans-6c" d="M 603 4863 
L 1178 4863 
L 1178 0 
L 603 0 
L 603 4863 
z
" transform="scale(0.015625)"/>
        <path id="DejaVuSans-74" d="M 1172 4494 
L 1172 3500 
L 2356 3500 
L 2356 3053 
L 1172 3053 
L 1172 1153 
Q 1172 725 1289 603 
Q 1406 481 1766 481 
L 2356 481 
L 2356 0 
L 1766 0 
Q 1100 0 847 248 
Q 594 497 594 1153 
L 594 3053 
L 172 3053 
L 172 3500 
L 594 3500 
L 594 4494 
L 1172 4494 
z
" transform="scale(0.015625)"/>
        <path id="DejaVuSans-68" d="M 3513 2113 
L 3513 0 
L 2938 0 
L 2938 2094 
Q 2938 2591 2744 2837 
Q 2550 3084 2163 3084 
Q 1697 3084 1428 2787 
Q 1159 2491 1159 1978 
L 1159 0 
L 581 0 
L 581 4863 
L 1159 4863 
L 1159 2956 
Q 1366 3272 1645 3428 
Q 1925 3584 2291 3584 
Q 2894 3584 3203 3211 
Q 3513 2838 3513 2113 
z
" transform="scale(0.015625)"/>
        <path id="DejaVuSans-79" d="M 2059 -325 
Q 1816 -950 1584 -1140 
Q 1353 -1331 966 -1331 
L 506 -1331 
L 506 -850 
L 844 -850 
Q 1081 -850 1212 -737 
Q 1344 -625 1503 -206 
L 1606 56 
L 191 3500 
L 800 3500 
L 1894 763 
L 2988 3500 
L 3597 3500 
L 2059 -325 
z
" transform="scale(0.015625)"/>
        <path id="DejaVuSans-20" transform="scale(0.015625)"/>
        <path id="DejaVuSans-73" d="M 2834 3397 
L 2834 2853 
Q 2591 2978 2328 3040 
Q 2066 3103 1784 3103 
Q 1356 3103 1142 2972 
Q 928 2841 928 2578 
Q 928 2378 1081 2264 
Q 1234 2150 1697 2047 
L 1894 2003 
Q 2506 1872 2764 1633 
Q 3022 1394 3022 966 
Q 3022 478 2636 193 
Q 2250 -91 1575 -91 
Q 1294 -91 989 -36 
Q 684 19 347 128 
L 347 722 
Q 666 556 975 473 
Q 1284 391 1588 391 
Q 1994 391 2212 530 
Q 2431 669 2431 922 
Q 2431 1156 2273 1281 
Q 2116 1406 1581 1522 
L 1381 1569 
Q 847 1681 609 1914 
Q 372 2147 372 2553 
Q 372 3047 722 3315 
Q 1072 3584 1716 3584 
Q 2034 3584 2315 3537 
Q 2597 3491 2834 3397 
z
" transform="scale(0.015625)"/>
        <path id="DejaVuSans-6b" d="M 581 4863 
L 1159 4863 
L 1159 1991 
L 2875 3500 
L 3609 3500 
L 1753 1863 
L 3688 0 
L 2938 0 
L 1159 1709 
L 1159 0 
L 581 0 
L 581 4863 
z
" transform="scale(0.015625)"/>
        <path id="DejaVuSans-69" d="M 603 3500 
L 1178 3500 
L 1178 0 
L 603 0 
L 603 3500 
z
M 603 4863 
L 1178 4863 
L 1178 4134 
L 603 4134 
L 603 4863 
z
" transform="scale(0.015625)"/>
        <path id="DejaVuSans-6e" d="M 3513 2113 
L 3513 0 
L 2938 0 
L 2938 2094 
Q 2938 2591 2744 2837 
Q 2550 3084 2163 3084 
Q 1697 3084 1428 2787 
Q 1159 2491 1159 1978 
L 1159 0 
L 581 0 
L 581 3500 
L 1159 3500 
L 1159 2956 
Q 1366 3272 1645 3428 
Q 1925 3584 2291 3584 
Q 2894 3584 3203 3211 
Q 3513 2838 3513 2113 
z
" transform="scale(0.015625)"/>
       </defs>
       <use xlink:href="#DejaVuSans-48"/>
       <use xlink:href="#DejaVuSans-65" x="75.195312"/>
       <use xlink:href="#DejaVuSans-61" x="136.71875"/>
       <use xlink:href="#DejaVuSans-6c" x="197.998047"/>
       <use xlink:href="#DejaVuSans-74" x="225.78125"/>
       <use xlink:href="#DejaVuSans-68" x="264.990234"/>
       <use xlink:href="#DejaVuSans-79" x="328.369141"/>
       <use xlink:href="#DejaVuSans-20" x="387.548828"/>
       <use xlink:href="#DejaVuSans-73" x="419.335938"/>
       <use xlink:href="#DejaVuSans-6b" x="471.435547"/>
       <use xlink:href="#DejaVuSans-69" x="529.345703"/>
       <use xlink:href="#DejaVuSans-6e" x="557.128906"/>
      </g>
      <!-- (n=87) -->
      <g transform="translate(111.37331 619.65725) scale(0.18 -0.18)">
       <defs>
        <path id="DejaVuSans-28" d="M 1984 4856 
Q 1566 4138 1362 3434 
Q 1159 2731 1159 2009 
Q 1159 1288 1364 580 
Q 1569 -128 1984 -844 
L 1484 -844 
Q 1016 -109 783 600 
Q 550 1309 550 2009 
Q 550 2706 781 3412 
Q 1013 4119 1484 4856 
L 1984 4856 
z
" transform="scale(0.015625)"/>
        <path id="DejaVuSans-3d" d="M 678 2906 
L 4684 2906 
L 4684 2381 
L 678 2381 
L 678 2906 
z
M 678 1631 
L 4684 1631 
L 4684 1100 
L 678 1100 
L 678 1631 
z
" transform="scale(0.015625)"/>
        <path id="DejaVuSans-38" d="M 2034 2216 
Q 1584 2216 1326 1975 
Q 1069 1734 1069 1313 
Q 1069 891 1326 650 
Q 1584 409 2034 409 
Q 2484 409 2743 651 
Q 3003 894 3003 1313 
Q 3003 1734 2745 1975 
Q 2488 2216 2034 2216 
z
M 1403 2484 
Q 997 2584 770 2862 
Q 544 3141 544 3541 
Q 544 4100 942 4425 
Q 1341 4750 2034 4750 
Q 2731 4750 3128 4425 
Q 3525 4100 3525 3541 
Q 3525 3141 3298 2862 
Q 3072 2584 2669 2484 
Q 3125 2378 3379 2068 
Q 3634 1759 3634 1313 
Q 3634 634 3220 271 
Q 2806 -91 2034 -91 
Q 1263 -91 848 271 
Q 434 634 434 1313 
Q 434 1759 690 2068 
Q 947 2378 1403 2484 
z
M 1172 3481 
Q 1172 3119 1398 2916 
Q 1625 2713 2034 2713 
Q 2441 2713 2670 2916 
Q 2900 3119 2900 3481 
Q 2900 3844 2670 4047 
Q 2441 4250 2034 4250 
Q 1625 4250 1398 4047 
Q 1172 3844 1172 3481 
z
" transform="scale(0.015625)"/>
        <path id="DejaVuSans-37" d="M 525 4666 
L 3525 4666 
L 3525 4397 
L 1831 0 
L 1172 0 
L 2766 4134 
L 525 4134 
L 525 4666 
z
" transform="scale(0.015625)"/>
        <path id="DejaVuSans-29" d="M 513 4856 
L 1013 4856 
Q 1481 4119 1714 3412 
Q 1947 2706 1947 2009 
Q 1947 1309 1714 600 
Q 1481 -109 1013 -844 
L 513 -844 
Q 928 -128 1133 580 
Q 1338 1288 1338 2009 
Q 1338 2731 1133 3434 
Q 928 4138 513 4856 
z
" transform="scale(0.015625)"/>
       </defs>
       <use xlink:href="#DejaVuSans-28"/>
       <use xlink:href="#DejaVuSans-6e" x="39.013672"/>
       <use xlink:href="#DejaVuSans-3d" x="102.392578"/>
       <use xlink:href="#DejaVuSans-38" x="186.181641"/>
       <use xlink:href="#DejaVuSans-37" x="249.804688"/>
       <use xlink:href="#DejaVuSans-29" x="313.427734"/>
      </g>
     </g>
    </g>
    <g id="xtick_2">
     <g id="line2d_2">
      <g>
       <use xlink:href="#m3ea9bfd132" x="259.085" y="578.824" style="stroke: #000000; stroke-width: 0.8"/>
      </g>
     </g>
     <g id="text_2">
      <!-- AD NL skin -->
      <g transform="translate(210.425937 599.501188) scale(0.18 -0.18)">
       <defs>
        <path id="DejaVuSans-41" d="M 2188 4044 
L 1331 1722 
L 3047 1722 
L 2188 4044 
z
M 1831 4666 
L 2547 4666 
L 4325 0 
L 3669 0 
L 3244 1197 
L 1141 1197 
L 716 0 
L 50 0 
L 1831 4666 
z
" transform="scale(0.015625)"/>
        <path id="DejaVuSans-44" d="M 1259 4147 
L 1259 519 
L 2022 519 
Q 2988 519 3436 956 
Q 3884 1394 3884 2338 
Q 3884 3275 3436 3711 
Q 2988 4147 2022 4147 
L 1259 4147 
z
M 628 4666 
L 1925 4666 
Q 3281 4666 3915 4102 
Q 4550 3538 4550 2338 
Q 4550 1131 3912 565 
Q 3275 0 1925 0 
L 628 0 
L 628 4666 
z
" transform="scale(0.015625)"/>
        <path id="DejaVuSans-4e" d="M 628 4666 
L 1478 4666 
L 3547 763 
L 3547 4666 
L 4159 4666 
L 4159 0 
L 3309 0 
L 1241 3903 
L 1241 0 
L 628 0 
L 628 4666 
z
" transform="scale(0.015625)"/>
        <path id="DejaVuSans-4c" d="M 628 4666 
L 1259 4666 
L 1259 531 
L 3531 531 
L 3531 0 
L 628 0 
L 628 4666 
z
" transform="scale(0.015625)"/>
       </defs>
       <use xlink:href="#DejaVuSans-41"/>
       <use xlink:href="#DejaVuSans-44" x="68.408203"/>
       <use xlink:href="#DejaVuSans-20" x="145.410156"/>
       <use xlink:href="#DejaVuSans-4e" x="177.197266"/>
       <use xlink:href="#DejaVuSans-4c" x="252.001953"/>
       <use xlink:href="#DejaVuSans-20" x="307.714844"/>
       <use xlink:href="#DejaVuSans-73" x="339.501953"/>
       <use xlink:href="#DejaVuSans-6b" x="391.601562"/>
       <use xlink:href="#DejaVuSans-69" x="449.511719"/>
       <use xlink:href="#DejaVuSans-6e" x="477.294922"/>
      </g>
      <!-- (n=111) -->
      <g transform="translate(221.637969 619.65725) scale(0.18 -0.18)">
       <defs>
        <path id="DejaVuSans-31" d="M 794 531 
L 1825 531 
L 1825 4091 
L 703 3866 
L 703 4441 
L 1819 4666 
L 2450 4666 
L 2450 531 
L 3481 531 
L 3481 0 
L 794 0 
L 794 531 
z
" transform="scale(0.015625)"/>
       </defs>
       <use xlink:href="#DejaVuSans-28"/>
       <use xlink:href="#DejaVuSans-6e" x="39.013672"/>
       <use xlink:href="#DejaVuSans-3d" x="102.392578"/>
       <use xlink:href="#DejaVuSans-31" x="186.181641"/>
       <use xlink:href="#DejaVuSans-31" x="249.804688"/>
       <use xlink:href="#DejaVuSans-31" x="313.427734"/>
       <use xlink:href="#DejaVuSans-29" x="377.050781"/>
      </g>
     </g>
    </g>
    <g id="xtick_3">
     <g id="line2d_3">
      <g>
       <use xlink:href="#m3ea9bfd132" x="375.075909" y="578.824" style="stroke: #000000; stroke-width: 0.8"/>
      </g>
     </g>
     <g id="text_3">
      <!-- AD L skin -->
      <g transform="translate(333.149972 599.501188) scale(0.18 -0.18)">
       <use xlink:href="#DejaVuSans-41"/>
       <use xlink:href="#DejaVuSans-44" x="68.408203"/>
       <use xlink:href="#DejaVuSans-20" x="145.410156"/>
       <use xlink:href="#DejaVuSans-4c" x="177.197266"/>
       <use xlink:href="#DejaVuSans-20" x="232.910156"/>
       <use xlink:href="#DejaVuSans-73" x="264.697266"/>
       <use xlink:href="#DejaVuSans-6b" x="316.796875"/>
       <use xlink:href="#DejaVuSans-69" x="374.707031"/>
       <use xlink:href="#DejaVuSans-6e" x="402.490234"/>
      </g>
      <!-- (n=107) -->
      <g transform="translate(337.628878 619.65725) scale(0.18 -0.18)">
       <defs>
        <path id="DejaVuSans-30" d="M 2034 4250 
Q 1547 4250 1301 3770 
Q 1056 3291 1056 2328 
Q 1056 1369 1301 889 
Q 1547 409 2034 409 
Q 2525 409 2770 889 
Q 3016 1369 3016 2328 
Q 3016 3291 2770 3770 
Q 2525 4250 2034 4250 
z
M 2034 4750 
Q 2819 4750 3233 4129 
Q 3647 3509 3647 2328 
Q 3647 1150 3233 529 
Q 2819 -91 2034 -91 
Q 1250 -91 836 529 
Q 422 1150 422 2328 
Q 422 3509 836 4129 
Q 1250 4750 2034 4750 
z
" transform="scale(0.015625)"/>
       </defs>
       <use xlink:href="#DejaVuSans-28"/>
       <use xlink:href="#DejaVuSans-6e" x="39.013672"/>
       <use xlink:href="#DejaVuSans-3d" x="102.392578"/>
       <use xlink:href="#DejaVuSans-31" x="186.181641"/>
       <use xlink:href="#DejaVuSans-30" x="249.804688"/>
       <use xlink:href="#DejaVuSans-37" x="313.427734"/>
       <use xlink:href="#DejaVuSans-29" x="377.050781"/>
      </g>
     </g>
    </g>
    <g id="text_4">
     <!--   -->
     <g transform="translate(257.495938 634.999125) scale(0.1 -0.1)">
      <use xlink:href="#DejaVuSans-20"/>
     </g>
    </g>
   </g>
   <g id="matplotlib.axis_2">
    <g id="ytick_1">
     <g id="line2d_4">
      <defs>
       <path id="m46f4e183c9" d="M 0 0 
L -3.5 0 
" style="stroke: #000000; stroke-width: 0.8"/>
      </defs>
      <g>
       <use xlink:href="#m46f4e183c9" x="67.7" y="578.824" style="stroke: #000000; stroke-width: 0.8"/>
      </g>
     </g>
     <g id="text_5">
      <!-- 0.0 -->
      <g transform="translate(32.074375 585.662594) scale(0.18 -0.18)">
       <defs>
        <path id="DejaVuSans-2e" d="M 684 794 
L 1344 794 
L 1344 0 
L 684 0 
L 684 794 
z
" transform="scale(0.015625)"/>
       </defs>
       <use xlink:href="#DejaVuSans-30"/>
       <use xlink:href="#DejaVuSans-2e" x="63.623047"/>
       <use xlink:href="#DejaVuSans-30" x="95.410156"/>
      </g>
     </g>
    </g>
    <g id="ytick_2">
     <g id="line2d_5">
      <g>
       <use xlink:href="#m46f4e183c9" x="67.7" y="475.063238" style="stroke: #000000; stroke-width: 0.8"/>
      </g>
     </g>
     <g id="text_6">
      <!-- 0.2 -->
      <g transform="translate(32.074375 481.901832) scale(0.18 -0.18)">
       <defs>
        <path id="DejaVuSans-32" d="M 1228 531 
L 3431 531 
L 3431 0 
L 469 0 
L 469 531 
Q 828 903 1448 1529 
Q 2069 2156 2228 2338 
Q 2531 2678 2651 2914 
Q 2772 3150 2772 3378 
Q 2772 3750 2511 3984 
Q 2250 4219 1831 4219 
Q 1534 4219 1204 4116 
Q 875 4013 500 3803 
L 500 4441 
Q 881 4594 1212 4672 
Q 1544 4750 1819 4750 
Q 2544 4750 2975 4387 
Q 3406 4025 3406 3419 
Q 3406 3131 3298 2873 
Q 3191 2616 2906 2266 
Q 2828 2175 2409 1742 
Q 1991 1309 1228 531 
z
" transform="scale(0.015625)"/>
       </defs>
       <use xlink:href="#DejaVuSans-30"/>
       <use xlink:href="#DejaVuSans-2e" x="63.623047"/>
       <use xlink:href="#DejaVuSans-32" x="95.410156"/>
      </g>
     </g>
    </g>
    <g id="ytick_3">
     <g id="line2d_6">
      <g>
       <use xlink:href="#m46f4e183c9" x="67.7" y="371.302476" style="stroke: #000000; stroke-width: 0.8"/>
      </g>
     </g>
     <g id="text_7">
      <!-- 0.4 -->
      <g transform="translate(32.074375 378.14107) scale(0.18 -0.18)">
       <defs>
        <path id="DejaVuSans-34" d="M 2419 4116 
L 825 1625 
L 2419 1625 
L 2419 4116 
z
M 2253 4666 
L 3047 4666 
L 3047 1625 
L 3713 1625 
L 3713 1100 
L 3047 1100 
L 3047 0 
L 2419 0 
L 2419 1100 
L 313 1100 
L 313 1709 
L 2253 4666 
z
" transform="scale(0.015625)"/>
       </defs>
       <use xlink:href="#DejaVuSans-30"/>
       <use xlink:href="#DejaVuSans-2e" x="63.623047"/>
       <use xlink:href="#DejaVuSans-34" x="95.410156"/>
      </g>
     </g>
    </g>
    <g id="ytick_4">
     <g id="line2d_7">
      <g>
       <use xlink:href="#m46f4e183c9" x="67.7" y="267.541714" style="stroke: #000000; stroke-width: 0.8"/>
      </g>
     </g>
     <g id="text_8">
      <!-- 0.6 -->
      <g transform="translate(32.074375 274.380308) scale(0.18 -0.18)">
       <defs>
        <path id="DejaVuSans-36" d="M 2113 2584 
Q 1688 2584 1439 2293 
Q 1191 2003 1191 1497 
Q 1191 994 1439 701 
Q 1688 409 2113 409 
Q 2538 409 2786 701 
Q 3034 994 3034 1497 
Q 3034 2003 2786 2293 
Q 2538 2584 2113 2584 
z
M 3366 4563 
L 3366 3988 
Q 3128 4100 2886 4159 
Q 2644 4219 2406 4219 
Q 1781 4219 1451 3797 
Q 1122 3375 1075 2522 
Q 1259 2794 1537 2939 
Q 1816 3084 2150 3084 
Q 2853 3084 3261 2657 
Q 3669 2231 3669 1497 
Q 3669 778 3244 343 
Q 2819 -91 2113 -91 
Q 1303 -91 875 529 
Q 447 1150 447 2328 
Q 447 3434 972 4092 
Q 1497 4750 2381 4750 
Q 2619 4750 2861 4703 
Q 3103 4656 3366 4563 
z
" transform="scale(0.015625)"/>
       </defs>
       <use xlink:href="#DejaVuSans-30"/>
       <use xlink:href="#DejaVuSans-2e" x="63.623047"/>
       <use xlink:href="#DejaVuSans-36" x="95.410156"/>
      </g>
     </g>
    </g>
    <g id="ytick_5">
     <g id="line2d_8">
      <g>
       <use xlink:href="#m46f4e183c9" x="67.7" y="163.780952" style="stroke: #000000; stroke-width: 0.8"/>
      </g>
     </g>
     <g id="text_9">
      <!-- 0.8 -->
      <g transform="translate(32.074375 170.619546) scale(0.18 -0.18)">
       <use xlink:href="#DejaVuSans-30"/>
       <use xlink:href="#DejaVuSans-2e" x="63.623047"/>
       <use xlink:href="#DejaVuSans-38" x="95.410156"/>
      </g>
     </g>
    </g>
    <g id="ytick_6">
     <g id="line2d_9">
      <g>
       <use xlink:href="#m46f4e183c9" x="67.7" y="60.02019" style="stroke: #000000; stroke-width: 0.8"/>
      </g>
     </g>
     <g id="text_10">
      <!-- 1.0 -->
      <g transform="translate(32.074375 66.858784) scale(0.18 -0.18)">
       <use xlink:href="#DejaVuSans-31"/>
       <use xlink:href="#DejaVuSans-2e" x="63.623047"/>
       <use xlink:href="#DejaVuSans-30" x="95.410156"/>
      </g>
     </g>
    </g>
    <g id="text_11">
     <!-- Relative Abundance -->
     <g transform="translate(24.330938 396.304344) rotate(-90) scale(0.18 -0.18)">
      <defs>
       <path id="DejaVuSans-52" d="M 2841 2188 
Q 3044 2119 3236 1894 
Q 3428 1669 3622 1275 
L 4263 0 
L 3584 0 
L 2988 1197 
Q 2756 1666 2539 1819 
Q 2322 1972 1947 1972 
L 1259 1972 
L 1259 0 
L 628 0 
L 628 4666 
L 2053 4666 
Q 2853 4666 3247 4331 
Q 3641 3997 3641 3322 
Q 3641 2881 3436 2590 
Q 3231 2300 2841 2188 
z
M 1259 4147 
L 1259 2491 
L 2053 2491 
Q 2509 2491 2742 2702 
Q 2975 2913 2975 3322 
Q 2975 3731 2742 3939 
Q 2509 4147 2053 4147 
L 1259 4147 
z
" transform="scale(0.015625)"/>
       <path id="DejaVuSans-76" d="M 191 3500 
L 800 3500 
L 1894 563 
L 2988 3500 
L 3597 3500 
L 2284 0 
L 1503 0 
L 191 3500 
z
" transform="scale(0.015625)"/>
       <path id="DejaVuSans-62" d="M 3116 1747 
Q 3116 2381 2855 2742 
Q 2594 3103 2138 3103 
Q 1681 3103 1420 2742 
Q 1159 2381 1159 1747 
Q 1159 1113 1420 752 
Q 1681 391 2138 391 
Q 2594 391 2855 752 
Q 3116 1113 3116 1747 
z
M 1159 2969 
Q 1341 3281 1617 3432 
Q 1894 3584 2278 3584 
Q 2916 3584 3314 3078 
Q 3713 2572 3713 1747 
Q 3713 922 3314 415 
Q 2916 -91 2278 -91 
Q 1894 -91 1617 61 
Q 1341 213 1159 525 
L 1159 0 
L 581 0 
L 581 4863 
L 1159 4863 
L 1159 2969 
z
" transform="scale(0.015625)"/>
       <path id="DejaVuSans-75" d="M 544 1381 
L 544 3500 
L 1119 3500 
L 1119 1403 
Q 1119 906 1312 657 
Q 1506 409 1894 409 
Q 2359 409 2629 706 
Q 2900 1003 2900 1516 
L 2900 3500 
L 3475 3500 
L 3475 0 
L 2900 0 
L 2900 538 
Q 2691 219 2414 64 
Q 2138 -91 1772 -91 
Q 1169 -91 856 284 
Q 544 659 544 1381 
z
M 1991 3584 
L 1991 3584 
z
" transform="scale(0.015625)"/>
       <path id="DejaVuSans-64" d="M 2906 2969 
L 2906 4863 
L 3481 4863 
L 3481 0 
L 2906 0 
L 2906 525 
Q 2725 213 2448 61 
Q 2172 -91 1784 -91 
Q 1150 -91 751 415 
Q 353 922 353 1747 
Q 353 2572 751 3078 
Q 1150 3584 1784 3584 
Q 2172 3584 2448 3432 
Q 2725 3281 2906 2969 
z
M 947 1747 
Q 947 1113 1208 752 
Q 1469 391 1925 391 
Q 2381 391 2643 752 
Q 2906 1113 2906 1747 
Q 2906 2381 2643 2742 
Q 2381 3103 1925 3103 
Q 1469 3103 1208 2742 
Q 947 2381 947 1747 
z
" transform="scale(0.015625)"/>
       <path id="DejaVuSans-63" d="M 3122 3366 
L 3122 2828 
Q 2878 2963 2633 3030 
Q 2388 3097 2138 3097 
Q 1578 3097 1268 2742 
Q 959 2388 959 1747 
Q 959 1106 1268 751 
Q 1578 397 2138 397 
Q 2388 397 2633 464 
Q 2878 531 3122 666 
L 3122 134 
Q 2881 22 2623 -34 
Q 2366 -91 2075 -91 
Q 1284 -91 818 406 
Q 353 903 353 1747 
Q 353 2603 823 3093 
Q 1294 3584 2113 3584 
Q 2378 3584 2631 3529 
Q 2884 3475 3122 3366 
z
" transform="scale(0.015625)"/>
      </defs>
      <use xlink:href="#DejaVuSans-52"/>
      <use xlink:href="#DejaVuSans-65" x="64.982422"/>
      <use xlink:href="#DejaVuSans-6c" x="126.505859"/>
      <use xlink:href="#DejaVuSans-61" x="154.289062"/>
      <use xlink:href="#DejaVuSans-74" x="215.568359"/>
      <use xlink:href="#DejaVuSans-69" x="254.777344"/>
      <use xlink:href="#DejaVuSans-76" x="282.560547"/>
      <use xlink:href="#DejaVuSans-65" x="341.740234"/>
      <use xlink:href="#DejaVuSans-20" x="403.263672"/>
      <use xlink:href="#DejaVuSans-41" x="435.050781"/>
      <use xlink:href="#DejaVuSans-62" x="503.458984"/>
      <use xlink:href="#DejaVuSans-75" x="566.935547"/>
      <use xlink:href="#DejaVuSans-6e" x="630.314453"/>
      <use xlink:href="#DejaVuSans-64" x="693.693359"/>
      <use xlink:href="#DejaVuSans-61" x="757.169922"/>
      <use xlink:href="#DejaVuSans-6e" x="818.449219"/>
      <use xlink:href="#DejaVuSans-63" x="881.828125"/>
      <use xlink:href="#DejaVuSans-65" x="936.808594"/>
     </g>
    </g>
   </g>
   <g id="patch_51">
    <path d="M 67.7 578.824 
L 67.7 34.08 
" style="fill: none; stroke: #000000; stroke-width: 0.8; stroke-linejoin: miter; stroke-linecap: square"/>
   </g>
   <g id="patch_52">
    <path d="M 450.47 578.824 
L 450.47 34.08 
" style="fill: none; stroke: #000000; stroke-width: 0.8; stroke-linejoin: miter; stroke-linecap: square"/>
   </g>
   <g id="patch_53">
    <path d="M 67.7 578.824 
L 450.47 578.824 
" style="fill: none; stroke: #000000; stroke-width: 0.8; stroke-linejoin: miter; stroke-linecap: square"/>
   </g>
   <g id="patch_54">
    <path d="M 67.7 34.08 
L 450.47 34.08 
" style="fill: none; stroke: #000000; stroke-width: 0.8; stroke-linejoin: miter; stroke-linecap: square"/>
   </g>
   <g id="text_12">
    <!-- 16S rRNA (V4) Relative Abundance -->
    <g transform="translate(58.029063 28.08) scale(0.23 -0.23)">
     <defs>
      <path id="DejaVuSans-53" d="M 3425 4513 
L 3425 3897 
Q 3066 4069 2747 4153 
Q 2428 4238 2131 4238 
Q 1616 4238 1336 4038 
Q 1056 3838 1056 3469 
Q 1056 3159 1242 3001 
Q 1428 2844 1947 2747 
L 2328 2669 
Q 3034 2534 3370 2195 
Q 3706 1856 3706 1288 
Q 3706 609 3251 259 
Q 2797 -91 1919 -91 
Q 1588 -91 1214 -16 
Q 841 59 441 206 
L 441 856 
Q 825 641 1194 531 
Q 1563 422 1919 422 
Q 2459 422 2753 634 
Q 3047 847 3047 1241 
Q 3047 1584 2836 1778 
Q 2625 1972 2144 2069 
L 1759 2144 
Q 1053 2284 737 2584 
Q 422 2884 422 3419 
Q 422 4038 858 4394 
Q 1294 4750 2059 4750 
Q 2388 4750 2728 4690 
Q 3069 4631 3425 4513 
z
" transform="scale(0.015625)"/>
      <path id="DejaVuSans-72" d="M 2631 2963 
Q 2534 3019 2420 3045 
Q 2306 3072 2169 3072 
Q 1681 3072 1420 2755 
Q 1159 2438 1159 1844 
L 1159 0 
L 581 0 
L 581 3500 
L 1159 3500 
L 1159 2956 
Q 1341 3275 1631 3429 
Q 1922 3584 2338 3584 
Q 2397 3584 2469 3576 
Q 2541 3569 2628 3553 
L 2631 2963 
z
" transform="scale(0.015625)"/>
      <path id="DejaVuSans-56" d="M 1831 0 
L 50 4666 
L 709 4666 
L 2188 738 
L 3669 4666 
L 4325 4666 
L 2547 0 
L 1831 0 
z
" transform="scale(0.015625)"/>
     </defs>
     <use xlink:href="#DejaVuSans-31"/>
     <use xlink:href="#DejaVuSans-36" x="63.623047"/>
     <use xlink:href="#DejaVuSans-53" x="127.246094"/>
     <use xlink:href="#DejaVuSans-20" x="190.722656"/>
     <use xlink:href="#DejaVuSans-72" x="222.509766"/>
     <use xlink:href="#DejaVuSans-52" x="263.623047"/>
     <use xlink:href="#DejaVuSans-4e" x="333.105469"/>
     <use xlink:href="#DejaVuSans-41" x="407.910156"/>
     <use xlink:href="#DejaVuSans-20" x="476.318359"/>
     <use xlink:href="#DejaVuSans-28" x="508.105469"/>
     <use xlink:href="#DejaVuSans-56" x="547.119141"/>
     <use xlink:href="#DejaVuSans-34" x="615.527344"/>
     <use xlink:href="#DejaVuSans-29" x="679.150391"/>
     <use xlink:href="#DejaVuSans-20" x="718.164062"/>
     <use xlink:href="#DejaVuSans-52" x="749.951172"/>
     <use xlink:href="#DejaVuSans-65" x="814.933594"/>
     <use xlink:href="#DejaVuSans-6c" x="876.457031"/>
     <use xlink:href="#DejaVuSans-61" x="904.240234"/>
     <use xlink:href="#DejaVuSans-74" x="965.519531"/>
     <use xlink:href="#DejaVuSans-69" x="1004.728516"/>
     <use xlink:href="#DejaVuSans-76" x="1032.511719"/>
     <use xlink:href="#DejaVuSans-65" x="1091.691406"/>
     <use xlink:href="#DejaVuSans-20" x="1153.214844"/>
     <use xlink:href="#DejaVuSans-41" x="1185.001953"/>
     <use xlink:href="#DejaVuSans-62" x="1253.410156"/>
     <use xlink:href="#DejaVuSans-75" x="1316.886719"/>
     <use xlink:href="#DejaVuSans-6e" x="1380.265625"/>
     <use xlink:href="#DejaVuSans-64" x="1443.644531"/>
     <use xlink:href="#DejaVuSans-61" x="1507.121094"/>
     <use xlink:href="#DejaVuSans-6e" x="1568.400391"/>
     <use xlink:href="#DejaVuSans-63" x="1631.779297"/>
     <use xlink:href="#DejaVuSans-65" x="1686.759766"/>
    </g>
   </g>
   <g id="legend_1">
    <g id="patch_55">
     <path d="M 460.27 488.077625 
L 706.077188 488.077625 
Q 708.877188 488.077625 708.877188 485.277625 
L 708.877188 127.626375 
Q 708.877188 124.826375 706.077188 124.826375 
L 460.27 124.826375 
Q 457.47 124.826375 457.47 127.626375 
L 457.47 485.277625 
Q 457.47 488.077625 460.27 488.077625 
z
" style="fill: #ffffff; opacity: 0.8; stroke: #cccccc; stroke-linejoin: miter"/>
    </g>
    <g id="text_13">
     <!-- Genus -->
     <g transform="translate(554.56625 144.103562) scale(0.18 -0.18)">
      <defs>
       <path id="DejaVuSans-47" d="M 3809 666 
L 3809 1919 
L 2778 1919 
L 2778 2438 
L 4434 2438 
L 4434 434 
Q 4069 175 3628 42 
Q 3188 -91 2688 -91 
Q 1594 -91 976 548 
Q 359 1188 359 2328 
Q 359 3472 976 4111 
Q 1594 4750 2688 4750 
Q 3144 4750 3555 4637 
Q 3966 4525 4313 4306 
L 4313 3634 
Q 3963 3931 3569 4081 
Q 3175 4231 2741 4231 
Q 1884 4231 1454 3753 
Q 1025 3275 1025 2328 
Q 1025 1384 1454 906 
Q 1884 428 2741 428 
Q 3075 428 3337 486 
Q 3600 544 3809 666 
z
" transform="scale(0.015625)"/>
      </defs>
      <use xlink:href="#DejaVuSans-47"/>
      <use xlink:href="#DejaVuSans-65" x="77.490234"/>
      <use xlink:href="#DejaVuSans-6e" x="139.013672"/>
      <use xlink:href="#DejaVuSans-75" x="202.392578"/>
      <use xlink:href="#DejaVuSans-73" x="265.771484"/>
     </g>
    </g>
    <g id="patch_56">
     <path d="M 463.07 165.484812 
L 491.07 165.484812 
L 491.07 155.684812 
L 463.07 155.684812 
z
" style="fill: #ff0000"/>
    </g>
    <g id="text_14">
     <!--  g__Streptococcus -->
     <g transform="translate(502.27 165.484812) scale(0.14 -0.14)">
      <defs>
       <path id="DejaVuSans-67" d="M 2906 1791 
Q 2906 2416 2648 2759 
Q 2391 3103 1925 3103 
Q 1463 3103 1205 2759 
Q 947 2416 947 1791 
Q 947 1169 1205 825 
Q 1463 481 1925 481 
Q 2391 481 2648 825 
Q 2906 1169 2906 1791 
z
M 3481 434 
Q 3481 -459 3084 -895 
Q 2688 -1331 1869 -1331 
Q 1566 -1331 1297 -1286 
Q 1028 -1241 775 -1147 
L 775 -588 
Q 1028 -725 1275 -790 
Q 1522 -856 1778 -856 
Q 2344 -856 2625 -561 
Q 2906 -266 2906 331 
L 2906 616 
Q 2728 306 2450 153 
Q 2172 0 1784 0 
Q 1141 0 747 490 
Q 353 981 353 1791 
Q 353 2603 747 3093 
Q 1141 3584 1784 3584 
Q 2172 3584 2450 3431 
Q 2728 3278 2906 2969 
L 2906 3500 
L 3481 3500 
L 3481 434 
z
" transform="scale(0.015625)"/>
       <path id="DejaVuSans-5f" d="M 3263 -1063 
L 3263 -1509 
L -63 -1509 
L -63 -1063 
L 3263 -1063 
z
" transform="scale(0.015625)"/>
       <path id="DejaVuSans-70" d="M 1159 525 
L 1159 -1331 
L 581 -1331 
L 581 3500 
L 1159 3500 
L 1159 2969 
Q 1341 3281 1617 3432 
Q 1894 3584 2278 3584 
Q 2916 3584 3314 3078 
Q 3713 2572 3713 1747 
Q 3713 922 3314 415 
Q 2916 -91 2278 -91 
Q 1894 -91 1617 61 
Q 1341 213 1159 525 
z
M 3116 1747 
Q 3116 2381 2855 2742 
Q 2594 3103 2138 3103 
Q 1681 3103 1420 2742 
Q 1159 2381 1159 1747 
Q 1159 1113 1420 752 
Q 1681 391 2138 391 
Q 2594 391 2855 752 
Q 3116 1113 3116 1747 
z
" transform="scale(0.015625)"/>
       <path id="DejaVuSans-6f" d="M 1959 3097 
Q 1497 3097 1228 2736 
Q 959 2375 959 1747 
Q 959 1119 1226 758 
Q 1494 397 1959 397 
Q 2419 397 2687 759 
Q 2956 1122 2956 1747 
Q 2956 2369 2687 2733 
Q 2419 3097 1959 3097 
z
M 1959 3584 
Q 2709 3584 3137 3096 
Q 3566 2609 3566 1747 
Q 3566 888 3137 398 
Q 2709 -91 1959 -91 
Q 1206 -91 779 398 
Q 353 888 353 1747 
Q 353 2609 779 3096 
Q 1206 3584 1959 3584 
z
" transform="scale(0.015625)"/>
      </defs>
      <use xlink:href="#DejaVuSans-20"/>
      <use xlink:href="#DejaVuSans-67" x="31.787109"/>
      <use xlink:href="#DejaVuSans-5f" x="95.263672"/>
      <use xlink:href="#DejaVuSans-5f" x="145.263672"/>
      <use xlink:href="#DejaVuSans-53" x="195.263672"/>
      <use xlink:href="#DejaVuSans-74" x="258.740234"/>
      <use xlink:href="#DejaVuSans-72" x="297.949219"/>
      <use xlink:href="#DejaVuSans-65" x="336.8125"/>
      <use xlink:href="#DejaVuSans-70" x="398.335938"/>
      <use xlink:href="#DejaVuSans-74" x="461.8125"/>
      <use xlink:href="#DejaVuSans-6f" x="501.021484"/>
      <use xlink:href="#DejaVuSans-63" x="562.203125"/>
      <use xlink:href="#DejaVuSans-6f" x="617.183594"/>
      <use xlink:href="#DejaVuSans-63" x="678.365234"/>
      <use xlink:href="#DejaVuSans-63" x="733.345703"/>
      <use xlink:href="#DejaVuSans-75" x="788.326172"/>
      <use xlink:href="#DejaVuSans-73" x="851.705078"/>
     </g>
    </g>
    <g id="patch_57">
     <path d="M 463.07 186.423563 
L 491.07 186.423563 
L 491.07 176.623562 
L 463.07 176.623562 
z
" style="fill: #92f0f0"/>
    </g>
    <g id="text_15">
     <!--  g__Staphylococcus -->
     <g transform="translate(502.27 186.423563) scale(0.14 -0.14)">
      <use xlink:href="#DejaVuSans-20"/>
      <use xlink:href="#DejaVuSans-67" x="31.787109"/>
      <use xlink:href="#DejaVuSans-5f" x="95.263672"/>
      <use xlink:href="#DejaVuSans-5f" x="145.263672"/>
      <use xlink:href="#DejaVuSans-53" x="195.263672"/>
      <use xlink:href="#DejaVuSans-74" x="258.740234"/>
      <use xlink:href="#DejaVuSans-61" x="297.949219"/>
      <use xlink:href="#DejaVuSans-70" x="359.228516"/>
      <use xlink:href="#DejaVuSans-68" x="422.705078"/>
      <use xlink:href="#DejaVuSans-79" x="486.083984"/>
      <use xlink:href="#DejaVuSans-6c" x="545.263672"/>
      <use xlink:href="#DejaVuSans-6f" x="573.046875"/>
      <use xlink:href="#DejaVuSans-63" x="634.228516"/>
      <use xlink:href="#DejaVuSans-6f" x="689.208984"/>
      <use xlink:href="#DejaVuSans-63" x="750.390625"/>
      <use xlink:href="#DejaVuSans-63" x="805.371094"/>
      <use xlink:href="#DejaVuSans-75" x="860.351562"/>
      <use xlink:href="#DejaVuSans-73" x="923.730469"/>
     </g>
    </g>
    <g id="patch_58">
     <path d="M 463.07 207.362312 
L 491.07 207.362312 
L 491.07 197.562312 
L 463.07 197.562312 
z
" style="fill: #4c72b0"/>
    </g>
    <g id="text_16">
     <!--  g__Haemophilus_D_734546 -->
     <g transform="translate(502.27 207.362312) scale(0.14 -0.14)">
      <defs>
       <path id="DejaVuSans-6d" d="M 3328 2828 
Q 3544 3216 3844 3400 
Q 4144 3584 4550 3584 
Q 5097 3584 5394 3201 
Q 5691 2819 5691 2113 
L 5691 0 
L 5113 0 
L 5113 2094 
Q 5113 2597 4934 2840 
Q 4756 3084 4391 3084 
Q 3944 3084 3684 2787 
Q 3425 2491 3425 1978 
L 3425 0 
L 2847 0 
L 2847 2094 
Q 2847 2600 2669 2842 
Q 2491 3084 2119 3084 
Q 1678 3084 1418 2786 
Q 1159 2488 1159 1978 
L 1159 0 
L 581 0 
L 581 3500 
L 1159 3500 
L 1159 2956 
Q 1356 3278 1631 3431 
Q 1906 3584 2284 3584 
Q 2666 3584 2933 3390 
Q 3200 3197 3328 2828 
z
" transform="scale(0.015625)"/>
       <path id="DejaVuSans-33" d="M 2597 2516 
Q 3050 2419 3304 2112 
Q 3559 1806 3559 1356 
Q 3559 666 3084 287 
Q 2609 -91 1734 -91 
Q 1441 -91 1130 -33 
Q 819 25 488 141 
L 488 750 
Q 750 597 1062 519 
Q 1375 441 1716 441 
Q 2309 441 2620 675 
Q 2931 909 2931 1356 
Q 2931 1769 2642 2001 
Q 2353 2234 1838 2234 
L 1294 2234 
L 1294 2753 
L 1863 2753 
Q 2328 2753 2575 2939 
Q 2822 3125 2822 3475 
Q 2822 3834 2567 4026 
Q 2313 4219 1838 4219 
Q 1578 4219 1281 4162 
Q 984 4106 628 3988 
L 628 4550 
Q 988 4650 1302 4700 
Q 1616 4750 1894 4750 
Q 2613 4750 3031 4423 
Q 3450 4097 3450 3541 
Q 3450 3153 3228 2886 
Q 3006 2619 2597 2516 
z
" transform="scale(0.015625)"/>
       <path id="DejaVuSans-35" d="M 691 4666 
L 3169 4666 
L 3169 4134 
L 1269 4134 
L 1269 2991 
Q 1406 3038 1543 3061 
Q 1681 3084 1819 3084 
Q 2600 3084 3056 2656 
Q 3513 2228 3513 1497 
Q 3513 744 3044 326 
Q 2575 -91 1722 -91 
Q 1428 -91 1123 -41 
Q 819 9 494 109 
L 494 744 
Q 775 591 1075 516 
Q 1375 441 1709 441 
Q 2250 441 2565 725 
Q 2881 1009 2881 1497 
Q 2881 1984 2565 2268 
Q 2250 2553 1709 2553 
Q 1456 2553 1204 2497 
Q 953 2441 691 2322 
L 691 4666 
z
" transform="scale(0.015625)"/>
      </defs>
      <use xlink:href="#DejaVuSans-20"/>
      <use xlink:href="#DejaVuSans-67" x="31.787109"/>
      <use xlink:href="#DejaVuSans-5f" x="95.263672"/>
      <use xlink:href="#DejaVuSans-5f" x="145.263672"/>
      <use xlink:href="#DejaVuSans-48" x="195.263672"/>
      <use xlink:href="#DejaVuSans-61" x="270.458984"/>
      <use xlink:href="#DejaVuSans-65" x="331.738281"/>
      <use xlink:href="#DejaVuSans-6d" x="393.261719"/>
      <use xlink:href="#DejaVuSans-6f" x="490.673828"/>
      <use xlink:href="#DejaVuSans-70" x="551.855469"/>
      <use xlink:href="#DejaVuSans-68" x="615.332031"/>
      <use xlink:href="#DejaVuSans-69" x="678.710938"/>
      <use xlink:href="#DejaVuSans-6c" x="706.494141"/>
      <use xlink:href="#DejaVuSans-75" x="734.277344"/>
      <use xlink:href="#DejaVuSans-73" x="797.65625"/>
      <use xlink:href="#DejaVuSans-5f" x="849.755859"/>
      <use xlink:href="#DejaVuSans-44" x="899.755859"/>
      <use xlink:href="#DejaVuSans-5f" x="976.757812"/>
      <use xlink:href="#DejaVuSans-37" x="1026.757812"/>
      <use xlink:href="#DejaVuSans-33" x="1090.380859"/>
      <use xlink:href="#DejaVuSans-34" x="1154.003906"/>
      <use xlink:href="#DejaVuSans-35" x="1217.626953"/>
      <use xlink:href="#DejaVuSans-34" x="1281.25"/>
      <use xlink:href="#DejaVuSans-36" x="1344.873047"/>
     </g>
    </g>
    <g id="patch_59">
     <path d="M 463.07 228.301062 
L 491.07 228.301062 
L 491.07 218.501062 
L 463.07 218.501062 
z
" style="fill: #dd8452"/>
    </g>
    <g id="text_17">
     <!--  g__Unknown -->
     <g transform="translate(502.27 228.301062) scale(0.14 -0.14)">
      <defs>
       <path id="DejaVuSans-55" d="M 556 4666 
L 1191 4666 
L 1191 1831 
Q 1191 1081 1462 751 
Q 1734 422 2344 422 
Q 2950 422 3222 751 
Q 3494 1081 3494 1831 
L 3494 4666 
L 4128 4666 
L 4128 1753 
Q 4128 841 3676 375 
Q 3225 -91 2344 -91 
Q 1459 -91 1007 375 
Q 556 841 556 1753 
L 556 4666 
z
" transform="scale(0.015625)"/>
       <path id="DejaVuSans-77" d="M 269 3500 
L 844 3500 
L 1563 769 
L 2278 3500 
L 2956 3500 
L 3675 769 
L 4391 3500 
L 4966 3500 
L 4050 0 
L 3372 0 
L 2619 2869 
L 1863 0 
L 1184 0 
L 269 3500 
z
" transform="scale(0.015625)"/>
      </defs>
      <use xlink:href="#DejaVuSans-20"/>
      <use xlink:href="#DejaVuSans-67" x="31.787109"/>
      <use xlink:href="#DejaVuSans-5f" x="95.263672"/>
      <use xlink:href="#DejaVuSans-5f" x="145.263672"/>
      <use xlink:href="#DejaVuSans-55" x="195.263672"/>
      <use xlink:href="#DejaVuSans-6e" x="268.457031"/>
      <use xlink:href="#DejaVuSans-6b" x="331.835938"/>
      <use xlink:href="#DejaVuSans-6e" x="389.746094"/>
      <use xlink:href="#DejaVuSans-6f" x="453.125"/>
      <use xlink:href="#DejaVuSans-77" x="514.306641"/>
      <use xlink:href="#DejaVuSans-6e" x="596.09375"/>
     </g>
    </g>
    <g id="patch_60">
     <path d="M 463.07 249.239812 
L 491.07 249.239812 
L 491.07 239.439812 
L 463.07 239.439812 
z
" style="fill: #ffe59a"/>
    </g>
    <g id="text_18">
     <!--  g__Corynebacterium -->
     <g transform="translate(502.27 249.239812) scale(0.14 -0.14)">
      <defs>
       <path id="DejaVuSans-43" d="M 4122 4306 
L 4122 3641 
Q 3803 3938 3442 4084 
Q 3081 4231 2675 4231 
Q 1875 4231 1450 3742 
Q 1025 3253 1025 2328 
Q 1025 1406 1450 917 
Q 1875 428 2675 428 
Q 3081 428 3442 575 
Q 3803 722 4122 1019 
L 4122 359 
Q 3791 134 3420 21 
Q 3050 -91 2638 -91 
Q 1578 -91 968 557 
Q 359 1206 359 2328 
Q 359 3453 968 4101 
Q 1578 4750 2638 4750 
Q 3056 4750 3426 4639 
Q 3797 4528 4122 4306 
z
" transform="scale(0.015625)"/>
      </defs>
      <use xlink:href="#DejaVuSans-20"/>
      <use xlink:href="#DejaVuSans-67" x="31.787109"/>
      <use xlink:href="#DejaVuSans-5f" x="95.263672"/>
      <use xlink:href="#DejaVuSans-5f" x="145.263672"/>
      <use xlink:href="#DejaVuSans-43" x="195.263672"/>
      <use xlink:href="#DejaVuSans-6f" x="265.087891"/>
      <use xlink:href="#DejaVuSans-72" x="326.269531"/>
      <use xlink:href="#DejaVuSans-79" x="367.382812"/>
      <use xlink:href="#DejaVuSans-6e" x="426.5625"/>
      <use xlink:href="#DejaVuSans-65" x="489.941406"/>
      <use xlink:href="#DejaVuSans-62" x="551.464844"/>
      <use xlink:href="#DejaVuSans-61" x="614.941406"/>
      <use xlink:href="#DejaVuSans-63" x="676.220703"/>
      <use xlink:href="#DejaVuSans-74" x="731.201172"/>
      <use xlink:href="#DejaVuSans-65" x="770.410156"/>
      <use xlink:href="#DejaVuSans-72" x="831.933594"/>
      <use xlink:href="#DejaVuSans-69" x="873.046875"/>
      <use xlink:href="#DejaVuSans-75" x="900.830078"/>
      <use xlink:href="#DejaVuSans-6d" x="964.208984"/>
     </g>
    </g>
    <g id="patch_61">
     <path d="M 463.07 270.178562 
L 491.07 270.178562 
L 491.07 260.378562 
L 463.07 260.378562 
z
" style="fill: #55a868"/>
    </g>
    <g id="text_19">
     <!--  g__Acinetobacter -->
     <g transform="translate(502.27 270.178562) scale(0.14 -0.14)">
      <use xlink:href="#DejaVuSans-20"/>
      <use xlink:href="#DejaVuSans-67" x="31.787109"/>
      <use xlink:href="#DejaVuSans-5f" x="95.263672"/>
      <use xlink:href="#DejaVuSans-5f" x="145.263672"/>
      <use xlink:href="#DejaVuSans-41" x="195.263672"/>
      <use xlink:href="#DejaVuSans-63" x="261.921875"/>
      <use xlink:href="#DejaVuSans-69" x="316.902344"/>
      <use xlink:href="#DejaVuSans-6e" x="344.685547"/>
      <use xlink:href="#DejaVuSans-65" x="408.064453"/>
      <use xlink:href="#DejaVuSans-74" x="469.587891"/>
      <use xlink:href="#DejaVuSans-6f" x="508.796875"/>
      <use xlink:href="#DejaVuSans-62" x="569.978516"/>
      <use xlink:href="#DejaVuSans-61" x="633.455078"/>
      <use xlink:href="#DejaVuSans-63" x="694.734375"/>
      <use xlink:href="#DejaVuSans-74" x="749.714844"/>
      <use xlink:href="#DejaVuSans-65" x="788.923828"/>
      <use xlink:href="#DejaVuSans-72" x="850.447266"/>
     </g>
    </g>
    <g id="patch_62">
     <path d="M 463.07 291.117312 
L 491.07 291.117312 
L 491.07 281.317312 
L 463.07 281.317312 
z
" style="fill: #c44e52"/>
    </g>
    <g id="text_20">
     <!--  g__Prevotella -->
     <g transform="translate(502.27 291.117312) scale(0.14 -0.14)">
      <defs>
       <path id="DejaVuSans-50" d="M 1259 4147 
L 1259 2394 
L 2053 2394 
Q 2494 2394 2734 2622 
Q 2975 2850 2975 3272 
Q 2975 3691 2734 3919 
Q 2494 4147 2053 4147 
L 1259 4147 
z
M 628 4666 
L 2053 4666 
Q 2838 4666 3239 4311 
Q 3641 3956 3641 3272 
Q 3641 2581 3239 2228 
Q 2838 1875 2053 1875 
L 1259 1875 
L 1259 0 
L 628 0 
L 628 4666 
z
" transform="scale(0.015625)"/>
      </defs>
      <use xlink:href="#DejaVuSans-20"/>
      <use xlink:href="#DejaVuSans-67" x="31.787109"/>
      <use xlink:href="#DejaVuSans-5f" x="95.263672"/>
      <use xlink:href="#DejaVuSans-5f" x="145.263672"/>
      <use xlink:href="#DejaVuSans-50" x="195.263672"/>
      <use xlink:href="#DejaVuSans-72" x="253.816406"/>
      <use xlink:href="#DejaVuSans-65" x="292.679688"/>
      <use xlink:href="#DejaVuSans-76" x="354.203125"/>
      <use xlink:href="#DejaVuSans-6f" x="413.382812"/>
      <use xlink:href="#DejaVuSans-74" x="474.564453"/>
      <use xlink:href="#DejaVuSans-65" x="513.773438"/>
      <use xlink:href="#DejaVuSans-6c" x="575.296875"/>
      <use xlink:href="#DejaVuSans-6c" x="603.080078"/>
      <use xlink:href="#DejaVuSans-61" x="630.863281"/>
     </g>
    </g>
    <g id="patch_63">
     <path d="M 463.07 312.056062 
L 491.07 312.056062 
L 491.07 302.256062 
L 463.07 302.256062 
z
" style="fill: #f4cccd"/>
    </g>
    <g id="text_21">
     <!--  g__Micrococcus -->
     <g transform="translate(502.27 312.056062) scale(0.14 -0.14)">
      <defs>
       <path id="DejaVuSans-4d" d="M 628 4666 
L 1569 4666 
L 2759 1491 
L 3956 4666 
L 4897 4666 
L 4897 0 
L 4281 0 
L 4281 4097 
L 3078 897 
L 2444 897 
L 1241 4097 
L 1241 0 
L 628 0 
L 628 4666 
z
" transform="scale(0.015625)"/>
      </defs>
      <use xlink:href="#DejaVuSans-20"/>
      <use xlink:href="#DejaVuSans-67" x="31.787109"/>
      <use xlink:href="#DejaVuSans-5f" x="95.263672"/>
      <use xlink:href="#DejaVuSans-5f" x="145.263672"/>
      <use xlink:href="#DejaVuSans-4d" x="195.263672"/>
      <use xlink:href="#DejaVuSans-69" x="281.542969"/>
      <use xlink:href="#DejaVuSans-63" x="309.326172"/>
      <use xlink:href="#DejaVuSans-72" x="364.306641"/>
      <use xlink:href="#DejaVuSans-6f" x="403.169922"/>
      <use xlink:href="#DejaVuSans-63" x="464.351562"/>
      <use xlink:href="#DejaVuSans-6f" x="519.332031"/>
      <use xlink:href="#DejaVuSans-63" x="580.513672"/>
      <use xlink:href="#DejaVuSans-63" x="635.494141"/>
      <use xlink:href="#DejaVuSans-75" x="690.474609"/>
      <use xlink:href="#DejaVuSans-73" x="753.853516"/>
     </g>
    </g>
    <g id="patch_64">
     <path d="M 463.07 332.994812 
L 491.07 332.994812 
L 491.07 323.194812 
L 463.07 323.194812 
z
" style="fill: #8172b3"/>
    </g>
    <g id="text_22">
     <!--  g__Dolosigranulum -->
     <g transform="translate(502.27 332.994812) scale(0.14 -0.14)">
      <use xlink:href="#DejaVuSans-20"/>
      <use xlink:href="#DejaVuSans-67" x="31.787109"/>
      <use xlink:href="#DejaVuSans-5f" x="95.263672"/>
      <use xlink:href="#DejaVuSans-5f" x="145.263672"/>
      <use xlink:href="#DejaVuSans-44" x="195.263672"/>
      <use xlink:href="#DejaVuSans-6f" x="272.265625"/>
      <use xlink:href="#DejaVuSans-6c" x="333.447266"/>
      <use xlink:href="#DejaVuSans-6f" x="361.230469"/>
      <use xlink:href="#DejaVuSans-73" x="422.412109"/>
      <use xlink:href="#DejaVuSans-69" x="474.511719"/>
      <use xlink:href="#DejaVuSans-67" x="502.294922"/>
      <use xlink:href="#DejaVuSans-72" x="565.771484"/>
      <use xlink:href="#DejaVuSans-61" x="606.884766"/>
      <use xlink:href="#DejaVuSans-6e" x="668.164062"/>
      <use xlink:href="#DejaVuSans-75" x="731.542969"/>
      <use xlink:href="#DejaVuSans-6c" x="794.921875"/>
      <use xlink:href="#DejaVuSans-75" x="822.705078"/>
      <use xlink:href="#DejaVuSans-6d" x="886.083984"/>
     </g>
    </g>
    <g id="patch_65">
     <path d="M 463.07 353.933562 
L 491.07 353.933562 
L 491.07 344.133562 
L 463.07 344.133562 
z
" style="fill: #937860"/>
    </g>
    <g id="text_23">
     <!--  g__SIO2C1 -->
     <g transform="translate(502.27 353.933562) scale(0.14 -0.14)">
      <defs>
       <path id="DejaVuSans-49" d="M 628 4666 
L 1259 4666 
L 1259 0 
L 628 0 
L 628 4666 
z
" transform="scale(0.015625)"/>
       <path id="DejaVuSans-4f" d="M 2522 4238 
Q 1834 4238 1429 3725 
Q 1025 3213 1025 2328 
Q 1025 1447 1429 934 
Q 1834 422 2522 422 
Q 3209 422 3611 934 
Q 4013 1447 4013 2328 
Q 4013 3213 3611 3725 
Q 3209 4238 2522 4238 
z
M 2522 4750 
Q 3503 4750 4090 4092 
Q 4678 3434 4678 2328 
Q 4678 1225 4090 567 
Q 3503 -91 2522 -91 
Q 1538 -91 948 565 
Q 359 1222 359 2328 
Q 359 3434 948 4092 
Q 1538 4750 2522 4750 
z
" transform="scale(0.015625)"/>
      </defs>
      <use xlink:href="#DejaVuSans-20"/>
      <use xlink:href="#DejaVuSans-67" x="31.787109"/>
      <use xlink:href="#DejaVuSans-5f" x="95.263672"/>
      <use xlink:href="#DejaVuSans-5f" x="145.263672"/>
      <use xlink:href="#DejaVuSans-53" x="195.263672"/>
      <use xlink:href="#DejaVuSans-49" x="258.740234"/>
      <use xlink:href="#DejaVuSans-4f" x="288.232422"/>
      <use xlink:href="#DejaVuSans-32" x="366.943359"/>
      <use xlink:href="#DejaVuSans-43" x="430.566406"/>
      <use xlink:href="#DejaVuSans-31" x="500.390625"/>
     </g>
    </g>
    <g id="patch_66">
     <path d="M 463.07 374.872312 
L 491.07 374.872312 
L 491.07 365.072312 
L 463.07 365.072312 
z
" style="fill: #da8bc3"/>
    </g>
    <g id="text_24">
     <!--  g__Veillonella_A -->
     <g transform="translate(502.27 374.872312) scale(0.14 -0.14)">
      <use xlink:href="#DejaVuSans-20"/>
      <use xlink:href="#DejaVuSans-67" x="31.787109"/>
      <use xlink:href="#DejaVuSans-5f" x="95.263672"/>
      <use xlink:href="#DejaVuSans-5f" x="145.263672"/>
      <use xlink:href="#DejaVuSans-56" x="195.263672"/>
      <use xlink:href="#DejaVuSans-65" x="255.921875"/>
      <use xlink:href="#DejaVuSans-69" x="317.445312"/>
      <use xlink:href="#DejaVuSans-6c" x="345.228516"/>
      <use xlink:href="#DejaVuSans-6c" x="373.011719"/>
      <use xlink:href="#DejaVuSans-6f" x="400.794922"/>
      <use xlink:href="#DejaVuSans-6e" x="461.976562"/>
      <use xlink:href="#DejaVuSans-65" x="525.355469"/>
      <use xlink:href="#DejaVuSans-6c" x="586.878906"/>
      <use xlink:href="#DejaVuSans-6c" x="614.662109"/>
      <use xlink:href="#DejaVuSans-61" x="642.445312"/>
      <use xlink:href="#DejaVuSans-5f" x="703.724609"/>
      <use xlink:href="#DejaVuSans-41" x="753.724609"/>
     </g>
    </g>
    <g id="patch_67">
     <path d="M 463.07 395.811062 
L 491.07 395.811062 
L 491.07 386.011062 
L 463.07 386.011062 
z
" style="fill: #8c8c8c"/>
    </g>
    <g id="text_25">
     <!--  g__Neisseria_563205 -->
     <g transform="translate(502.27 395.811062) scale(0.14 -0.14)">
      <use xlink:href="#DejaVuSans-20"/>
      <use xlink:href="#DejaVuSans-67" x="31.787109"/>
      <use xlink:href="#DejaVuSans-5f" x="95.263672"/>
      <use xlink:href="#DejaVuSans-5f" x="145.263672"/>
      <use xlink:href="#DejaVuSans-4e" x="195.263672"/>
      <use xlink:href="#DejaVuSans-65" x="270.068359"/>
      <use xlink:href="#DejaVuSans-69" x="331.591797"/>
      <use xlink:href="#DejaVuSans-73" x="359.375"/>
      <use xlink:href="#DejaVuSans-73" x="411.474609"/>
      <use xlink:href="#DejaVuSans-65" x="463.574219"/>
      <use xlink:href="#DejaVuSans-72" x="525.097656"/>
      <use xlink:href="#DejaVuSans-69" x="566.210938"/>
      <use xlink:href="#DejaVuSans-61" x="593.994141"/>
      <use xlink:href="#DejaVuSans-5f" x="655.273438"/>
      <use xlink:href="#DejaVuSans-35" x="705.273438"/>
      <use xlink:href="#DejaVuSans-36" x="768.896484"/>
      <use xlink:href="#DejaVuSans-33" x="832.519531"/>
      <use xlink:href="#DejaVuSans-32" x="896.142578"/>
      <use xlink:href="#DejaVuSans-30" x="959.765625"/>
      <use xlink:href="#DejaVuSans-35" x="1023.388672"/>
     </g>
    </g>
    <g id="patch_68">
     <path d="M 463.07 416.749812 
L 491.07 416.749812 
L 491.07 406.949812 
L 463.07 406.949812 
z
" style="fill: #ccb974"/>
    </g>
    <g id="text_26">
     <!--  g__Psychrobacter -->
     <g transform="translate(502.27 416.749812) scale(0.14 -0.14)">
      <use xlink:href="#DejaVuSans-20"/>
      <use xlink:href="#DejaVuSans-67" x="31.787109"/>
      <use xlink:href="#DejaVuSans-5f" x="95.263672"/>
      <use xlink:href="#DejaVuSans-5f" x="145.263672"/>
      <use xlink:href="#DejaVuSans-50" x="195.263672"/>
      <use xlink:href="#DejaVuSans-73" x="253.816406"/>
      <use xlink:href="#DejaVuSans-79" x="305.916016"/>
      <use xlink:href="#DejaVuSans-63" x="365.095703"/>
      <use xlink:href="#DejaVuSans-68" x="420.076172"/>
      <use xlink:href="#DejaVuSans-72" x="483.455078"/>
      <use xlink:href="#DejaVuSans-6f" x="522.318359"/>
      <use xlink:href="#DejaVuSans-62" x="583.5"/>
      <use xlink:href="#DejaVuSans-61" x="646.976562"/>
      <use xlink:href="#DejaVuSans-63" x="708.255859"/>
      <use xlink:href="#DejaVuSans-74" x="763.236328"/>
      <use xlink:href="#DejaVuSans-65" x="802.445312"/>
      <use xlink:href="#DejaVuSans-72" x="863.96875"/>
     </g>
    </g>
    <g id="patch_69">
     <path d="M 463.07 437.688562 
L 491.07 437.688562 
L 491.07 427.888562 
L 463.07 427.888562 
z
" style="fill: #ffa505"/>
    </g>
    <g id="text_27">
     <!--  g__Cutibacterium -->
     <g transform="translate(502.27 437.688562) scale(0.14 -0.14)">
      <use xlink:href="#DejaVuSans-20"/>
      <use xlink:href="#DejaVuSans-67" x="31.787109"/>
      <use xlink:href="#DejaVuSans-5f" x="95.263672"/>
      <use xlink:href="#DejaVuSans-5f" x="145.263672"/>
      <use xlink:href="#DejaVuSans-43" x="195.263672"/>
      <use xlink:href="#DejaVuSans-75" x="265.087891"/>
      <use xlink:href="#DejaVuSans-74" x="328.466797"/>
      <use xlink:href="#DejaVuSans-69" x="367.675781"/>
      <use xlink:href="#DejaVuSans-62" x="395.458984"/>
      <use xlink:href="#DejaVuSans-61" x="458.935547"/>
      <use xlink:href="#DejaVuSans-63" x="520.214844"/>
      <use xlink:href="#DejaVuSans-74" x="575.195312"/>
      <use xlink:href="#DejaVuSans-65" x="614.404297"/>
      <use xlink:href="#DejaVuSans-72" x="675.927734"/>
      <use xlink:href="#DejaVuSans-69" x="717.041016"/>
      <use xlink:href="#DejaVuSans-75" x="744.824219"/>
      <use xlink:href="#DejaVuSans-6d" x="808.203125"/>
     </g>
    </g>
    <g id="patch_70">
     <path d="M 463.07 458.627313 
L 491.07 458.627313 
L 491.07 448.827313 
L 463.07 448.827313 
z
" style="fill: #64b5cd"/>
    </g>
    <g id="text_28">
     <!--  g__Pseudomonas_E_647464 -->
     <g transform="translate(502.27 458.627313) scale(0.14 -0.14)">
      <defs>
       <path id="DejaVuSans-45" d="M 628 4666 
L 3578 4666 
L 3578 4134 
L 1259 4134 
L 1259 2753 
L 3481 2753 
L 3481 2222 
L 1259 2222 
L 1259 531 
L 3634 531 
L 3634 0 
L 628 0 
L 628 4666 
z
" transform="scale(0.015625)"/>
      </defs>
      <use xlink:href="#DejaVuSans-20"/>
      <use xlink:href="#DejaVuSans-67" x="31.787109"/>
      <use xlink:href="#DejaVuSans-5f" x="95.263672"/>
      <use xlink:href="#DejaVuSans-5f" x="145.263672"/>
      <use xlink:href="#DejaVuSans-50" x="195.263672"/>
      <use xlink:href="#DejaVuSans-73" x="253.816406"/>
      <use xlink:href="#DejaVuSans-65" x="305.916016"/>
      <use xlink:href="#DejaVuSans-75" x="367.439453"/>
      <use xlink:href="#DejaVuSans-64" x="430.818359"/>
      <use xlink:href="#DejaVuSans-6f" x="494.294922"/>
      <use xlink:href="#DejaVuSans-6d" x="555.476562"/>
      <use xlink:href="#DejaVuSans-6f" x="652.888672"/>
      <use xlink:href="#DejaVuSans-6e" x="714.070312"/>
      <use xlink:href="#DejaVuSans-61" x="777.449219"/>
      <use xlink:href="#DejaVuSans-73" x="838.728516"/>
      <use xlink:href="#DejaVuSans-5f" x="890.828125"/>
      <use xlink:href="#DejaVuSans-45" x="940.828125"/>
      <use xlink:href="#DejaVuSans-5f" x="1004.011719"/>
      <use xlink:href="#DejaVuSans-36" x="1054.011719"/>
      <use xlink:href="#DejaVuSans-34" x="1117.634766"/>
      <use xlink:href="#DejaVuSans-37" x="1181.257812"/>
      <use xlink:href="#DejaVuSans-34" x="1244.880859"/>
      <use xlink:href="#DejaVuSans-36" x="1308.503906"/>
      <use xlink:href="#DejaVuSans-34" x="1372.126953"/>
     </g>
    </g>
    <g id="patch_71">
     <path d="M 463.07 479.566063 
L 491.07 479.566063 
L 491.07 469.766063 
L 463.07 469.766063 
z
" style="fill: #ededed"/>
    </g>
    <g id="text_29">
     <!-- Others -->
     <g transform="translate(502.27 479.566063) scale(0.14 -0.14)">
      <use xlink:href="#DejaVuSans-4f"/>
      <use xlink:href="#DejaVuSans-74" x="78.710938"/>
      <use xlink:href="#DejaVuSans-68" x="117.919922"/>
      <use xlink:href="#DejaVuSans-65" x="181.298828"/>
      <use xlink:href="#DejaVuSans-72" x="242.822266"/>
      <use xlink:href="#DejaVuSans-73" x="283.935547"/>
     </g>
    </g>
   </g>
  </g>
 </g>
 <defs>
  <clipPath id="p1d529744cb">
   <rect x="67.7" y="34.08" width="382.77" height="544.744"/>
  </clipPath>
 </defs>
</svg>
