<?xml version="1.0" encoding="utf-8" standalone="no"?>
<!DOCTYPE svg PUBLIC "-//W3C//DTD SVG 1.1//EN"
  "http://www.w3.org/Graphics/SVG/1.1/DTD/svg11.dtd">
<svg xmlns:xlink="http://www.w3.org/1999/xlink" width="396pt" height="612pt" viewBox="0 0 396 612" xmlns="http://www.w3.org/2000/svg" version="1.1">
 <metadata>
  <rdf:RDF xmlns:dc="http://purl.org/dc/elements/1.1/" xmlns:cc="http://creativecommons.org/ns#" xmlns:rdf="http://www.w3.org/1999/02/22-rdf-syntax-ns#">
   <cc:Work>
    <dc:type rdf:resource="http://purl.org/dc/dcmitype/StillImage"/>
    <dc:date>2025-05-19T16:13:34.792226</dc:date>
    <dc:format>image/svg+xml</dc:format>
    <dc:creator>
     <cc:Agent>
      <dc:title>Matplotlib v3.7.3, https://matplotlib.org/</dc:title>
     </cc:Agent>
    </dc:creator>
   </cc:Work>
  </rdf:RDF>
 </metadata>
 <defs>
  <style type="text/css">*{stroke-linejoin: round; stroke-linecap: butt}</style>
 </defs>
 <g id="figure_1">
  <g id="patch_1">
   <path d="M 0 612 
L 396 612 
L 396 0 
L 0 0 
z
" style="fill: #ffffff"/>
  </g>
  <g id="axes_1">
   <g id="patch_2">
    <path d="M 59.4 279.294545 
L 257.4 279.294545 
L 257.4 42.84 
L 59.4 42.84 
z
" style="fill: #ffffff"/>
   </g>
   <g id="patch_3">
    <path d="M 69.821053 279.294545 
L 132.347368 279.294545 
L 132.347368 169.571688 
L 69.821053 169.571688 
z
" clip-path="url(#p01159ae6c6)" style="fill: #ff0000"/>
   </g>
   <g id="patch_4">
    <path d="M 174.031579 279.294545 
L 236.557895 279.294545 
L 236.557895 162.602982 
L 174.031579 162.602982 
z
" clip-path="url(#p01159ae6c6)" style="fill: #ff0000"/>
   </g>
   <g id="patch_5">
    <path d="M 69.821053 169.571688 
L 132.347368 169.571688 
L 132.347368 81.935584 
L 69.821053 81.935584 
z
" clip-path="url(#p01159ae6c6)" style="fill: #e6e6fa"/>
   </g>
   <g id="patch_6">
    <path d="M 174.031579 162.602982 
L 236.557895 162.602982 
L 236.557895 108.000066 
L 174.031579 108.000066 
z
" clip-path="url(#p01159ae6c6)" style="fill: #e6e6fa"/>
   </g>
   <g id="patch_7">
    <path d="M 69.821053 81.935584 
L 132.347368 81.935584 
L 132.347368 76.027532 
L 69.821053 76.027532 
z
" clip-path="url(#p01159ae6c6)" style="fill: #a5d8ff"/>
   </g>
   <g id="patch_8">
    <path d="M 174.031579 108.000066 
L 236.557895 108.000066 
L 236.557895 90.816904 
L 174.031579 90.816904 
z
" clip-path="url(#p01159ae6c6)" style="fill: #a5d8ff"/>
   </g>
   <g id="patch_9">
    <path d="M 69.821053 76.027532 
L 132.347368 76.027532 
L 132.347368 62.361299 
L 69.821053 62.361299 
z
" clip-path="url(#p01159ae6c6)"/>
   </g>
   <g id="patch_10">
    <path d="M 174.031579 90.816904 
L 236.557895 90.816904 
L 236.557895 88.667303 
L 174.031579 88.667303 
z
" clip-path="url(#p01159ae6c6)"/>
   </g>
   <g id="patch_11">
    <path d="M 69.821053 62.361299 
L 132.347368 62.361299 
L 132.347368 59.16 
L 69.821053 59.16 
z
" clip-path="url(#p01159ae6c6)" style="fill: #d4a5a5"/>
   </g>
   <g id="patch_12">
    <path d="M 174.031579 88.667303 
L 236.557895 88.667303 
L 236.557895 82.808809 
L 174.031579 82.808809 
z
" clip-path="url(#p01159ae6c6)" style="fill: #d4a5a5"/>
   </g>
   <g id="patch_13">
    <path d="M 69.821053 59.16 
L 132.347368 59.16 
L 132.347368 58.97013 
L 69.821053 58.97013 
z
" clip-path="url(#p01159ae6c6)" style="fill: #f7c59f"/>
   </g>
   <g id="patch_14">
    <path d="M 174.031579 82.808809 
L 236.557895 82.808809 
L 236.557895 82.720096 
L 174.031579 82.720096 
z
" clip-path="url(#p01159ae6c6)" style="fill: #f7c59f"/>
   </g>
   <g id="patch_15">
    <path d="M 69.821053 58.97013 
L 132.347368 58.97013 
L 132.347368 58.10026 
L 69.821053 58.10026 
z
" clip-path="url(#p01159ae6c6)" style="fill: #b0d9b1"/>
   </g>
   <g id="patch_16">
    <path d="M 174.031579 82.720096 
L 236.557895 82.720096 
L 236.557895 80.628511 
L 174.031579 80.628511 
z
" clip-path="url(#p01159ae6c6)" style="fill: #b0d9b1"/>
   </g>
   <g id="patch_17">
    <path d="M 69.821053 279.294545 
L 132.347368 279.294545 
L 132.347368 279.294545 
L 69.821053 279.294545 
z
" clip-path="url(#p01159ae6c6)" style="fill: #add8e6"/>
   </g>
   <g id="patch_18">
    <path d="M 174.031579 279.294545 
L 236.557895 279.294545 
L 236.557895 279.294545 
L 174.031579 279.294545 
z
" clip-path="url(#p01159ae6c6)" style="fill: #add8e6"/>
   </g>
   <g id="patch_19">
    <path d="M 69.821053 58.10026 
L 132.347368 58.10026 
L 132.347368 57.822078 
L 69.821053 57.822078 
z
" clip-path="url(#p01159ae6c6)" style="fill: #a5c9a1"/>
   </g>
   <g id="patch_20">
    <path d="M 174.031579 80.628511 
L 236.557895 80.628511 
L 236.557895 78.301491 
L 174.031579 78.301491 
z
" clip-path="url(#p01159ae6c6)" style="fill: #a5c9a1"/>
   </g>
   <g id="patch_21">
    <path d="M 69.821053 57.822078 
L 132.347368 57.822078 
L 132.347368 57.512987 
L 69.821053 57.512987 
z
" clip-path="url(#p01159ae6c6)" style="fill: #fa5f55"/>
   </g>
   <g id="patch_22">
    <path d="M 174.031579 78.301491 
L 236.557895 78.301491 
L 236.557895 75.964235 
L 174.031579 75.964235 
z
" clip-path="url(#p01159ae6c6)" style="fill: #fa5f55"/>
   </g>
   <g id="patch_23">
    <path d="M 69.821053 57.512987 
L 132.347368 57.512987 
L 132.347368 57.495325 
L 69.821053 57.495325 
z
" clip-path="url(#p01159ae6c6)" style="fill: #ffe59a"/>
   </g>
   <g id="patch_24">
    <path d="M 174.031579 75.964235 
L 236.557895 75.964235 
L 236.557895 74.739312 
L 174.031579 74.739312 
z
" clip-path="url(#p01159ae6c6)" style="fill: #ffe59a"/>
   </g>
   <g id="patch_25">
    <path d="M 69.821053 57.495325 
L 132.347368 57.495325 
L 132.347368 57.433506 
L 69.821053 57.433506 
z
" clip-path="url(#p01159ae6c6)" style="fill: #a5c9a1"/>
   </g>
   <g id="patch_26">
    <path d="M 174.031579 74.739312 
L 236.557895 74.739312 
L 236.557895 73.78394 
L 174.031579 73.78394 
z
" clip-path="url(#p01159ae6c6)" style="fill: #a5c9a1"/>
   </g>
   <g id="patch_27">
    <path d="M 69.821053 57.433506 
L 132.347368 57.433506 
L 132.347368 57.327532 
L 69.821053 57.327532 
z
" clip-path="url(#p01159ae6c6)" style="fill: #ccccff"/>
   </g>
   <g id="patch_28">
    <path d="M 174.031579 73.78394 
L 236.557895 73.78394 
L 236.557895 72.992346 
L 174.031579 72.992346 
z
" clip-path="url(#p01159ae6c6)" style="fill: #ccccff"/>
   </g>
   <g id="patch_29">
    <path d="M 69.821053 57.327532 
L 132.347368 57.327532 
L 132.347368 57.278961 
L 69.821053 57.278961 
z
" clip-path="url(#p01159ae6c6)" style="fill: #fadadd"/>
   </g>
   <g id="patch_30">
    <path d="M 174.031579 72.992346 
L 236.557895 72.992346 
L 236.557895 72.68863 
L 174.031579 72.68863 
z
" clip-path="url(#p01159ae6c6)" style="fill: #fadadd"/>
   </g>
   <g id="patch_31">
    <path d="M 69.821053 57.278961 
L 132.347368 57.278961 
L 132.347368 54.09974 
L 69.821053 54.09974 
z
" clip-path="url(#p01159ae6c6)" style="fill: #d9d9d9"/>
   </g>
   <g id="patch_32">
    <path d="M 174.031579 72.68863 
L 236.557895 72.68863 
L 236.557895 54.09974 
L 174.031579 54.09974 
z
" clip-path="url(#p01159ae6c6)" style="fill: #d9d9d9"/>
   </g>
   <g id="matplotlib.axis_1">
    <g id="xtick_1">
     <g id="line2d_1">
      <defs>
       <path id="m9cb467216c" d="M 0 0 
L 0 3.5 
" style="stroke: #000000; stroke-width: 0.8"/>
      </defs>
      <g>
       <use xlink:href="#m9cb467216c" x="101.084211" y="279.294545" style="stroke: #000000; stroke-width: 0.8"/>
      </g>
     </g>
     <g id="text_1">
      <!-- H (n=17) -->
      <g transform="translate(68.923586 296.932358) scale(0.14 -0.14)">
       <defs>
        <path id="DejaVuSans-48" d="M 628 4666 
L 1259 4666 
L 1259 2753 
L 3553 2753 
L 3553 4666 
L 4184 4666 
L 4184 0 
L 3553 0 
L 3553 2222 
L 1259 2222 
L 1259 0 
L 628 0 
L 628 4666 
z
" transform="scale(0.015625)"/>
        <path id="DejaVuSans-20" transform="scale(0.015625)"/>
        <path id="DejaVuSans-28" d="M 1984 4856 
Q 1566 4138 1362 3434 
Q 1159 2731 1159 2009 
Q 1159 1288 1364 580 
Q 1569 -128 1984 -844 
L 1484 -844 
Q 1016 -109 783 600 
Q 550 1309 550 2009 
Q 550 2706 781 3412 
Q 1013 4119 1484 4856 
L 1984 4856 
z
" transform="scale(0.015625)"/>
        <path id="DejaVuSans-6e" d="M 3513 2113 
L 3513 0 
L 2938 0 
L 2938 2094 
Q 2938 2591 2744 2837 
Q 2550 3084 2163 3084 
Q 1697 3084 1428 2787 
Q 1159 2491 1159 1978 
L 1159 0 
L 581 0 
L 581 3500 
L 1159 3500 
L 1159 2956 
Q 1366 3272 1645 3428 
Q 1925 3584 2291 3584 
Q 2894 3584 3203 3211 
Q 3513 2838 3513 2113 
z
" transform="scale(0.015625)"/>
        <path id="DejaVuSans-3d" d="M 678 2906 
L 4684 2906 
L 4684 2381 
L 678 2381 
L 678 2906 
z
M 678 1631 
L 4684 1631 
L 4684 1100 
L 678 1100 
L 678 1631 
z
" transform="scale(0.015625)"/>
        <path id="DejaVuSans-31" d="M 794 531 
L 1825 531 
L 1825 4091 
L 703 3866 
L 703 4441 
L 1819 4666 
L 2450 4666 
L 2450 531 
L 3481 531 
L 3481 0 
L 794 0 
L 794 531 
z
" transform="scale(0.015625)"/>
        <path id="DejaVuSans-37" d="M 525 4666 
L 3525 4666 
L 3525 4397 
L 1831 0 
L 1172 0 
L 2766 4134 
L 525 4134 
L 525 4666 
z
" transform="scale(0.015625)"/>
        <path id="DejaVuSans-29" d="M 513 4856 
L 1013 4856 
Q 1481 4119 1714 3412 
Q 1947 2706 1947 2009 
Q 1947 1309 1714 600 
Q 1481 -109 1013 -844 
L 513 -844 
Q 928 -128 1133 580 
Q 1338 1288 1338 2009 
Q 1338 2731 1133 3434 
Q 928 4138 513 4856 
z
" transform="scale(0.015625)"/>
       </defs>
       <use xlink:href="#DejaVuSans-48"/>
       <use xlink:href="#DejaVuSans-20" x="75.195312"/>
       <use xlink:href="#DejaVuSans-28" x="106.982422"/>
       <use xlink:href="#DejaVuSans-6e" x="145.996094"/>
       <use xlink:href="#DejaVuSans-3d" x="209.375"/>
       <use xlink:href="#DejaVuSans-31" x="293.164062"/>
       <use xlink:href="#DejaVuSans-37" x="356.787109"/>
       <use xlink:href="#DejaVuSans-29" x="420.410156"/>
      </g>
     </g>
    </g>
    <g id="xtick_2">
     <g id="line2d_2">
      <g>
       <use xlink:href="#m9cb467216c" x="205.294737" y="279.294545" style="stroke: #000000; stroke-width: 0.8"/>
      </g>
     </g>
     <g id="text_2">
      <!-- AD (n=22) -->
      <g transform="translate(168.219893 296.932358) scale(0.14 -0.14)">
       <defs>
        <path id="DejaVuSans-41" d="M 2188 4044 
L 1331 1722 
L 3047 1722 
L 2188 4044 
z
M 1831 4666 
L 2547 4666 
L 4325 0 
L 3669 0 
L 3244 1197 
L 1141 1197 
L 716 0 
L 50 0 
L 1831 4666 
z
" transform="scale(0.015625)"/>
        <path id="DejaVuSans-44" d="M 1259 4147 
L 1259 519 
L 2022 519 
Q 2988 519 3436 956 
Q 3884 1394 3884 2338 
Q 3884 3275 3436 3711 
Q 2988 4147 2022 4147 
L 1259 4147 
z
M 628 4666 
L 1925 4666 
Q 3281 4666 3915 4102 
Q 4550 3538 4550 2338 
Q 4550 1131 3912 565 
Q 3275 0 1925 0 
L 628 0 
L 628 4666 
z
" transform="scale(0.015625)"/>
        <path id="DejaVuSans-32" d="M 1228 531 
L 3431 531 
L 3431 0 
L 469 0 
L 469 531 
Q 828 903 1448 1529 
Q 2069 2156 2228 2338 
Q 2531 2678 2651 2914 
Q 2772 3150 2772 3378 
Q 2772 3750 2511 3984 
Q 2250 4219 1831 4219 
Q 1534 4219 1204 4116 
Q 875 4013 500 3803 
L 500 4441 
Q 881 4594 1212 4672 
Q 1544 4750 1819 4750 
Q 2544 4750 2975 4387 
Q 3406 4025 3406 3419 
Q 3406 3131 3298 2873 
Q 3191 2616 2906 2266 
Q 2828 2175 2409 1742 
Q 1991 1309 1228 531 
z
" transform="scale(0.015625)"/>
       </defs>
       <use xlink:href="#DejaVuSans-41"/>
       <use xlink:href="#DejaVuSans-44" x="68.408203"/>
       <use xlink:href="#DejaVuSans-20" x="145.410156"/>
       <use xlink:href="#DejaVuSans-28" x="177.197266"/>
       <use xlink:href="#DejaVuSans-6e" x="216.210938"/>
       <use xlink:href="#DejaVuSans-3d" x="279.589844"/>
       <use xlink:href="#DejaVuSans-32" x="363.378906"/>
       <use xlink:href="#DejaVuSans-32" x="427.001953"/>
       <use xlink:href="#DejaVuSans-29" x="490.625"/>
      </g>
     </g>
    </g>
    <g id="text_3">
     <!--   -->
     <g transform="translate(156.810937 311.442358) scale(0.1 -0.1)">
      <use xlink:href="#DejaVuSans-20"/>
     </g>
    </g>
   </g>
   <g id="matplotlib.axis_2">
    <g id="ytick_1">
     <g id="line2d_3">
      <defs>
       <path id="m8334f84cc9" d="M 0 0 
L -3.5 0 
" style="stroke: #000000; stroke-width: 0.8"/>
      </defs>
      <g>
       <use xlink:href="#m8334f84cc9" x="59.4" y="279.294545" style="stroke: #000000; stroke-width: 0.8"/>
      </g>
     </g>
     <g id="text_4">
      <!-- 0.0 -->
      <g transform="translate(36.496875 283.093764) scale(0.1 -0.1)">
       <defs>
        <path id="DejaVuSans-30" d="M 2034 4250 
Q 1547 4250 1301 3770 
Q 1056 3291 1056 2328 
Q 1056 1369 1301 889 
Q 1547 409 2034 409 
Q 2525 409 2770 889 
Q 3016 1369 3016 2328 
Q 3016 3291 2770 3770 
Q 2525 4250 2034 4250 
z
M 2034 4750 
Q 2819 4750 3233 4129 
Q 3647 3509 3647 2328 
Q 3647 1150 3233 529 
Q 2819 -91 2034 -91 
Q 1250 -91 836 529 
Q 422 1150 422 2328 
Q 422 3509 836 4129 
Q 1250 4750 2034 4750 
z
" transform="scale(0.015625)"/>
        <path id="DejaVuSans-2e" d="M 684 794 
L 1344 794 
L 1344 0 
L 684 0 
L 684 794 
z
" transform="scale(0.015625)"/>
       </defs>
       <use xlink:href="#DejaVuSans-30"/>
       <use xlink:href="#DejaVuSans-2e" x="63.623047"/>
       <use xlink:href="#DejaVuSans-30" x="95.410156"/>
      </g>
     </g>
    </g>
    <g id="ytick_2">
     <g id="line2d_4">
      <g>
       <use xlink:href="#m8334f84cc9" x="59.4" y="234.255584" style="stroke: #000000; stroke-width: 0.8"/>
      </g>
     </g>
     <g id="text_5">
      <!-- 0.2 -->
      <g transform="translate(36.496875 238.054803) scale(0.1 -0.1)">
       <use xlink:href="#DejaVuSans-30"/>
       <use xlink:href="#DejaVuSans-2e" x="63.623047"/>
       <use xlink:href="#DejaVuSans-32" x="95.410156"/>
      </g>
     </g>
    </g>
    <g id="ytick_3">
     <g id="line2d_5">
      <g>
       <use xlink:href="#m8334f84cc9" x="59.4" y="189.216623" style="stroke: #000000; stroke-width: 0.8"/>
      </g>
     </g>
     <g id="text_6">
      <!-- 0.4 -->
      <g transform="translate(36.496875 193.015842) scale(0.1 -0.1)">
       <defs>
        <path id="DejaVuSans-34" d="M 2419 4116 
L 825 1625 
L 2419 1625 
L 2419 4116 
z
M 2253 4666 
L 3047 4666 
L 3047 1625 
L 3713 1625 
L 3713 1100 
L 3047 1100 
L 3047 0 
L 2419 0 
L 2419 1100 
L 313 1100 
L 313 1709 
L 2253 4666 
z
" transform="scale(0.015625)"/>
       </defs>
       <use xlink:href="#DejaVuSans-30"/>
       <use xlink:href="#DejaVuSans-2e" x="63.623047"/>
       <use xlink:href="#DejaVuSans-34" x="95.410156"/>
      </g>
     </g>
    </g>
    <g id="ytick_4">
     <g id="line2d_6">
      <g>
       <use xlink:href="#m8334f84cc9" x="59.4" y="144.177662" style="stroke: #000000; stroke-width: 0.8"/>
      </g>
     </g>
     <g id="text_7">
      <!-- 0.6 -->
      <g transform="translate(36.496875 147.976881) scale(0.1 -0.1)">
       <defs>
        <path id="DejaVuSans-36" d="M 2113 2584 
Q 1688 2584 1439 2293 
Q 1191 2003 1191 1497 
Q 1191 994 1439 701 
Q 1688 409 2113 409 
Q 2538 409 2786 701 
Q 3034 994 3034 1497 
Q 3034 2003 2786 2293 
Q 2538 2584 2113 2584 
z
M 3366 4563 
L 3366 3988 
Q 3128 4100 2886 4159 
Q 2644 4219 2406 4219 
Q 1781 4219 1451 3797 
Q 1122 3375 1075 2522 
Q 1259 2794 1537 2939 
Q 1816 3084 2150 3084 
Q 2853 3084 3261 2657 
Q 3669 2231 3669 1497 
Q 3669 778 3244 343 
Q 2819 -91 2113 -91 
Q 1303 -91 875 529 
Q 447 1150 447 2328 
Q 447 3434 972 4092 
Q 1497 4750 2381 4750 
Q 2619 4750 2861 4703 
Q 3103 4656 3366 4563 
z
" transform="scale(0.015625)"/>
       </defs>
       <use xlink:href="#DejaVuSans-30"/>
       <use xlink:href="#DejaVuSans-2e" x="63.623047"/>
       <use xlink:href="#DejaVuSans-36" x="95.410156"/>
      </g>
     </g>
    </g>
    <g id="ytick_5">
     <g id="line2d_7">
      <g>
       <use xlink:href="#m8334f84cc9" x="59.4" y="99.138701" style="stroke: #000000; stroke-width: 0.8"/>
      </g>
     </g>
     <g id="text_8">
      <!-- 0.8 -->
      <g transform="translate(36.496875 102.93792) scale(0.1 -0.1)">
       <defs>
        <path id="DejaVuSans-38" d="M 2034 2216 
Q 1584 2216 1326 1975 
Q 1069 1734 1069 1313 
Q 1069 891 1326 650 
Q 1584 409 2034 409 
Q 2484 409 2743 651 
Q 3003 894 3003 1313 
Q 3003 1734 2745 1975 
Q 2488 2216 2034 2216 
z
M 1403 2484 
Q 997 2584 770 2862 
Q 544 3141 544 3541 
Q 544 4100 942 4425 
Q 1341 4750 2034 4750 
Q 2731 4750 3128 4425 
Q 3525 4100 3525 3541 
Q 3525 3141 3298 2862 
Q 3072 2584 2669 2484 
Q 3125 2378 3379 2068 
Q 3634 1759 3634 1313 
Q 3634 634 3220 271 
Q 2806 -91 2034 -91 
Q 1263 -91 848 271 
Q 434 634 434 1313 
Q 434 1759 690 2068 
Q 947 2378 1403 2484 
z
M 1172 3481 
Q 1172 3119 1398 2916 
Q 1625 2713 2034 2713 
Q 2441 2713 2670 2916 
Q 2900 3119 2900 3481 
Q 2900 3844 2670 4047 
Q 2441 4250 2034 4250 
Q 1625 4250 1398 4047 
Q 1172 3844 1172 3481 
z
" transform="scale(0.015625)"/>
       </defs>
       <use xlink:href="#DejaVuSans-30"/>
       <use xlink:href="#DejaVuSans-2e" x="63.623047"/>
       <use xlink:href="#DejaVuSans-38" x="95.410156"/>
      </g>
     </g>
    </g>
    <g id="ytick_6">
     <g id="line2d_8">
      <g>
       <use xlink:href="#m8334f84cc9" x="59.4" y="54.09974" style="stroke: #000000; stroke-width: 0.8"/>
      </g>
     </g>
     <g id="text_9">
      <!-- 1.0 -->
      <g transform="translate(36.496875 57.898959) scale(0.1 -0.1)">
       <use xlink:href="#DejaVuSans-31"/>
       <use xlink:href="#DejaVuSans-2e" x="63.623047"/>
       <use xlink:href="#DejaVuSans-30" x="95.410156"/>
      </g>
     </g>
    </g>
    <g id="text_10">
     <!-- Relative Abundance -->
     <g transform="translate(29.585312 230.952429) rotate(-90) scale(0.14 -0.14)">
      <defs>
       <path id="DejaVuSans-52" d="M 2841 2188 
Q 3044 2119 3236 1894 
Q 3428 1669 3622 1275 
L 4263 0 
L 3584 0 
L 2988 1197 
Q 2756 1666 2539 1819 
Q 2322 1972 1947 1972 
L 1259 1972 
L 1259 0 
L 628 0 
L 628 4666 
L 2053 4666 
Q 2853 4666 3247 4331 
Q 3641 3997 3641 3322 
Q 3641 2881 3436 2590 
Q 3231 2300 2841 2188 
z
M 1259 4147 
L 1259 2491 
L 2053 2491 
Q 2509 2491 2742 2702 
Q 2975 2913 2975 3322 
Q 2975 3731 2742 3939 
Q 2509 4147 2053 4147 
L 1259 4147 
z
" transform="scale(0.015625)"/>
       <path id="DejaVuSans-65" d="M 3597 1894 
L 3597 1613 
L 953 1613 
Q 991 1019 1311 708 
Q 1631 397 2203 397 
Q 2534 397 2845 478 
Q 3156 559 3463 722 
L 3463 178 
Q 3153 47 2828 -22 
Q 2503 -91 2169 -91 
Q 1331 -91 842 396 
Q 353 884 353 1716 
Q 353 2575 817 3079 
Q 1281 3584 2069 3584 
Q 2775 3584 3186 3129 
Q 3597 2675 3597 1894 
z
M 3022 2063 
Q 3016 2534 2758 2815 
Q 2500 3097 2075 3097 
Q 1594 3097 1305 2825 
Q 1016 2553 972 2059 
L 3022 2063 
z
" transform="scale(0.015625)"/>
       <path id="DejaVuSans-6c" d="M 603 4863 
L 1178 4863 
L 1178 0 
L 603 0 
L 603 4863 
z
" transform="scale(0.015625)"/>
       <path id="DejaVuSans-61" d="M 2194 1759 
Q 1497 1759 1228 1600 
Q 959 1441 959 1056 
Q 959 750 1161 570 
Q 1363 391 1709 391 
Q 2188 391 2477 730 
Q 2766 1069 2766 1631 
L 2766 1759 
L 2194 1759 
z
M 3341 1997 
L 3341 0 
L 2766 0 
L 2766 531 
Q 2569 213 2275 61 
Q 1981 -91 1556 -91 
Q 1019 -91 701 211 
Q 384 513 384 1019 
Q 384 1609 779 1909 
Q 1175 2209 1959 2209 
L 2766 2209 
L 2766 2266 
Q 2766 2663 2505 2880 
Q 2244 3097 1772 3097 
Q 1472 3097 1187 3025 
Q 903 2953 641 2809 
L 641 3341 
Q 956 3463 1253 3523 
Q 1550 3584 1831 3584 
Q 2591 3584 2966 3190 
Q 3341 2797 3341 1997 
z
" transform="scale(0.015625)"/>
       <path id="DejaVuSans-74" d="M 1172 4494 
L 1172 3500 
L 2356 3500 
L 2356 3053 
L 1172 3053 
L 1172 1153 
Q 1172 725 1289 603 
Q 1406 481 1766 481 
L 2356 481 
L 2356 0 
L 1766 0 
Q 1100 0 847 248 
Q 594 497 594 1153 
L 594 3053 
L 172 3053 
L 172 3500 
L 594 3500 
L 594 4494 
L 1172 4494 
z
" transform="scale(0.015625)"/>
       <path id="DejaVuSans-69" d="M 603 3500 
L 1178 3500 
L 1178 0 
L 603 0 
L 603 3500 
z
M 603 4863 
L 1178 4863 
L 1178 4134 
L 603 4134 
L 603 4863 
z
" transform="scale(0.015625)"/>
       <path id="DejaVuSans-76" d="M 191 3500 
L 800 3500 
L 1894 563 
L 2988 3500 
L 3597 3500 
L 2284 0 
L 1503 0 
L 191 3500 
z
" transform="scale(0.015625)"/>
       <path id="DejaVuSans-62" d="M 3116 1747 
Q 3116 2381 2855 2742 
Q 2594 3103 2138 3103 
Q 1681 3103 1420 2742 
Q 1159 2381 1159 1747 
Q 1159 1113 1420 752 
Q 1681 391 2138 391 
Q 2594 391 2855 752 
Q 3116 1113 3116 1747 
z
M 1159 2969 
Q 1341 3281 1617 3432 
Q 1894 3584 2278 3584 
Q 2916 3584 3314 3078 
Q 3713 2572 3713 1747 
Q 3713 922 3314 415 
Q 2916 -91 2278 -91 
Q 1894 -91 1617 61 
Q 1341 213 1159 525 
L 1159 0 
L 581 0 
L 581 4863 
L 1159 4863 
L 1159 2969 
z
" transform="scale(0.015625)"/>
       <path id="DejaVuSans-75" d="M 544 1381 
L 544 3500 
L 1119 3500 
L 1119 1403 
Q 1119 906 1312 657 
Q 1506 409 1894 409 
Q 2359 409 2629 706 
Q 2900 1003 2900 1516 
L 2900 3500 
L 3475 3500 
L 3475 0 
L 2900 0 
L 2900 538 
Q 2691 219 2414 64 
Q 2138 -91 1772 -91 
Q 1169 -91 856 284 
Q 544 659 544 1381 
z
M 1991 3584 
L 1991 3584 
z
" transform="scale(0.015625)"/>
       <path id="DejaVuSans-64" d="M 2906 2969 
L 2906 4863 
L 3481 4863 
L 3481 0 
L 2906 0 
L 2906 525 
Q 2725 213 2448 61 
Q 2172 -91 1784 -91 
Q 1150 -91 751 415 
Q 353 922 353 1747 
Q 353 2572 751 3078 
Q 1150 3584 1784 3584 
Q 2172 3584 2448 3432 
Q 2725 3281 2906 2969 
z
M 947 1747 
Q 947 1113 1208 752 
Q 1469 391 1925 391 
Q 2381 391 2643 752 
Q 2906 1113 2906 1747 
Q 2906 2381 2643 2742 
Q 2381 3103 1925 3103 
Q 1469 3103 1208 2742 
Q 947 2381 947 1747 
z
" transform="scale(0.015625)"/>
       <path id="DejaVuSans-63" d="M 3122 3366 
L 3122 2828 
Q 2878 2963 2633 3030 
Q 2388 3097 2138 3097 
Q 1578 3097 1268 2742 
Q 959 2388 959 1747 
Q 959 1106 1268 751 
Q 1578 397 2138 397 
Q 2388 397 2633 464 
Q 2878 531 3122 666 
L 3122 134 
Q 2881 22 2623 -34 
Q 2366 -91 2075 -91 
Q 1284 -91 818 406 
Q 353 903 353 1747 
Q 353 2603 823 3093 
Q 1294 3584 2113 3584 
Q 2378 3584 2631 3529 
Q 2884 3475 3122 3366 
z
" transform="scale(0.015625)"/>
      </defs>
      <use xlink:href="#DejaVuSans-52"/>
      <use xlink:href="#DejaVuSans-65" x="64.982422"/>
      <use xlink:href="#DejaVuSans-6c" x="126.505859"/>
      <use xlink:href="#DejaVuSans-61" x="154.289062"/>
      <use xlink:href="#DejaVuSans-74" x="215.568359"/>
      <use xlink:href="#DejaVuSans-69" x="254.777344"/>
      <use xlink:href="#DejaVuSans-76" x="282.560547"/>
      <use xlink:href="#DejaVuSans-65" x="341.740234"/>
      <use xlink:href="#DejaVuSans-20" x="403.263672"/>
      <use xlink:href="#DejaVuSans-41" x="435.050781"/>
      <use xlink:href="#DejaVuSans-62" x="503.458984"/>
      <use xlink:href="#DejaVuSans-75" x="566.935547"/>
      <use xlink:href="#DejaVuSans-6e" x="630.314453"/>
      <use xlink:href="#DejaVuSans-64" x="693.693359"/>
      <use xlink:href="#DejaVuSans-61" x="757.169922"/>
      <use xlink:href="#DejaVuSans-6e" x="818.449219"/>
      <use xlink:href="#DejaVuSans-63" x="881.828125"/>
      <use xlink:href="#DejaVuSans-65" x="936.808594"/>
     </g>
    </g>
   </g>
   <g id="patch_33">
    <path d="M 59.4 279.294545 
L 59.4 42.84 
" style="fill: none; stroke: #000000; stroke-width: 0.8; stroke-linejoin: miter; stroke-linecap: square"/>
   </g>
   <g id="patch_34">
    <path d="M 257.4 279.294545 
L 257.4 42.84 
" style="fill: none; stroke: #000000; stroke-width: 0.8; stroke-linejoin: miter; stroke-linecap: square"/>
   </g>
   <g id="patch_35">
    <path d="M 59.4 279.294545 
L 257.4 279.294545 
" style="fill: none; stroke: #000000; stroke-width: 0.8; stroke-linejoin: miter; stroke-linecap: square"/>
   </g>
   <g id="patch_36">
    <path d="M 59.4 42.84 
L 257.4 42.84 
" style="fill: none; stroke: #000000; stroke-width: 0.8; stroke-linejoin: miter; stroke-linecap: square"/>
   </g>
   <g id="text_11">
    <!-- Cape Town -->
    <g transform="translate(109.950469 36.84) scale(0.18 -0.18)">
     <defs>
      <path id="DejaVuSans-43" d="M 4122 4306 
L 4122 3641 
Q 3803 3938 3442 4084 
Q 3081 4231 2675 4231 
Q 1875 4231 1450 3742 
Q 1025 3253 1025 2328 
Q 1025 1406 1450 917 
Q 1875 428 2675 428 
Q 3081 428 3442 575 
Q 3803 722 4122 1019 
L 4122 359 
Q 3791 134 3420 21 
Q 3050 -91 2638 -91 
Q 1578 -91 968 557 
Q 359 1206 359 2328 
Q 359 3453 968 4101 
Q 1578 4750 2638 4750 
Q 3056 4750 3426 4639 
Q 3797 4528 4122 4306 
z
" transform="scale(0.015625)"/>
      <path id="DejaVuSans-70" d="M 1159 525 
L 1159 -1331 
L 581 -1331 
L 581 3500 
L 1159 3500 
L 1159 2969 
Q 1341 3281 1617 3432 
Q 1894 3584 2278 3584 
Q 2916 3584 3314 3078 
Q 3713 2572 3713 1747 
Q 3713 922 3314 415 
Q 2916 -91 2278 -91 
Q 1894 -91 1617 61 
Q 1341 213 1159 525 
z
M 3116 1747 
Q 3116 2381 2855 2742 
Q 2594 3103 2138 3103 
Q 1681 3103 1420 2742 
Q 1159 2381 1159 1747 
Q 1159 1113 1420 752 
Q 1681 391 2138 391 
Q 2594 391 2855 752 
Q 3116 1113 3116 1747 
z
" transform="scale(0.015625)"/>
      <path id="DejaVuSans-54" d="M -19 4666 
L 3928 4666 
L 3928 4134 
L 2272 4134 
L 2272 0 
L 1638 0 
L 1638 4134 
L -19 4134 
L -19 4666 
z
" transform="scale(0.015625)"/>
      <path id="DejaVuSans-6f" d="M 1959 3097 
Q 1497 3097 1228 2736 
Q 959 2375 959 1747 
Q 959 1119 1226 758 
Q 1494 397 1959 397 
Q 2419 397 2687 759 
Q 2956 1122 2956 1747 
Q 2956 2369 2687 2733 
Q 2419 3097 1959 3097 
z
M 1959 3584 
Q 2709 3584 3137 3096 
Q 3566 2609 3566 1747 
Q 3566 888 3137 398 
Q 2709 -91 1959 -91 
Q 1206 -91 779 398 
Q 353 888 353 1747 
Q 353 2609 779 3096 
Q 1206 3584 1959 3584 
z
" transform="scale(0.015625)"/>
      <path id="DejaVuSans-77" d="M 269 3500 
L 844 3500 
L 1563 769 
L 2278 3500 
L 2956 3500 
L 3675 769 
L 4391 3500 
L 4966 3500 
L 4050 0 
L 3372 0 
L 2619 2869 
L 1863 0 
L 1184 0 
L 269 3500 
z
" transform="scale(0.015625)"/>
     </defs>
     <use xlink:href="#DejaVuSans-43"/>
     <use xlink:href="#DejaVuSans-61" x="69.824219"/>
     <use xlink:href="#DejaVuSans-70" x="131.103516"/>
     <use xlink:href="#DejaVuSans-65" x="194.580078"/>
     <use xlink:href="#DejaVuSans-20" x="256.103516"/>
     <use xlink:href="#DejaVuSans-54" x="287.890625"/>
     <use xlink:href="#DejaVuSans-6f" x="331.974609"/>
     <use xlink:href="#DejaVuSans-77" x="393.15625"/>
     <use xlink:href="#DejaVuSans-6e" x="474.943359"/>
    </g>
   </g>
  </g>
  <g id="axes_2">
   <g id="patch_37">
    <path d="M 59.4 563.04 
L 257.4 563.04 
L 257.4 326.585455 
L 59.4 326.585455 
z
" style="fill: #ffffff"/>
   </g>
   <g id="patch_38">
    <path d="M 69.821053 563.04 
L 132.347368 563.04 
L 132.347368 437.969145 
L 69.821053 437.969145 
z
" clip-path="url(#pcd02ae81e4)" style="fill: #ff0000"/>
   </g>
   <g id="patch_39">
    <path d="M 174.031579 563.04 
L 236.557895 563.04 
L 236.557895 469.535857 
L 174.031579 469.535857 
z
" clip-path="url(#pcd02ae81e4)" style="fill: #ff0000"/>
   </g>
   <g id="patch_40">
    <path d="M 69.821053 437.969145 
L 132.347368 437.969145 
L 132.347368 407.480688 
L 69.821053 407.480688 
z
" clip-path="url(#pcd02ae81e4)" style="fill: #e6e6fa"/>
   </g>
   <g id="patch_41">
    <path d="M 174.031579 469.535857 
L 236.557895 469.535857 
L 236.557895 426.851389 
L 174.031579 426.851389 
z
" clip-path="url(#pcd02ae81e4)" style="fill: #e6e6fa"/>
   </g>
   <g id="patch_42">
    <path d="M 69.821053 407.480688 
L 132.347368 407.480688 
L 132.347368 380.143369 
L 69.821053 380.143369 
z
" clip-path="url(#pcd02ae81e4)" style="fill: #a5d8ff"/>
   </g>
   <g id="patch_43">
    <path d="M 174.031579 426.851389 
L 236.557895 426.851389 
L 236.557895 406.958877 
L 174.031579 406.958877 
z
" clip-path="url(#pcd02ae81e4)" style="fill: #a5d8ff"/>
   </g>
   <g id="patch_44">
    <path d="M 69.821053 380.143369 
L 132.347368 380.143369 
L 132.347368 372.723951 
L 69.821053 372.723951 
z
" clip-path="url(#pcd02ae81e4)"/>
   </g>
   <g id="patch_45">
    <path d="M 174.031579 406.958877 
L 236.557895 406.958877 
L 236.557895 386.137141 
L 174.031579 386.137141 
z
" clip-path="url(#pcd02ae81e4)"/>
   </g>
   <g id="patch_46">
    <path d="M 69.821053 372.723951 
L 132.347368 372.723951 
L 132.347368 362.403768 
L 69.821053 362.403768 
z
" clip-path="url(#pcd02ae81e4)" style="fill: #d4a5a5"/>
   </g>
   <g id="patch_47">
    <path d="M 174.031579 386.137141 
L 236.557895 386.137141 
L 236.557895 376.256988 
L 174.031579 376.256988 
z
" clip-path="url(#pcd02ae81e4)" style="fill: #d4a5a5"/>
   </g>
   <g id="patch_48">
    <path d="M 69.821053 362.403768 
L 132.347368 362.403768 
L 132.347368 360.091766 
L 69.821053 360.091766 
z
" clip-path="url(#pcd02ae81e4)" style="fill: #f7c59f"/>
   </g>
   <g id="patch_49">
    <path d="M 174.031579 376.256988 
L 236.557895 376.256988 
L 236.557895 370.944943 
L 174.031579 370.944943 
z
" clip-path="url(#pcd02ae81e4)" style="fill: #f7c59f"/>
   </g>
   <g id="patch_50">
    <path d="M 69.821053 360.091766 
L 132.347368 360.091766 
L 132.347368 356.179318 
L 69.821053 356.179318 
z
" clip-path="url(#pcd02ae81e4)" style="fill: #b0d9b1"/>
   </g>
   <g id="patch_51">
    <path d="M 174.031579 370.944943 
L 236.557895 370.944943 
L 236.557895 369.771419 
L 174.031579 369.771419 
z
" clip-path="url(#pcd02ae81e4)" style="fill: #b0d9b1"/>
   </g>
   <g id="patch_52">
    <path d="M 69.821053 563.04 
L 132.347368 563.04 
L 132.347368 563.04 
L 69.821053 563.04 
z
" clip-path="url(#pcd02ae81e4)" style="fill: #add8e6"/>
   </g>
   <g id="patch_53">
    <path d="M 174.031579 369.771419 
L 236.557895 369.771419 
L 236.557895 364.028951 
L 174.031579 364.028951 
z
" clip-path="url(#pcd02ae81e4)" style="fill: #add8e6"/>
   </g>
   <g id="patch_54">
    <path d="M 69.821053 356.179318 
L 132.347368 356.179318 
L 132.347368 355.137369 
L 69.821053 355.137369 
z
" clip-path="url(#pcd02ae81e4)" style="fill: #a5c9a1"/>
   </g>
   <g id="patch_55">
    <path d="M 174.031579 364.028951 
L 236.557895 364.028951 
L 236.557895 362.390037 
L 174.031579 362.390037 
z
" clip-path="url(#pcd02ae81e4)" style="fill: #a5c9a1"/>
   </g>
   <g id="patch_56">
    <path d="M 69.821053 355.137369 
L 132.347368 355.137369 
L 132.347368 354.095447 
L 69.821053 354.095447 
z
" clip-path="url(#pcd02ae81e4)" style="fill: #fa5f55"/>
   </g>
   <g id="patch_57">
    <path d="M 174.031579 362.390037 
L 236.557895 362.390037 
L 236.557895 361.051374 
L 174.031579 361.051374 
z
" clip-path="url(#pcd02ae81e4)" style="fill: #fa5f55"/>
   </g>
   <g id="patch_58">
    <path d="M 69.821053 354.095447 
L 132.347368 354.095447 
L 132.347368 353.726128 
L 69.821053 353.726128 
z
" clip-path="url(#pcd02ae81e4)" style="fill: #ffe59a"/>
   </g>
   <g id="patch_59">
    <path d="M 174.031579 361.051374 
L 236.557895 361.051374 
L 236.557895 359.384406 
L 174.031579 359.384406 
z
" clip-path="url(#pcd02ae81e4)" style="fill: #ffe59a"/>
   </g>
   <g id="patch_60">
    <path d="M 69.821053 353.726128 
L 132.347368 353.726128 
L 132.347368 352.182768 
L 69.821053 352.182768 
z
" clip-path="url(#pcd02ae81e4)" style="fill: #a5c9a1"/>
   </g>
   <g id="patch_61">
    <path d="M 174.031579 359.384406 
L 236.557895 359.384406 
L 236.557895 358.971146 
L 174.031579 358.971146 
z
" clip-path="url(#pcd02ae81e4)" style="fill: #a5c9a1"/>
   </g>
   <g id="patch_62">
    <path d="M 69.821053 352.182768 
L 132.347368 352.182768 
L 132.347368 350.861607 
L 69.821053 350.861607 
z
" clip-path="url(#pcd02ae81e4)" style="fill: #ccccff"/>
   </g>
   <g id="patch_63">
    <path d="M 174.031579 358.971146 
L 236.557895 358.971146 
L 236.557895 358.343508 
L 174.031579 358.343508 
z
" clip-path="url(#pcd02ae81e4)" style="fill: #ccccff"/>
   </g>
   <g id="patch_64">
    <path d="M 69.821053 350.861607 
L 132.347368 350.861607 
L 132.347368 350.675446 
L 69.821053 350.675446 
z
" clip-path="url(#pcd02ae81e4)" style="fill: #fadadd"/>
   </g>
   <g id="patch_65">
    <path d="M 174.031579 358.343508 
L 236.557895 358.343508 
L 236.557895 356.658944 
L 174.031579 356.658944 
z
" clip-path="url(#pcd02ae81e4)" style="fill: #fadadd"/>
   </g>
   <g id="patch_66">
    <path d="M 69.821053 350.675446 
L 132.347368 350.675446 
L 132.347368 337.845195 
L 69.821053 337.845195 
z
" clip-path="url(#pcd02ae81e4)" style="fill: #d9d9d9"/>
   </g>
   <g id="patch_67">
    <path d="M 174.031579 356.658944 
L 236.557895 356.658944 
L 236.557895 337.845195 
L 174.031579 337.845195 
z
" clip-path="url(#pcd02ae81e4)" style="fill: #d9d9d9"/>
   </g>
   <g id="matplotlib.axis_3">
    <g id="xtick_3">
     <g id="line2d_9">
      <g>
       <use xlink:href="#m9cb467216c" x="101.084211" y="563.04" style="stroke: #000000; stroke-width: 0.8"/>
      </g>
     </g>
     <g id="text_12">
      <!-- H (n=25) -->
      <g transform="translate(68.923586 580.677812) scale(0.14 -0.14)">
       <defs>
        <path id="DejaVuSans-35" d="M 691 4666 
L 3169 4666 
L 3169 4134 
L 1269 4134 
L 1269 2991 
Q 1406 3038 1543 3061 
Q 1681 3084 1819 3084 
Q 2600 3084 3056 2656 
Q 3513 2228 3513 1497 
Q 3513 744 3044 326 
Q 2575 -91 1722 -91 
Q 1428 -91 1123 -41 
Q 819 9 494 109 
L 494 744 
Q 775 591 1075 516 
Q 1375 441 1709 441 
Q 2250 441 2565 725 
Q 2881 1009 2881 1497 
Q 2881 1984 2565 2268 
Q 2250 2553 1709 2553 
Q 1456 2553 1204 2497 
Q 953 2441 691 2322 
L 691 4666 
z
" transform="scale(0.015625)"/>
       </defs>
       <use xlink:href="#DejaVuSans-48"/>
       <use xlink:href="#DejaVuSans-20" x="75.195312"/>
       <use xlink:href="#DejaVuSans-28" x="106.982422"/>
       <use xlink:href="#DejaVuSans-6e" x="145.996094"/>
       <use xlink:href="#DejaVuSans-3d" x="209.375"/>
       <use xlink:href="#DejaVuSans-32" x="293.164062"/>
       <use xlink:href="#DejaVuSans-35" x="356.787109"/>
       <use xlink:href="#DejaVuSans-29" x="420.410156"/>
      </g>
     </g>
    </g>
    <g id="xtick_4">
     <g id="line2d_10">
      <g>
       <use xlink:href="#m9cb467216c" x="205.294737" y="563.04" style="stroke: #000000; stroke-width: 0.8"/>
      </g>
     </g>
     <g id="text_13">
      <!-- AD (n=34) -->
      <g transform="translate(168.219893 580.677812) scale(0.14 -0.14)">
       <defs>
        <path id="DejaVuSans-33" d="M 2597 2516 
Q 3050 2419 3304 2112 
Q 3559 1806 3559 1356 
Q 3559 666 3084 287 
Q 2609 -91 1734 -91 
Q 1441 -91 1130 -33 
Q 819 25 488 141 
L 488 750 
Q 750 597 1062 519 
Q 1375 441 1716 441 
Q 2309 441 2620 675 
Q 2931 909 2931 1356 
Q 2931 1769 2642 2001 
Q 2353 2234 1838 2234 
L 1294 2234 
L 1294 2753 
L 1863 2753 
Q 2328 2753 2575 2939 
Q 2822 3125 2822 3475 
Q 2822 3834 2567 4026 
Q 2313 4219 1838 4219 
Q 1578 4219 1281 4162 
Q 984 4106 628 3988 
L 628 4550 
Q 988 4650 1302 4700 
Q 1616 4750 1894 4750 
Q 2613 4750 3031 4423 
Q 3450 4097 3450 3541 
Q 3450 3153 3228 2886 
Q 3006 2619 2597 2516 
z
" transform="scale(0.015625)"/>
       </defs>
       <use xlink:href="#DejaVuSans-41"/>
       <use xlink:href="#DejaVuSans-44" x="68.408203"/>
       <use xlink:href="#DejaVuSans-20" x="145.410156"/>
       <use xlink:href="#DejaVuSans-28" x="177.197266"/>
       <use xlink:href="#DejaVuSans-6e" x="216.210938"/>
       <use xlink:href="#DejaVuSans-3d" x="279.589844"/>
       <use xlink:href="#DejaVuSans-33" x="363.378906"/>
       <use xlink:href="#DejaVuSans-34" x="427.001953"/>
       <use xlink:href="#DejaVuSans-29" x="490.625"/>
      </g>
     </g>
    </g>
   </g>
   <g id="matplotlib.axis_4">
    <g id="ytick_7">
     <g id="line2d_11">
      <g>
       <use xlink:href="#m8334f84cc9" x="59.4" y="563.04" style="stroke: #000000; stroke-width: 0.8"/>
      </g>
     </g>
     <g id="text_14">
      <!-- 0.0 -->
      <g transform="translate(36.496875 566.839219) scale(0.1 -0.1)">
       <use xlink:href="#DejaVuSans-30"/>
       <use xlink:href="#DejaVuSans-2e" x="63.623047"/>
       <use xlink:href="#DejaVuSans-30" x="95.410156"/>
      </g>
     </g>
    </g>
    <g id="ytick_8">
     <g id="line2d_12">
      <g>
       <use xlink:href="#m8334f84cc9" x="59.4" y="518.001039" style="stroke: #000000; stroke-width: 0.8"/>
      </g>
     </g>
     <g id="text_15">
      <!-- 0.2 -->
      <g transform="translate(36.496875 521.800258) scale(0.1 -0.1)">
       <use xlink:href="#DejaVuSans-30"/>
       <use xlink:href="#DejaVuSans-2e" x="63.623047"/>
       <use xlink:href="#DejaVuSans-32" x="95.410156"/>
      </g>
     </g>
    </g>
    <g id="ytick_9">
     <g id="line2d_13">
      <g>
       <use xlink:href="#m8334f84cc9" x="59.4" y="472.962078" style="stroke: #000000; stroke-width: 0.8"/>
      </g>
     </g>
     <g id="text_16">
      <!-- 0.4 -->
      <g transform="translate(36.496875 476.761297) scale(0.1 -0.1)">
       <use xlink:href="#DejaVuSans-30"/>
       <use xlink:href="#DejaVuSans-2e" x="63.623047"/>
       <use xlink:href="#DejaVuSans-34" x="95.410156"/>
      </g>
     </g>
    </g>
    <g id="ytick_10">
     <g id="line2d_14">
      <g>
       <use xlink:href="#m8334f84cc9" x="59.4" y="427.923117" style="stroke: #000000; stroke-width: 0.8"/>
      </g>
     </g>
     <g id="text_17">
      <!-- 0.6 -->
      <g transform="translate(36.496875 431.722336) scale(0.1 -0.1)">
       <use xlink:href="#DejaVuSans-30"/>
       <use xlink:href="#DejaVuSans-2e" x="63.623047"/>
       <use xlink:href="#DejaVuSans-36" x="95.410156"/>
      </g>
     </g>
    </g>
    <g id="ytick_11">
     <g id="line2d_15">
      <g>
       <use xlink:href="#m8334f84cc9" x="59.4" y="382.884156" style="stroke: #000000; stroke-width: 0.8"/>
      </g>
     </g>
     <g id="text_18">
      <!-- 0.8 -->
      <g transform="translate(36.496875 386.683375) scale(0.1 -0.1)">
       <use xlink:href="#DejaVuSans-30"/>
       <use xlink:href="#DejaVuSans-2e" x="63.623047"/>
       <use xlink:href="#DejaVuSans-38" x="95.410156"/>
      </g>
     </g>
    </g>
    <g id="ytick_12">
     <g id="line2d_16">
      <g>
       <use xlink:href="#m8334f84cc9" x="59.4" y="337.845195" style="stroke: #000000; stroke-width: 0.8"/>
      </g>
     </g>
     <g id="text_19">
      <!-- 1.0 -->
      <g transform="translate(36.496875 341.644414) scale(0.1 -0.1)">
       <use xlink:href="#DejaVuSans-31"/>
       <use xlink:href="#DejaVuSans-2e" x="63.623047"/>
       <use xlink:href="#DejaVuSans-30" x="95.410156"/>
      </g>
     </g>
    </g>
    <g id="text_20">
     <!-- Relative Abundance -->
     <g transform="translate(29.585312 514.697884) rotate(-90) scale(0.14 -0.14)">
      <use xlink:href="#DejaVuSans-52"/>
      <use xlink:href="#DejaVuSans-65" x="64.982422"/>
      <use xlink:href="#DejaVuSans-6c" x="126.505859"/>
      <use xlink:href="#DejaVuSans-61" x="154.289062"/>
      <use xlink:href="#DejaVuSans-74" x="215.568359"/>
      <use xlink:href="#DejaVuSans-69" x="254.777344"/>
      <use xlink:href="#DejaVuSans-76" x="282.560547"/>
      <use xlink:href="#DejaVuSans-65" x="341.740234"/>
      <use xlink:href="#DejaVuSans-20" x="403.263672"/>
      <use xlink:href="#DejaVuSans-41" x="435.050781"/>
      <use xlink:href="#DejaVuSans-62" x="503.458984"/>
      <use xlink:href="#DejaVuSans-75" x="566.935547"/>
      <use xlink:href="#DejaVuSans-6e" x="630.314453"/>
      <use xlink:href="#DejaVuSans-64" x="693.693359"/>
      <use xlink:href="#DejaVuSans-61" x="757.169922"/>
      <use xlink:href="#DejaVuSans-6e" x="818.449219"/>
      <use xlink:href="#DejaVuSans-63" x="881.828125"/>
      <use xlink:href="#DejaVuSans-65" x="936.808594"/>
     </g>
    </g>
   </g>
   <g id="patch_68">
    <path d="M 59.4 563.04 
L 59.4 326.585455 
" style="fill: none; stroke: #000000; stroke-width: 0.8; stroke-linejoin: miter; stroke-linecap: square"/>
   </g>
   <g id="patch_69">
    <path d="M 257.4 563.04 
L 257.4 326.585455 
" style="fill: none; stroke: #000000; stroke-width: 0.8; stroke-linejoin: miter; stroke-linecap: square"/>
   </g>
   <g id="patch_70">
    <path d="M 59.4 563.04 
L 257.4 563.04 
" style="fill: none; stroke: #000000; stroke-width: 0.8; stroke-linejoin: miter; stroke-linecap: square"/>
   </g>
   <g id="patch_71">
    <path d="M 59.4 326.585455 
L 257.4 326.585455 
" style="fill: none; stroke: #000000; stroke-width: 0.8; stroke-linejoin: miter; stroke-linecap: square"/>
   </g>
   <g id="text_21">
    <!-- Umtata -->
    <g transform="translate(124.959375 320.585455) scale(0.18 -0.18)">
     <defs>
      <path id="DejaVuSans-55" d="M 556 4666 
L 1191 4666 
L 1191 1831 
Q 1191 1081 1462 751 
Q 1734 422 2344 422 
Q 2950 422 3222 751 
Q 3494 1081 3494 1831 
L 3494 4666 
L 4128 4666 
L 4128 1753 
Q 4128 841 3676 375 
Q 3225 -91 2344 -91 
Q 1459 -91 1007 375 
Q 556 841 556 1753 
L 556 4666 
z
" transform="scale(0.015625)"/>
      <path id="DejaVuSans-6d" d="M 3328 2828 
Q 3544 3216 3844 3400 
Q 4144 3584 4550 3584 
Q 5097 3584 5394 3201 
Q 5691 2819 5691 2113 
L 5691 0 
L 5113 0 
L 5113 2094 
Q 5113 2597 4934 2840 
Q 4756 3084 4391 3084 
Q 3944 3084 3684 2787 
Q 3425 2491 3425 1978 
L 3425 0 
L 2847 0 
L 2847 2094 
Q 2847 2600 2669 2842 
Q 2491 3084 2119 3084 
Q 1678 3084 1418 2786 
Q 1159 2488 1159 1978 
L 1159 0 
L 581 0 
L 581 3500 
L 1159 3500 
L 1159 2956 
Q 1356 3278 1631 3431 
Q 1906 3584 2284 3584 
Q 2666 3584 2933 3390 
Q 3200 3197 3328 2828 
z
" transform="scale(0.015625)"/>
     </defs>
     <use xlink:href="#DejaVuSans-55"/>
     <use xlink:href="#DejaVuSans-6d" x="73.193359"/>
     <use xlink:href="#DejaVuSans-74" x="170.605469"/>
     <use xlink:href="#DejaVuSans-61" x="209.814453"/>
     <use xlink:href="#DejaVuSans-74" x="271.09375"/>
     <use xlink:href="#DejaVuSans-61" x="310.302734"/>
    </g>
   </g>
  </g>
  <g id="text_22">
   <!-- Relative Abundance Nares -->
   <g transform="translate(66.128125 9.076875) scale(0.2 -0.2)">
    <defs>
     <path id="DejaVuSans-4e" d="M 628 4666 
L 1478 4666 
L 3547 763 
L 3547 4666 
L 4159 4666 
L 4159 0 
L 3309 0 
L 1241 3903 
L 1241 0 
L 628 0 
L 628 4666 
z
" transform="scale(0.015625)"/>
     <path id="DejaVuSans-72" d="M 2631 2963 
Q 2534 3019 2420 3045 
Q 2306 3072 2169 3072 
Q 1681 3072 1420 2755 
Q 1159 2438 1159 1844 
L 1159 0 
L 581 0 
L 581 3500 
L 1159 3500 
L 1159 2956 
Q 1341 3275 1631 3429 
Q 1922 3584 2338 3584 
Q 2397 3584 2469 3576 
Q 2541 3569 2628 3553 
L 2631 2963 
z
" transform="scale(0.015625)"/>
     <path id="DejaVuSans-73" d="M 2834 3397 
L 2834 2853 
Q 2591 2978 2328 3040 
Q 2066 3103 1784 3103 
Q 1356 3103 1142 2972 
Q 928 2841 928 2578 
Q 928 2378 1081 2264 
Q 1234 2150 1697 2047 
L 1894 2003 
Q 2506 1872 2764 1633 
Q 3022 1394 3022 966 
Q 3022 478 2636 193 
Q 2250 -91 1575 -91 
Q 1294 -91 989 -36 
Q 684 19 347 128 
L 347 722 
Q 666 556 975 473 
Q 1284 391 1588 391 
Q 1994 391 2212 530 
Q 2431 669 2431 922 
Q 2431 1156 2273 1281 
Q 2116 1406 1581 1522 
L 1381 1569 
Q 847 1681 609 1914 
Q 372 2147 372 2553 
Q 372 3047 722 3315 
Q 1072 3584 1716 3584 
Q 2034 3584 2315 3537 
Q 2597 3491 2834 3397 
z
" transform="scale(0.015625)"/>
    </defs>
    <use xlink:href="#DejaVuSans-52"/>
    <use xlink:href="#DejaVuSans-65" x="64.982422"/>
    <use xlink:href="#DejaVuSans-6c" x="126.505859"/>
    <use xlink:href="#DejaVuSans-61" x="154.289062"/>
    <use xlink:href="#DejaVuSans-74" x="215.568359"/>
    <use xlink:href="#DejaVuSans-69" x="254.777344"/>
    <use xlink:href="#DejaVuSans-76" x="282.560547"/>
    <use xlink:href="#DejaVuSans-65" x="341.740234"/>
    <use xlink:href="#DejaVuSans-20" x="403.263672"/>
    <use xlink:href="#DejaVuSans-41" x="435.050781"/>
    <use xlink:href="#DejaVuSans-62" x="503.458984"/>
    <use xlink:href="#DejaVuSans-75" x="566.935547"/>
    <use xlink:href="#DejaVuSans-6e" x="630.314453"/>
    <use xlink:href="#DejaVuSans-64" x="693.693359"/>
    <use xlink:href="#DejaVuSans-61" x="757.169922"/>
    <use xlink:href="#DejaVuSans-6e" x="818.449219"/>
    <use xlink:href="#DejaVuSans-63" x="881.828125"/>
    <use xlink:href="#DejaVuSans-65" x="936.808594"/>
    <use xlink:href="#DejaVuSans-20" x="998.332031"/>
    <use xlink:href="#DejaVuSans-4e" x="1030.119141"/>
    <use xlink:href="#DejaVuSans-61" x="1104.923828"/>
    <use xlink:href="#DejaVuSans-72" x="1166.203125"/>
    <use xlink:href="#DejaVuSans-65" x="1205.066406"/>
    <use xlink:href="#DejaVuSans-73" x="1266.589844"/>
   </g>
  </g>
  <g id="legend_1">
   <g id="patch_72">
    <path d="M 265.8 452.014062 
L 472.678125 452.014062 
Q 475.078125 452.014062 475.078125 449.614062 
L 475.078125 162.385938 
Q 475.078125 159.985938 472.678125 159.985938 
L 265.8 159.985938 
Q 263.4 159.985938 263.4 162.385938 
L 263.4 449.614062 
Q 263.4 452.014062 265.8 452.014062 
z
" style="fill: #ffffff; opacity: 0.8; stroke: #cccccc; stroke-linejoin: miter"/>
   </g>
   <g id="text_23">
    <!-- Genus -->
    <g transform="translate(346.988906 175.42375) scale(0.14 -0.14)">
     <defs>
      <path id="DejaVuSans-47" d="M 3809 666 
L 3809 1919 
L 2778 1919 
L 2778 2438 
L 4434 2438 
L 4434 434 
Q 4069 175 3628 42 
Q 3188 -91 2688 -91 
Q 1594 -91 976 548 
Q 359 1188 359 2328 
Q 359 3472 976 4111 
Q 1594 4750 2688 4750 
Q 3144 4750 3555 4637 
Q 3966 4525 4313 4306 
L 4313 3634 
Q 3963 3931 3569 4081 
Q 3175 4231 2741 4231 
Q 1884 4231 1454 3753 
Q 1025 3275 1025 2328 
Q 1025 1384 1454 906 
Q 1884 428 2741 428 
Q 3075 428 3337 486 
Q 3600 544 3809 666 
z
" transform="scale(0.015625)"/>
     </defs>
     <use xlink:href="#DejaVuSans-47"/>
     <use xlink:href="#DejaVuSans-65" x="77.490234"/>
     <use xlink:href="#DejaVuSans-6e" x="139.013672"/>
     <use xlink:href="#DejaVuSans-75" x="202.392578"/>
     <use xlink:href="#DejaVuSans-73" x="265.771484"/>
    </g>
   </g>
   <g id="patch_73">
    <path d="M 268.2 193.453438 
L 292.2 193.453438 
L 292.2 185.053438 
L 268.2 185.053438 
z
" style="fill: #ff0000"/>
   </g>
   <g id="text_24">
    <!-- g__Streptococcus -->
    <g transform="translate(301.8 193.453438) scale(0.12 -0.12)">
     <defs>
      <path id="DejaVuSans-67" d="M 2906 1791 
Q 2906 2416 2648 2759 
Q 2391 3103 1925 3103 
Q 1463 3103 1205 2759 
Q 947 2416 947 1791 
Q 947 1169 1205 825 
Q 1463 481 1925 481 
Q 2391 481 2648 825 
Q 2906 1169 2906 1791 
z
M 3481 434 
Q 3481 -459 3084 -895 
Q 2688 -1331 1869 -1331 
Q 1566 -1331 1297 -1286 
Q 1028 -1241 775 -1147 
L 775 -588 
Q 1028 -725 1275 -790 
Q 1522 -856 1778 -856 
Q 2344 -856 2625 -561 
Q 2906 -266 2906 331 
L 2906 616 
Q 2728 306 2450 153 
Q 2172 0 1784 0 
Q 1141 0 747 490 
Q 353 981 353 1791 
Q 353 2603 747 3093 
Q 1141 3584 1784 3584 
Q 2172 3584 2450 3431 
Q 2728 3278 2906 2969 
L 2906 3500 
L 3481 3500 
L 3481 434 
z
" transform="scale(0.015625)"/>
      <path id="DejaVuSans-5f" d="M 3263 -1063 
L 3263 -1509 
L -63 -1509 
L -63 -1063 
L 3263 -1063 
z
" transform="scale(0.015625)"/>
      <path id="DejaVuSans-53" d="M 3425 4513 
L 3425 3897 
Q 3066 4069 2747 4153 
Q 2428 4238 2131 4238 
Q 1616 4238 1336 4038 
Q 1056 3838 1056 3469 
Q 1056 3159 1242 3001 
Q 1428 2844 1947 2747 
L 2328 2669 
Q 3034 2534 3370 2195 
Q 3706 1856 3706 1288 
Q 3706 609 3251 259 
Q 2797 -91 1919 -91 
Q 1588 -91 1214 -16 
Q 841 59 441 206 
L 441 856 
Q 825 641 1194 531 
Q 1563 422 1919 422 
Q 2459 422 2753 634 
Q 3047 847 3047 1241 
Q 3047 1584 2836 1778 
Q 2625 1972 2144 2069 
L 1759 2144 
Q 1053 2284 737 2584 
Q 422 2884 422 3419 
Q 422 4038 858 4394 
Q 1294 4750 2059 4750 
Q 2388 4750 2728 4690 
Q 3069 4631 3425 4513 
z
" transform="scale(0.015625)"/>
     </defs>
     <use xlink:href="#DejaVuSans-67"/>
     <use xlink:href="#DejaVuSans-5f" x="63.476562"/>
     <use xlink:href="#DejaVuSans-5f" x="113.476562"/>
     <use xlink:href="#DejaVuSans-53" x="163.476562"/>
     <use xlink:href="#DejaVuSans-74" x="226.953125"/>
     <use xlink:href="#DejaVuSans-72" x="266.162109"/>
     <use xlink:href="#DejaVuSans-65" x="305.025391"/>
     <use xlink:href="#DejaVuSans-70" x="366.548828"/>
     <use xlink:href="#DejaVuSans-74" x="430.025391"/>
     <use xlink:href="#DejaVuSans-6f" x="469.234375"/>
     <use xlink:href="#DejaVuSans-63" x="530.416016"/>
     <use xlink:href="#DejaVuSans-6f" x="585.396484"/>
     <use xlink:href="#DejaVuSans-63" x="646.578125"/>
     <use xlink:href="#DejaVuSans-63" x="701.558594"/>
     <use xlink:href="#DejaVuSans-75" x="756.539062"/>
     <use xlink:href="#DejaVuSans-73" x="819.917969"/>
    </g>
   </g>
   <g id="patch_74">
    <path d="M 268.2 211.400938 
L 292.2 211.400938 
L 292.2 203.000938 
L 268.2 203.000938 
z
" style="fill: #e6e6fa"/>
   </g>
   <g id="text_25">
    <!-- g__Haemophilus_D_734546 -->
    <g transform="translate(301.8 211.400938) scale(0.12 -0.12)">
     <defs>
      <path id="DejaVuSans-68" d="M 3513 2113 
L 3513 0 
L 2938 0 
L 2938 2094 
Q 2938 2591 2744 2837 
Q 2550 3084 2163 3084 
Q 1697 3084 1428 2787 
Q 1159 2491 1159 1978 
L 1159 0 
L 581 0 
L 581 4863 
L 1159 4863 
L 1159 2956 
Q 1366 3272 1645 3428 
Q 1925 3584 2291 3584 
Q 2894 3584 3203 3211 
Q 3513 2838 3513 2113 
z
" transform="scale(0.015625)"/>
     </defs>
     <use xlink:href="#DejaVuSans-67"/>
     <use xlink:href="#DejaVuSans-5f" x="63.476562"/>
     <use xlink:href="#DejaVuSans-5f" x="113.476562"/>
     <use xlink:href="#DejaVuSans-48" x="163.476562"/>
     <use xlink:href="#DejaVuSans-61" x="238.671875"/>
     <use xlink:href="#DejaVuSans-65" x="299.951172"/>
     <use xlink:href="#DejaVuSans-6d" x="361.474609"/>
     <use xlink:href="#DejaVuSans-6f" x="458.886719"/>
     <use xlink:href="#DejaVuSans-70" x="520.068359"/>
     <use xlink:href="#DejaVuSans-68" x="583.544922"/>
     <use xlink:href="#DejaVuSans-69" x="646.923828"/>
     <use xlink:href="#DejaVuSans-6c" x="674.707031"/>
     <use xlink:href="#DejaVuSans-75" x="702.490234"/>
     <use xlink:href="#DejaVuSans-73" x="765.869141"/>
     <use xlink:href="#DejaVuSans-5f" x="817.96875"/>
     <use xlink:href="#DejaVuSans-44" x="867.96875"/>
     <use xlink:href="#DejaVuSans-5f" x="944.970703"/>
     <use xlink:href="#DejaVuSans-37" x="994.970703"/>
     <use xlink:href="#DejaVuSans-33" x="1058.59375"/>
     <use xlink:href="#DejaVuSans-34" x="1122.216797"/>
     <use xlink:href="#DejaVuSans-35" x="1185.839844"/>
     <use xlink:href="#DejaVuSans-34" x="1249.462891"/>
     <use xlink:href="#DejaVuSans-36" x="1313.085938"/>
    </g>
   </g>
   <g id="patch_75">
    <path d="M 268.2 229.348438 
L 292.2 229.348438 
L 292.2 220.948438 
L 268.2 220.948438 
z
" style="fill: #a5d8ff"/>
   </g>
   <g id="text_26">
    <!-- g__Corynebacterium -->
    <g transform="translate(301.8 229.348438) scale(0.12 -0.12)">
     <defs>
      <path id="DejaVuSans-79" d="M 2059 -325 
Q 1816 -950 1584 -1140 
Q 1353 -1331 966 -1331 
L 506 -1331 
L 506 -850 
L 844 -850 
Q 1081 -850 1212 -737 
Q 1344 -625 1503 -206 
L 1606 56 
L 191 3500 
L 800 3500 
L 1894 763 
L 2988 3500 
L 3597 3500 
L 2059 -325 
z
" transform="scale(0.015625)"/>
     </defs>
     <use xlink:href="#DejaVuSans-67"/>
     <use xlink:href="#DejaVuSans-5f" x="63.476562"/>
     <use xlink:href="#DejaVuSans-5f" x="113.476562"/>
     <use xlink:href="#DejaVuSans-43" x="163.476562"/>
     <use xlink:href="#DejaVuSans-6f" x="233.300781"/>
     <use xlink:href="#DejaVuSans-72" x="294.482422"/>
     <use xlink:href="#DejaVuSans-79" x="335.595703"/>
     <use xlink:href="#DejaVuSans-6e" x="394.775391"/>
     <use xlink:href="#DejaVuSans-65" x="458.154297"/>
     <use xlink:href="#DejaVuSans-62" x="519.677734"/>
     <use xlink:href="#DejaVuSans-61" x="583.154297"/>
     <use xlink:href="#DejaVuSans-63" x="644.433594"/>
     <use xlink:href="#DejaVuSans-74" x="699.414062"/>
     <use xlink:href="#DejaVuSans-65" x="738.623047"/>
     <use xlink:href="#DejaVuSans-72" x="800.146484"/>
     <use xlink:href="#DejaVuSans-69" x="841.259766"/>
     <use xlink:href="#DejaVuSans-75" x="869.042969"/>
     <use xlink:href="#DejaVuSans-6d" x="932.421875"/>
    </g>
   </g>
   <g id="patch_76">
    <path d="M 268.2 247.295938 
L 292.2 247.295938 
L 292.2 238.895938 
L 268.2 238.895938 
z
"/>
   </g>
   <g id="text_27">
    <!-- g__Staphylococcus -->
    <g transform="translate(301.8 247.295938) scale(0.12 -0.12)">
     <use xlink:href="#DejaVuSans-67"/>
     <use xlink:href="#DejaVuSans-5f" x="63.476562"/>
     <use xlink:href="#DejaVuSans-5f" x="113.476562"/>
     <use xlink:href="#DejaVuSans-53" x="163.476562"/>
     <use xlink:href="#DejaVuSans-74" x="226.953125"/>
     <use xlink:href="#DejaVuSans-61" x="266.162109"/>
     <use xlink:href="#DejaVuSans-70" x="327.441406"/>
     <use xlink:href="#DejaVuSans-68" x="390.917969"/>
     <use xlink:href="#DejaVuSans-79" x="454.296875"/>
     <use xlink:href="#DejaVuSans-6c" x="513.476562"/>
     <use xlink:href="#DejaVuSans-6f" x="541.259766"/>
     <use xlink:href="#DejaVuSans-63" x="602.441406"/>
     <use xlink:href="#DejaVuSans-6f" x="657.421875"/>
     <use xlink:href="#DejaVuSans-63" x="718.603516"/>
     <use xlink:href="#DejaVuSans-63" x="773.583984"/>
     <use xlink:href="#DejaVuSans-75" x="828.564453"/>
     <use xlink:href="#DejaVuSans-73" x="891.943359"/>
    </g>
   </g>
   <g id="patch_77">
    <path d="M 268.2 265.243438 
L 292.2 265.243438 
L 292.2 256.843438 
L 268.2 256.843438 
z
" style="fill: #d4a5a5"/>
   </g>
   <g id="text_28">
    <!-- g__Dolosigranulum -->
    <g transform="translate(301.8 265.243438) scale(0.12 -0.12)">
     <use xlink:href="#DejaVuSans-67"/>
     <use xlink:href="#DejaVuSans-5f" x="63.476562"/>
     <use xlink:href="#DejaVuSans-5f" x="113.476562"/>
     <use xlink:href="#DejaVuSans-44" x="163.476562"/>
     <use xlink:href="#DejaVuSans-6f" x="240.478516"/>
     <use xlink:href="#DejaVuSans-6c" x="301.660156"/>
     <use xlink:href="#DejaVuSans-6f" x="329.443359"/>
     <use xlink:href="#DejaVuSans-73" x="390.625"/>
     <use xlink:href="#DejaVuSans-69" x="442.724609"/>
     <use xlink:href="#DejaVuSans-67" x="470.507812"/>
     <use xlink:href="#DejaVuSans-72" x="533.984375"/>
     <use xlink:href="#DejaVuSans-61" x="575.097656"/>
     <use xlink:href="#DejaVuSans-6e" x="636.376953"/>
     <use xlink:href="#DejaVuSans-75" x="699.755859"/>
     <use xlink:href="#DejaVuSans-6c" x="763.134766"/>
     <use xlink:href="#DejaVuSans-75" x="790.917969"/>
     <use xlink:href="#DejaVuSans-6d" x="854.296875"/>
    </g>
   </g>
   <g id="patch_78">
    <path d="M 268.2 283.190938 
L 292.2 283.190938 
L 292.2 274.790938 
L 268.2 274.790938 
z
" style="fill: #f7c59f"/>
   </g>
   <g id="text_29">
    <!-- g__SIO2C1 -->
    <g transform="translate(301.8 283.190938) scale(0.12 -0.12)">
     <defs>
      <path id="DejaVuSans-49" d="M 628 4666 
L 1259 4666 
L 1259 0 
L 628 0 
L 628 4666 
z
" transform="scale(0.015625)"/>
      <path id="DejaVuSans-4f" d="M 2522 4238 
Q 1834 4238 1429 3725 
Q 1025 3213 1025 2328 
Q 1025 1447 1429 934 
Q 1834 422 2522 422 
Q 3209 422 3611 934 
Q 4013 1447 4013 2328 
Q 4013 3213 3611 3725 
Q 3209 4238 2522 4238 
z
M 2522 4750 
Q 3503 4750 4090 4092 
Q 4678 3434 4678 2328 
Q 4678 1225 4090 567 
Q 3503 -91 2522 -91 
Q 1538 -91 948 565 
Q 359 1222 359 2328 
Q 359 3434 948 4092 
Q 1538 4750 2522 4750 
z
" transform="scale(0.015625)"/>
     </defs>
     <use xlink:href="#DejaVuSans-67"/>
     <use xlink:href="#DejaVuSans-5f" x="63.476562"/>
     <use xlink:href="#DejaVuSans-5f" x="113.476562"/>
     <use xlink:href="#DejaVuSans-53" x="163.476562"/>
     <use xlink:href="#DejaVuSans-49" x="226.953125"/>
     <use xlink:href="#DejaVuSans-4f" x="256.445312"/>
     <use xlink:href="#DejaVuSans-32" x="335.15625"/>
     <use xlink:href="#DejaVuSans-43" x="398.779297"/>
     <use xlink:href="#DejaVuSans-31" x="468.603516"/>
    </g>
   </g>
   <g id="patch_79">
    <path d="M 268.2 301.138438 
L 292.2 301.138438 
L 292.2 292.738438 
L 268.2 292.738438 
z
" style="fill: #b0d9b1"/>
   </g>
   <g id="text_30">
    <!-- g__Neisseria_563205 -->
    <g transform="translate(301.8 301.138438) scale(0.12 -0.12)">
     <use xlink:href="#DejaVuSans-67"/>
     <use xlink:href="#DejaVuSans-5f" x="63.476562"/>
     <use xlink:href="#DejaVuSans-5f" x="113.476562"/>
     <use xlink:href="#DejaVuSans-4e" x="163.476562"/>
     <use xlink:href="#DejaVuSans-65" x="238.28125"/>
     <use xlink:href="#DejaVuSans-69" x="299.804688"/>
     <use xlink:href="#DejaVuSans-73" x="327.587891"/>
     <use xlink:href="#DejaVuSans-73" x="379.6875"/>
     <use xlink:href="#DejaVuSans-65" x="431.787109"/>
     <use xlink:href="#DejaVuSans-72" x="493.310547"/>
     <use xlink:href="#DejaVuSans-69" x="534.423828"/>
     <use xlink:href="#DejaVuSans-61" x="562.207031"/>
     <use xlink:href="#DejaVuSans-5f" x="623.486328"/>
     <use xlink:href="#DejaVuSans-35" x="673.486328"/>
     <use xlink:href="#DejaVuSans-36" x="737.109375"/>
     <use xlink:href="#DejaVuSans-33" x="800.732422"/>
     <use xlink:href="#DejaVuSans-32" x="864.355469"/>
     <use xlink:href="#DejaVuSans-30" x="927.978516"/>
     <use xlink:href="#DejaVuSans-35" x="991.601562"/>
    </g>
   </g>
   <g id="patch_80">
    <path d="M 268.2 319.085938 
L 292.2 319.085938 
L 292.2 310.685938 
L 268.2 310.685938 
z
" style="fill: #add8e6"/>
   </g>
   <g id="text_31">
    <!-- g__Pseudomonas_E_647464 -->
    <g transform="translate(301.8 319.085938) scale(0.12 -0.12)">
     <defs>
      <path id="DejaVuSans-50" d="M 1259 4147 
L 1259 2394 
L 2053 2394 
Q 2494 2394 2734 2622 
Q 2975 2850 2975 3272 
Q 2975 3691 2734 3919 
Q 2494 4147 2053 4147 
L 1259 4147 
z
M 628 4666 
L 2053 4666 
Q 2838 4666 3239 4311 
Q 3641 3956 3641 3272 
Q 3641 2581 3239 2228 
Q 2838 1875 2053 1875 
L 1259 1875 
L 1259 0 
L 628 0 
L 628 4666 
z
" transform="scale(0.015625)"/>
      <path id="DejaVuSans-45" d="M 628 4666 
L 3578 4666 
L 3578 4134 
L 1259 4134 
L 1259 2753 
L 3481 2753 
L 3481 2222 
L 1259 2222 
L 1259 531 
L 3634 531 
L 3634 0 
L 628 0 
L 628 4666 
z
" transform="scale(0.015625)"/>
     </defs>
     <use xlink:href="#DejaVuSans-67"/>
     <use xlink:href="#DejaVuSans-5f" x="63.476562"/>
     <use xlink:href="#DejaVuSans-5f" x="113.476562"/>
     <use xlink:href="#DejaVuSans-50" x="163.476562"/>
     <use xlink:href="#DejaVuSans-73" x="222.029297"/>
     <use xlink:href="#DejaVuSans-65" x="274.128906"/>
     <use xlink:href="#DejaVuSans-75" x="335.652344"/>
     <use xlink:href="#DejaVuSans-64" x="399.03125"/>
     <use xlink:href="#DejaVuSans-6f" x="462.507812"/>
     <use xlink:href="#DejaVuSans-6d" x="523.689453"/>
     <use xlink:href="#DejaVuSans-6f" x="621.101562"/>
     <use xlink:href="#DejaVuSans-6e" x="682.283203"/>
     <use xlink:href="#DejaVuSans-61" x="745.662109"/>
     <use xlink:href="#DejaVuSans-73" x="806.941406"/>
     <use xlink:href="#DejaVuSans-5f" x="859.041016"/>
     <use xlink:href="#DejaVuSans-45" x="909.041016"/>
     <use xlink:href="#DejaVuSans-5f" x="972.224609"/>
     <use xlink:href="#DejaVuSans-36" x="1022.224609"/>
     <use xlink:href="#DejaVuSans-34" x="1085.847656"/>
     <use xlink:href="#DejaVuSans-37" x="1149.470703"/>
     <use xlink:href="#DejaVuSans-34" x="1213.09375"/>
     <use xlink:href="#DejaVuSans-36" x="1276.716797"/>
     <use xlink:href="#DejaVuSans-34" x="1340.339844"/>
    </g>
   </g>
   <g id="patch_81">
    <path d="M 268.2 337.033437 
L 292.2 337.033437 
L 292.2 328.633438 
L 268.2 328.633438 
z
" style="fill: #a5c9a1"/>
   </g>
   <g id="text_32">
    <!-- g__Prevotella -->
    <g transform="translate(301.8 337.033437) scale(0.12 -0.12)">
     <use xlink:href="#DejaVuSans-67"/>
     <use xlink:href="#DejaVuSans-5f" x="63.476562"/>
     <use xlink:href="#DejaVuSans-5f" x="113.476562"/>
     <use xlink:href="#DejaVuSans-50" x="163.476562"/>
     <use xlink:href="#DejaVuSans-72" x="222.029297"/>
     <use xlink:href="#DejaVuSans-65" x="260.892578"/>
     <use xlink:href="#DejaVuSans-76" x="322.416016"/>
     <use xlink:href="#DejaVuSans-6f" x="381.595703"/>
     <use xlink:href="#DejaVuSans-74" x="442.777344"/>
     <use xlink:href="#DejaVuSans-65" x="481.986328"/>
     <use xlink:href="#DejaVuSans-6c" x="543.509766"/>
     <use xlink:href="#DejaVuSans-6c" x="571.292969"/>
     <use xlink:href="#DejaVuSans-61" x="599.076172"/>
    </g>
   </g>
   <g id="patch_82">
    <path d="M 268.2 354.980937 
L 292.2 354.980937 
L 292.2 346.580938 
L 268.2 346.580938 
z
" style="fill: #fa5f55"/>
   </g>
   <g id="text_33">
    <!-- g__Veillonella_A -->
    <g transform="translate(301.8 354.980937) scale(0.12 -0.12)">
     <defs>
      <path id="DejaVuSans-56" d="M 1831 0 
L 50 4666 
L 709 4666 
L 2188 738 
L 3669 4666 
L 4325 4666 
L 2547 0 
L 1831 0 
z
" transform="scale(0.015625)"/>
     </defs>
     <use xlink:href="#DejaVuSans-67"/>
     <use xlink:href="#DejaVuSans-5f" x="63.476562"/>
     <use xlink:href="#DejaVuSans-5f" x="113.476562"/>
     <use xlink:href="#DejaVuSans-56" x="163.476562"/>
     <use xlink:href="#DejaVuSans-65" x="224.134766"/>
     <use xlink:href="#DejaVuSans-69" x="285.658203"/>
     <use xlink:href="#DejaVuSans-6c" x="313.441406"/>
     <use xlink:href="#DejaVuSans-6c" x="341.224609"/>
     <use xlink:href="#DejaVuSans-6f" x="369.007812"/>
     <use xlink:href="#DejaVuSans-6e" x="430.189453"/>
     <use xlink:href="#DejaVuSans-65" x="493.568359"/>
     <use xlink:href="#DejaVuSans-6c" x="555.091797"/>
     <use xlink:href="#DejaVuSans-6c" x="582.875"/>
     <use xlink:href="#DejaVuSans-61" x="610.658203"/>
     <use xlink:href="#DejaVuSans-5f" x="671.9375"/>
     <use xlink:href="#DejaVuSans-41" x="721.9375"/>
    </g>
   </g>
   <g id="patch_83">
    <path d="M 268.2 372.928437 
L 292.2 372.928437 
L 292.2 364.528437 
L 268.2 364.528437 
z
" style="fill: #ffe59a"/>
   </g>
   <g id="text_34">
    <!-- g__Acinetobacter -->
    <g transform="translate(301.8 372.928437) scale(0.12 -0.12)">
     <use xlink:href="#DejaVuSans-67"/>
     <use xlink:href="#DejaVuSans-5f" x="63.476562"/>
     <use xlink:href="#DejaVuSans-5f" x="113.476562"/>
     <use xlink:href="#DejaVuSans-41" x="163.476562"/>
     <use xlink:href="#DejaVuSans-63" x="230.134766"/>
     <use xlink:href="#DejaVuSans-69" x="285.115234"/>
     <use xlink:href="#DejaVuSans-6e" x="312.898438"/>
     <use xlink:href="#DejaVuSans-65" x="376.277344"/>
     <use xlink:href="#DejaVuSans-74" x="437.800781"/>
     <use xlink:href="#DejaVuSans-6f" x="477.009766"/>
     <use xlink:href="#DejaVuSans-62" x="538.191406"/>
     <use xlink:href="#DejaVuSans-61" x="601.667969"/>
     <use xlink:href="#DejaVuSans-63" x="662.947266"/>
     <use xlink:href="#DejaVuSans-74" x="717.927734"/>
     <use xlink:href="#DejaVuSans-65" x="757.136719"/>
     <use xlink:href="#DejaVuSans-72" x="818.660156"/>
    </g>
   </g>
   <g id="patch_84">
    <path d="M 268.2 390.875937 
L 292.2 390.875937 
L 292.2 382.475937 
L 268.2 382.475937 
z
" style="fill: #a5c9a1"/>
   </g>
   <g id="text_35">
    <!-- g__Gemella -->
    <g transform="translate(301.8 390.875937) scale(0.12 -0.12)">
     <use xlink:href="#DejaVuSans-67"/>
     <use xlink:href="#DejaVuSans-5f" x="63.476562"/>
     <use xlink:href="#DejaVuSans-5f" x="113.476562"/>
     <use xlink:href="#DejaVuSans-47" x="163.476562"/>
     <use xlink:href="#DejaVuSans-65" x="240.966797"/>
     <use xlink:href="#DejaVuSans-6d" x="302.490234"/>
     <use xlink:href="#DejaVuSans-65" x="399.902344"/>
     <use xlink:href="#DejaVuSans-6c" x="461.425781"/>
     <use xlink:href="#DejaVuSans-6c" x="489.208984"/>
     <use xlink:href="#DejaVuSans-61" x="516.992188"/>
    </g>
   </g>
   <g id="patch_85">
    <path d="M 268.2 408.823437 
L 292.2 408.823437 
L 292.2 400.423437 
L 268.2 400.423437 
z
" style="fill: #ccccff"/>
   </g>
   <g id="text_36">
    <!-- g__Granulicatella -->
    <g transform="translate(301.8 408.823437) scale(0.12 -0.12)">
     <use xlink:href="#DejaVuSans-67"/>
     <use xlink:href="#DejaVuSans-5f" x="63.476562"/>
     <use xlink:href="#DejaVuSans-5f" x="113.476562"/>
     <use xlink:href="#DejaVuSans-47" x="163.476562"/>
     <use xlink:href="#DejaVuSans-72" x="240.966797"/>
     <use xlink:href="#DejaVuSans-61" x="282.080078"/>
     <use xlink:href="#DejaVuSans-6e" x="343.359375"/>
     <use xlink:href="#DejaVuSans-75" x="406.738281"/>
     <use xlink:href="#DejaVuSans-6c" x="470.117188"/>
     <use xlink:href="#DejaVuSans-69" x="497.900391"/>
     <use xlink:href="#DejaVuSans-63" x="525.683594"/>
     <use xlink:href="#DejaVuSans-61" x="580.664062"/>
     <use xlink:href="#DejaVuSans-74" x="641.943359"/>
     <use xlink:href="#DejaVuSans-65" x="681.152344"/>
     <use xlink:href="#DejaVuSans-6c" x="742.675781"/>
     <use xlink:href="#DejaVuSans-6c" x="770.458984"/>
     <use xlink:href="#DejaVuSans-61" x="798.242188"/>
    </g>
   </g>
   <g id="patch_86">
    <path d="M 268.2 426.770937 
L 292.2 426.770937 
L 292.2 418.370937 
L 268.2 418.370937 
z
" style="fill: #fadadd"/>
   </g>
   <g id="text_37">
    <!-- g__Cutibacterium -->
    <g transform="translate(301.8 426.770937) scale(0.12 -0.12)">
     <use xlink:href="#DejaVuSans-67"/>
     <use xlink:href="#DejaVuSans-5f" x="63.476562"/>
     <use xlink:href="#DejaVuSans-5f" x="113.476562"/>
     <use xlink:href="#DejaVuSans-43" x="163.476562"/>
     <use xlink:href="#DejaVuSans-75" x="233.300781"/>
     <use xlink:href="#DejaVuSans-74" x="296.679688"/>
     <use xlink:href="#DejaVuSans-69" x="335.888672"/>
     <use xlink:href="#DejaVuSans-62" x="363.671875"/>
     <use xlink:href="#DejaVuSans-61" x="427.148438"/>
     <use xlink:href="#DejaVuSans-63" x="488.427734"/>
     <use xlink:href="#DejaVuSans-74" x="543.408203"/>
     <use xlink:href="#DejaVuSans-65" x="582.617188"/>
     <use xlink:href="#DejaVuSans-72" x="644.140625"/>
     <use xlink:href="#DejaVuSans-69" x="685.253906"/>
     <use xlink:href="#DejaVuSans-75" x="713.037109"/>
     <use xlink:href="#DejaVuSans-6d" x="776.416016"/>
    </g>
   </g>
   <g id="patch_87">
    <path d="M 268.2 444.718437 
L 292.2 444.718437 
L 292.2 436.318437 
L 268.2 436.318437 
z
" style="fill: #d9d9d9"/>
   </g>
   <g id="text_38">
    <!-- Others -->
    <g transform="translate(301.8 444.718437) scale(0.12 -0.12)">
     <use xlink:href="#DejaVuSans-4f"/>
     <use xlink:href="#DejaVuSans-74" x="78.710938"/>
     <use xlink:href="#DejaVuSans-68" x="117.919922"/>
     <use xlink:href="#DejaVuSans-65" x="181.298828"/>
     <use xlink:href="#DejaVuSans-72" x="242.822266"/>
     <use xlink:href="#DejaVuSans-73" x="283.935547"/>
    </g>
   </g>
  </g>
 </g>
 <defs>
  <clipPath id="p01159ae6c6">
   <rect x="59.4" y="42.84" width="198" height="236.454545"/>
  </clipPath>
  <clipPath id="pcd02ae81e4">
   <rect x="59.4" y="326.585455" width="198" height="236.454545"/>
  </clipPath>
 </defs>
</svg>
