<?xml version="1.0" encoding="utf-8" standalone="no"?>
<!DOCTYPE svg PUBLIC "-//W3C//DTD SVG 1.1//EN"
  "http://www.w3.org/Graphics/SVG/1.1/DTD/svg11.dtd">
<svg xmlns:xlink="http://www.w3.org/1999/xlink" width="1152pt" height="432pt" viewBox="0 0 1152 432" xmlns="http://www.w3.org/2000/svg" version="1.1">
 <metadata>
  <rdf:RDF xmlns:dc="http://purl.org/dc/elements/1.1/" xmlns:cc="http://creativecommons.org/ns#" xmlns:rdf="http://www.w3.org/1999/02/22-rdf-syntax-ns#">
   <cc:Work>
    <dc:type rdf:resource="http://purl.org/dc/dcmitype/StillImage"/>
    <dc:date>2025-05-20T09:09:25.316548</dc:date>
    <dc:format>image/svg+xml</dc:format>
    <dc:creator>
     <cc:Agent>
      <dc:title>Matplotlib v3.7.3, https://matplotlib.org/</dc:title>
     </cc:Agent>
    </dc:creator>
   </cc:Work>
  </rdf:RDF>
 </metadata>
 <defs>
  <style type="text/css">*{stroke-linejoin: round; stroke-linecap: butt}</style>
 </defs>
 <g id="figure_1">
  <g id="patch_1">
   <path d="M 0 432 
L 1152 432 
L 1152 0 
L 0 0 
z
" style="fill: #ffffff"/>
  </g>
  <g id="axes_1">
   <g id="patch_2">
    <path d="M 172.8 397.44 
L 434.618182 397.44 
L 434.618182 30.24 
L 172.8 30.24 
z
" style="fill: #ffffff"/>
   </g>
   <g id="patch_3">
    <path d="M 182.150649 397.44 
L 238.254545 397.44 
L 238.254545 397.188528 
L 182.150649 397.188528 
z
" clip-path="url(#pee43340537)" style="fill: #ff0000"/>
   </g>
   <g id="patch_4">
    <path d="M 275.657143 397.44 
L 331.761039 397.44 
L 331.761039 397.063908 
L 275.657143 397.063908 
z
" clip-path="url(#pee43340537)" style="fill: #ff0000"/>
   </g>
   <g id="patch_5">
    <path d="M 369.163636 397.44 
L 425.267532 397.44 
L 425.267532 396.302511 
L 369.163636 396.302511 
z
" clip-path="url(#pee43340537)" style="fill: #ff0000"/>
   </g>
   <g id="patch_6">
    <path d="M 182.150649 397.188528 
L 238.254545 397.188528 
L 238.254545 395.001381 
L 182.150649 395.001381 
z
" clip-path="url(#pee43340537)"/>
   </g>
   <g id="patch_7">
    <path d="M 275.657143 397.063908 
L 331.761039 397.063908 
L 331.761039 394.837002 
L 275.657143 394.837002 
z
" clip-path="url(#pee43340537)"/>
   </g>
   <g id="patch_8">
    <path d="M 369.163636 396.302511 
L 425.267532 396.302511 
L 425.267532 393.593828 
L 369.163636 393.593828 
z
" clip-path="url(#pee43340537)"/>
   </g>
   <g id="patch_9">
    <path d="M 182.150649 395.001381 
L 238.254545 395.001381 
L 238.254545 394.579615 
L 182.150649 394.579615 
z
" clip-path="url(#pee43340537)" style="fill: #a5d8ff"/>
   </g>
   <g id="patch_10">
    <path d="M 275.657143 394.837002 
L 331.761039 394.837002 
L 331.761039 394.105663 
L 275.657143 394.105663 
z
" clip-path="url(#pee43340537)" style="fill: #a5d8ff"/>
   </g>
   <g id="patch_11">
    <path d="M 369.163636 393.593828 
L 425.267532 393.593828 
L 425.267532 393.347725 
L 369.163636 393.347725 
z
" clip-path="url(#pee43340537)" style="fill: #a5d8ff"/>
   </g>
   <g id="patch_12">
    <path d="M 182.150649 394.579615 
L 238.254545 394.579615 
L 238.254545 393.656972 
L 182.150649 393.656972 
z
" clip-path="url(#pee43340537)" style="fill: #ffe59a"/>
   </g>
   <g id="patch_13">
    <path d="M 275.657143 394.105663 
L 331.761039 394.105663 
L 331.761039 393.781388 
L 275.657143 393.781388 
z
" clip-path="url(#pee43340537)" style="fill: #ffe59a"/>
   </g>
   <g id="patch_14">
    <path d="M 369.163636 393.347725 
L 425.267532 393.347725 
L 425.267532 393.035587 
L 369.163636 393.035587 
z
" clip-path="url(#pee43340537)" style="fill: #ffe59a"/>
   </g>
   <g id="patch_15">
    <path d="M 182.150649 393.656972 
L 238.254545 393.656972 
L 238.254545 393.003501 
L 182.150649 393.003501 
z
" clip-path="url(#pee43340537)" style="fill: #a5c9a1"/>
   </g>
   <g id="patch_16">
    <path d="M 275.657143 393.781388 
L 331.761039 393.781388 
L 331.761039 393.288935 
L 275.657143 393.288935 
z
" clip-path="url(#pee43340537)" style="fill: #a5c9a1"/>
   </g>
   <g id="patch_17">
    <path d="M 369.163636 393.035587 
L 425.267532 393.035587 
L 425.267532 392.77219 
L 369.163636 392.77219 
z
" clip-path="url(#pee43340537)" style="fill: #a5c9a1"/>
   </g>
   <g id="patch_18">
    <path d="M 182.150649 393.003501 
L 238.254545 393.003501 
L 238.254545 392.728673 
L 182.150649 392.728673 
z
" clip-path="url(#pee43340537)" style="fill: #0000ff"/>
   </g>
   <g id="patch_19">
    <path d="M 275.657143 393.288935 
L 331.761039 393.288935 
L 331.761039 392.832744 
L 275.657143 392.832744 
z
" clip-path="url(#pee43340537)" style="fill: #0000ff"/>
   </g>
   <g id="patch_20">
    <path d="M 369.163636 392.77219 
L 425.267532 392.77219 
L 425.267532 392.629323 
L 369.163636 392.629323 
z
" clip-path="url(#pee43340537)" style="fill: #0000ff"/>
   </g>
   <g id="patch_21">
    <path d="M 182.150649 392.728673 
L 238.254545 392.728673 
L 238.254545 392.70689 
L 182.150649 392.70689 
z
" clip-path="url(#pee43340537)" style="fill: #e6e6fa"/>
   </g>
   <g id="patch_22">
    <path d="M 275.657143 392.832744 
L 331.761039 392.832744 
L 331.761039 392.793195 
L 275.657143 392.793195 
z
" clip-path="url(#pee43340537)" style="fill: #e6e6fa"/>
   </g>
   <g id="patch_23">
    <path d="M 369.163636 392.629323 
L 425.267532 392.629323 
L 425.267532 392.465562 
L 369.163636 392.465562 
z
" clip-path="url(#pee43340537)" style="fill: #e6e6fa"/>
   </g>
   <g id="patch_24">
    <path d="M 182.150649 392.70689 
L 238.254545 392.70689 
L 238.254545 392.693472 
L 182.150649 392.693472 
z
" clip-path="url(#pee43340537)" style="fill: #fa5f55"/>
   </g>
   <g id="patch_25">
    <path d="M 275.657143 392.793195 
L 331.761039 392.793195 
L 331.761039 392.734312 
L 275.657143 392.734312 
z
" clip-path="url(#pee43340537)" style="fill: #fa5f55"/>
   </g>
   <g id="patch_26">
    <path d="M 369.163636 392.465562 
L 425.267532 392.465562 
L 425.267532 392.277392 
L 369.163636 392.277392 
z
" clip-path="url(#pee43340537)" style="fill: #fa5f55"/>
   </g>
   <g id="patch_27">
    <path d="M 182.150649 392.693472 
L 238.254545 392.693472 
L 238.254545 392.687199 
L 182.150649 392.687199 
z
" clip-path="url(#pee43340537)" style="fill: #accbe1"/>
   </g>
   <g id="patch_28">
    <path d="M 275.657143 392.734312 
L 331.761039 392.734312 
L 331.761039 392.718502 
L 275.657143 392.718502 
z
" clip-path="url(#pee43340537)" style="fill: #accbe1"/>
   </g>
   <g id="patch_29">
    <path d="M 369.163636 392.277392 
L 425.267532 392.277392 
L 425.267532 392.261329 
L 369.163636 392.261329 
z
" clip-path="url(#pee43340537)" style="fill: #accbe1"/>
   </g>
   <g id="patch_30">
    <path d="M 182.150649 392.687199 
L 238.254545 392.687199 
L 238.254545 392.650953 
L 182.150649 392.650953 
z
" clip-path="url(#pee43340537)" style="fill: #b0d9b1"/>
   </g>
   <g id="patch_31">
    <path d="M 275.657143 392.718502 
L 331.761039 392.718502 
L 331.761039 392.68091 
L 275.657143 392.68091 
z
" clip-path="url(#pee43340537)" style="fill: #b0d9b1"/>
   </g>
   <g id="patch_32">
    <path d="M 369.163636 392.261329 
L 425.267532 392.261329 
L 425.267532 392.106809 
L 369.163636 392.106809 
z
" clip-path="url(#pee43340537)" style="fill: #b0d9b1"/>
   </g>
   <g id="patch_33">
    <path d="M 182.150649 392.650953 
L 238.254545 392.650953 
L 238.254545 392.625675 
L 182.150649 392.625675 
z
" clip-path="url(#pee43340537)" style="fill: #f7c59f"/>
   </g>
   <g id="patch_34">
    <path d="M 275.657143 392.68091 
L 331.761039 392.68091 
L 331.761039 392.671149 
L 275.657143 392.671149 
z
" clip-path="url(#pee43340537)" style="fill: #f7c59f"/>
   </g>
   <g id="patch_35">
    <path d="M 369.163636 392.106809 
L 425.267532 392.106809 
L 425.267532 392.092273 
L 369.163636 392.092273 
z
" clip-path="url(#pee43340537)" style="fill: #f7c59f"/>
   </g>
   <g id="patch_36">
    <path d="M 182.150649 392.625675 
L 238.254545 392.625675 
L 238.254545 392.60877 
L 182.150649 392.60877 
z
" clip-path="url(#pee43340537)" style="fill: #fadadd"/>
   </g>
   <g id="patch_37">
    <path d="M 275.657143 392.671149 
L 331.761039 392.671149 
L 331.761039 392.567508 
L 275.657143 392.567508 
z
" clip-path="url(#pee43340537)" style="fill: #fadadd"/>
   </g>
   <g id="patch_38">
    <path d="M 369.163636 392.092273 
L 425.267532 392.092273 
L 425.267532 391.957977 
L 369.163636 391.957977 
z
" clip-path="url(#pee43340537)" style="fill: #fadadd"/>
   </g>
   <g id="patch_39">
    <path d="M 182.150649 392.60877 
L 238.254545 392.60877 
L 238.254545 392.348253 
L 182.150649 392.348253 
z
" clip-path="url(#pee43340537)" style="fill: #add8e6"/>
   </g>
   <g id="patch_40">
    <path d="M 275.657143 392.567508 
L 331.761039 392.567508 
L 331.761039 392.465284 
L 275.657143 392.465284 
z
" clip-path="url(#pee43340537)" style="fill: #add8e6"/>
   </g>
   <g id="patch_41">
    <path d="M 369.163636 391.957977 
L 425.267532 391.957977 
L 425.267532 391.944654 
L 369.163636 391.944654 
z
" clip-path="url(#pee43340537)" style="fill: #add8e6"/>
   </g>
   <g id="patch_42">
    <path d="M 182.150649 392.348253 
L 238.254545 392.348253 
L 238.254545 392.342503 
L 182.150649 392.342503 
z
" clip-path="url(#pee43340537)" style="fill: #d4a5a5"/>
   </g>
   <g id="patch_43">
    <path d="M 275.657143 392.465284 
L 331.761039 392.465284 
L 331.761039 392.459874 
L 275.657143 392.459874 
z
" clip-path="url(#pee43340537)" style="fill: #d4a5a5"/>
   </g>
   <g id="patch_44">
    <path d="M 369.163636 391.944654 
L 425.267532 391.944654 
L 425.267532 391.941096 
L 369.163636 391.941096 
z
" clip-path="url(#pee43340537)" style="fill: #d4a5a5"/>
   </g>
   <g id="patch_45">
    <path d="M 182.150649 392.342503 
L 238.254545 392.342503 
L 238.254545 390.121139 
L 182.150649 390.121139 
z
" clip-path="url(#pee43340537)" style="fill: #d9d9d9"/>
   </g>
   <g id="patch_46">
    <path d="M 275.657143 392.459874 
L 331.761039 392.459874 
L 331.761039 390.121139 
L 275.657143 390.121139 
z
" clip-path="url(#pee43340537)" style="fill: #d9d9d9"/>
   </g>
   <g id="patch_47">
    <path d="M 369.163636 391.941096 
L 425.267532 391.941096 
L 425.267532 390.121139 
L 369.163636 390.121139 
z
" clip-path="url(#pee43340537)" style="fill: #d9d9d9"/>
   </g>
   <g id="patch_48">
    <path d="M 182.150649 397.44 
L 238.254545 397.44 
L 238.254545 397.44 
L 182.150649 397.44 
z
" clip-path="url(#pee43340537)" style="fill: #add8e6"/>
   </g>
   <g id="patch_49">
    <path d="M 275.657143 390.121139 
L 331.761039 390.121139 
L 331.761039 87.120281 
L 275.657143 87.120281 
z
" clip-path="url(#pee43340537)" style="fill: #add8e6"/>
   </g>
   <g id="patch_50">
    <path d="M 369.163636 390.121139 
L 425.267532 390.121139 
L 425.267532 47.725714 
L 369.163636 47.725714 
z
" clip-path="url(#pee43340537)" style="fill: #add8e6"/>
   </g>
   <g id="matplotlib.axis_1">
    <g id="xtick_1">
     <g id="line2d_1">
      <defs>
       <path id="mf7798a0e9e" d="M 0 0 
L 0 3.5 
" style="stroke: #000000; stroke-width: 0.8"/>
      </defs>
      <g>
       <use xlink:href="#mf7798a0e9e" x="210.202597" y="397.44" style="stroke: #000000; stroke-width: 0.8"/>
      </g>
     </g>
     <g id="text_1">
      <!-- H (n=14) -->
      <g transform="translate(178.041972 415.077813) scale(0.14 -0.14)">
       <defs>
        <path id="DejaVuSans-48" d="M 628 4666 
L 1259 4666 
L 1259 2753 
L 3553 2753 
L 3553 4666 
L 4184 4666 
L 4184 0 
L 3553 0 
L 3553 2222 
L 1259 2222 
L 1259 0 
L 628 0 
L 628 4666 
z
" transform="scale(0.015625)"/>
        <path id="DejaVuSans-20" transform="scale(0.015625)"/>
        <path id="DejaVuSans-28" d="M 1984 4856 
Q 1566 4138 1362 3434 
Q 1159 2731 1159 2009 
Q 1159 1288 1364 580 
Q 1569 -128 1984 -844 
L 1484 -844 
Q 1016 -109 783 600 
Q 550 1309 550 2009 
Q 550 2706 781 3412 
Q 1013 4119 1484 4856 
L 1984 4856 
z
" transform="scale(0.015625)"/>
        <path id="DejaVuSans-6e" d="M 3513 2113 
L 3513 0 
L 2938 0 
L 2938 2094 
Q 2938 2591 2744 2837 
Q 2550 3084 2163 3084 
Q 1697 3084 1428 2787 
Q 1159 2491 1159 1978 
L 1159 0 
L 581 0 
L 581 3500 
L 1159 3500 
L 1159 2956 
Q 1366 3272 1645 3428 
Q 1925 3584 2291 3584 
Q 2894 3584 3203 3211 
Q 3513 2838 3513 2113 
z
" transform="scale(0.015625)"/>
        <path id="DejaVuSans-3d" d="M 678 2906 
L 4684 2906 
L 4684 2381 
L 678 2381 
L 678 2906 
z
M 678 1631 
L 4684 1631 
L 4684 1100 
L 678 1100 
L 678 1631 
z
" transform="scale(0.015625)"/>
        <path id="DejaVuSans-31" d="M 794 531 
L 1825 531 
L 1825 4091 
L 703 3866 
L 703 4441 
L 1819 4666 
L 2450 4666 
L 2450 531 
L 3481 531 
L 3481 0 
L 794 0 
L 794 531 
z
" transform="scale(0.015625)"/>
        <path id="DejaVuSans-34" d="M 2419 4116 
L 825 1625 
L 2419 1625 
L 2419 4116 
z
M 2253 4666 
L 3047 4666 
L 3047 1625 
L 3713 1625 
L 3713 1100 
L 3047 1100 
L 3047 0 
L 2419 0 
L 2419 1100 
L 313 1100 
L 313 1709 
L 2253 4666 
z
" transform="scale(0.015625)"/>
        <path id="DejaVuSans-29" d="M 513 4856 
L 1013 4856 
Q 1481 4119 1714 3412 
Q 1947 2706 1947 2009 
Q 1947 1309 1714 600 
Q 1481 -109 1013 -844 
L 513 -844 
Q 928 -128 1133 580 
Q 1338 1288 1338 2009 
Q 1338 2731 1133 3434 
Q 928 4138 513 4856 
z
" transform="scale(0.015625)"/>
       </defs>
       <use xlink:href="#DejaVuSans-48"/>
       <use xlink:href="#DejaVuSans-20" x="75.195312"/>
       <use xlink:href="#DejaVuSans-28" x="106.982422"/>
       <use xlink:href="#DejaVuSans-6e" x="145.996094"/>
       <use xlink:href="#DejaVuSans-3d" x="209.375"/>
       <use xlink:href="#DejaVuSans-31" x="293.164062"/>
       <use xlink:href="#DejaVuSans-34" x="356.787109"/>
       <use xlink:href="#DejaVuSans-29" x="420.410156"/>
      </g>
     </g>
    </g>
    <g id="xtick_2">
     <g id="line2d_2">
      <g>
       <use xlink:href="#mf7798a0e9e" x="303.709091" y="397.44" style="stroke: #000000; stroke-width: 0.8"/>
      </g>
     </g>
     <g id="text_2">
      <!-- ADNL (n=19) -->
      <g transform="translate(257.49706 415.077813) scale(0.14 -0.14)">
       <defs>
        <path id="DejaVuSans-41" d="M 2188 4044 
L 1331 1722 
L 3047 1722 
L 2188 4044 
z
M 1831 4666 
L 2547 4666 
L 4325 0 
L 3669 0 
L 3244 1197 
L 1141 1197 
L 716 0 
L 50 0 
L 1831 4666 
z
" transform="scale(0.015625)"/>
        <path id="DejaVuSans-44" d="M 1259 4147 
L 1259 519 
L 2022 519 
Q 2988 519 3436 956 
Q 3884 1394 3884 2338 
Q 3884 3275 3436 3711 
Q 2988 4147 2022 4147 
L 1259 4147 
z
M 628 4666 
L 1925 4666 
Q 3281 4666 3915 4102 
Q 4550 3538 4550 2338 
Q 4550 1131 3912 565 
Q 3275 0 1925 0 
L 628 0 
L 628 4666 
z
" transform="scale(0.015625)"/>
        <path id="DejaVuSans-4e" d="M 628 4666 
L 1478 4666 
L 3547 763 
L 3547 4666 
L 4159 4666 
L 4159 0 
L 3309 0 
L 1241 3903 
L 1241 0 
L 628 0 
L 628 4666 
z
" transform="scale(0.015625)"/>
        <path id="DejaVuSans-4c" d="M 628 4666 
L 1259 4666 
L 1259 531 
L 3531 531 
L 3531 0 
L 628 0 
L 628 4666 
z
" transform="scale(0.015625)"/>
        <path id="DejaVuSans-39" d="M 703 97 
L 703 672 
Q 941 559 1184 500 
Q 1428 441 1663 441 
Q 2288 441 2617 861 
Q 2947 1281 2994 2138 
Q 2813 1869 2534 1725 
Q 2256 1581 1919 1581 
Q 1219 1581 811 2004 
Q 403 2428 403 3163 
Q 403 3881 828 4315 
Q 1253 4750 1959 4750 
Q 2769 4750 3195 4129 
Q 3622 3509 3622 2328 
Q 3622 1225 3098 567 
Q 2575 -91 1691 -91 
Q 1453 -91 1209 -44 
Q 966 3 703 97 
z
M 1959 2075 
Q 2384 2075 2632 2365 
Q 2881 2656 2881 3163 
Q 2881 3666 2632 3958 
Q 2384 4250 1959 4250 
Q 1534 4250 1286 3958 
Q 1038 3666 1038 3163 
Q 1038 2656 1286 2365 
Q 1534 2075 1959 2075 
z
" transform="scale(0.015625)"/>
       </defs>
       <use xlink:href="#DejaVuSans-41"/>
       <use xlink:href="#DejaVuSans-44" x="68.408203"/>
       <use xlink:href="#DejaVuSans-4e" x="145.410156"/>
       <use xlink:href="#DejaVuSans-4c" x="220.214844"/>
       <use xlink:href="#DejaVuSans-20" x="275.927734"/>
       <use xlink:href="#DejaVuSans-28" x="307.714844"/>
       <use xlink:href="#DejaVuSans-6e" x="346.728516"/>
       <use xlink:href="#DejaVuSans-3d" x="410.107422"/>
       <use xlink:href="#DejaVuSans-31" x="493.896484"/>
       <use xlink:href="#DejaVuSans-39" x="557.519531"/>
       <use xlink:href="#DejaVuSans-29" x="621.142578"/>
      </g>
     </g>
    </g>
    <g id="xtick_3">
     <g id="line2d_3">
      <g>
       <use xlink:href="#mf7798a0e9e" x="397.215584" y="397.44" style="stroke: #000000; stroke-width: 0.8"/>
      </g>
     </g>
     <g id="text_3">
      <!-- ADL (n=24) -->
      <g transform="translate(356.240428 415.077813) scale(0.14 -0.14)">
       <defs>
        <path id="DejaVuSans-32" d="M 1228 531 
L 3431 531 
L 3431 0 
L 469 0 
L 469 531 
Q 828 903 1448 1529 
Q 2069 2156 2228 2338 
Q 2531 2678 2651 2914 
Q 2772 3150 2772 3378 
Q 2772 3750 2511 3984 
Q 2250 4219 1831 4219 
Q 1534 4219 1204 4116 
Q 875 4013 500 3803 
L 500 4441 
Q 881 4594 1212 4672 
Q 1544 4750 1819 4750 
Q 2544 4750 2975 4387 
Q 3406 4025 3406 3419 
Q 3406 3131 3298 2873 
Q 3191 2616 2906 2266 
Q 2828 2175 2409 1742 
Q 1991 1309 1228 531 
z
" transform="scale(0.015625)"/>
       </defs>
       <use xlink:href="#DejaVuSans-41"/>
       <use xlink:href="#DejaVuSans-44" x="68.408203"/>
       <use xlink:href="#DejaVuSans-4c" x="145.410156"/>
       <use xlink:href="#DejaVuSans-20" x="201.123047"/>
       <use xlink:href="#DejaVuSans-28" x="232.910156"/>
       <use xlink:href="#DejaVuSans-6e" x="271.923828"/>
       <use xlink:href="#DejaVuSans-3d" x="335.302734"/>
       <use xlink:href="#DejaVuSans-32" x="419.091797"/>
       <use xlink:href="#DejaVuSans-34" x="482.714844"/>
       <use xlink:href="#DejaVuSans-29" x="546.337891"/>
      </g>
     </g>
    </g>
    <g id="text_4">
     <!--   -->
     <g transform="translate(302.120028 429.587813) scale(0.1 -0.1)">
      <use xlink:href="#DejaVuSans-20"/>
     </g>
    </g>
   </g>
   <g id="matplotlib.axis_2">
    <g id="ytick_1">
     <g id="line2d_4">
      <defs>
       <path id="m43bf251573" d="M 0 0 
L -3.5 0 
" style="stroke: #000000; stroke-width: 0.8"/>
      </defs>
      <g>
       <use xlink:href="#m43bf251573" x="172.8" y="397.44" style="stroke: #000000; stroke-width: 0.8"/>
      </g>
     </g>
     <g id="text_5">
      <!-- 0 -->
      <g transform="translate(159.4375 401.239219) scale(0.1 -0.1)">
       <defs>
        <path id="DejaVuSans-30" d="M 2034 4250 
Q 1547 4250 1301 3770 
Q 1056 3291 1056 2328 
Q 1056 1369 1301 889 
Q 1547 409 2034 409 
Q 2525 409 2770 889 
Q 3016 1369 3016 2328 
Q 3016 3291 2770 3770 
Q 2525 4250 2034 4250 
z
M 2034 4750 
Q 2819 4750 3233 4129 
Q 3647 3509 3647 2328 
Q 3647 1150 3233 529 
Q 2819 -91 2034 -91 
Q 1250 -91 836 529 
Q 422 1150 422 2328 
Q 422 3509 836 4129 
Q 1250 4750 2034 4750 
z
" transform="scale(0.015625)"/>
       </defs>
       <use xlink:href="#DejaVuSans-30"/>
      </g>
     </g>
    </g>
    <g id="ytick_2">
     <g id="line2d_5">
      <g>
       <use xlink:href="#m43bf251573" x="172.8" y="324.251387" style="stroke: #000000; stroke-width: 0.8"/>
      </g>
     </g>
     <g id="text_6">
      <!-- 10 -->
      <g transform="translate(153.075 328.050606) scale(0.1 -0.1)">
       <use xlink:href="#DejaVuSans-31"/>
       <use xlink:href="#DejaVuSans-30" x="63.623047"/>
      </g>
     </g>
    </g>
    <g id="ytick_3">
     <g id="line2d_6">
      <g>
       <use xlink:href="#m43bf251573" x="172.8" y="251.062774" style="stroke: #000000; stroke-width: 0.8"/>
      </g>
     </g>
     <g id="text_7">
      <!-- 20 -->
      <g transform="translate(153.075 254.861993) scale(0.1 -0.1)">
       <use xlink:href="#DejaVuSans-32"/>
       <use xlink:href="#DejaVuSans-30" x="63.623047"/>
      </g>
     </g>
    </g>
    <g id="ytick_4">
     <g id="line2d_7">
      <g>
       <use xlink:href="#m43bf251573" x="172.8" y="177.874161" style="stroke: #000000; stroke-width: 0.8"/>
      </g>
     </g>
     <g id="text_8">
      <!-- 30 -->
      <g transform="translate(153.075 181.67338) scale(0.1 -0.1)">
       <defs>
        <path id="DejaVuSans-33" d="M 2597 2516 
Q 3050 2419 3304 2112 
Q 3559 1806 3559 1356 
Q 3559 666 3084 287 
Q 2609 -91 1734 -91 
Q 1441 -91 1130 -33 
Q 819 25 488 141 
L 488 750 
Q 750 597 1062 519 
Q 1375 441 1716 441 
Q 2309 441 2620 675 
Q 2931 909 2931 1356 
Q 2931 1769 2642 2001 
Q 2353 2234 1838 2234 
L 1294 2234 
L 1294 2753 
L 1863 2753 
Q 2328 2753 2575 2939 
Q 2822 3125 2822 3475 
Q 2822 3834 2567 4026 
Q 2313 4219 1838 4219 
Q 1578 4219 1281 4162 
Q 984 4106 628 3988 
L 628 4550 
Q 988 4650 1302 4700 
Q 1616 4750 1894 4750 
Q 2613 4750 3031 4423 
Q 3450 4097 3450 3541 
Q 3450 3153 3228 2886 
Q 3006 2619 2597 2516 
z
" transform="scale(0.015625)"/>
       </defs>
       <use xlink:href="#DejaVuSans-33"/>
       <use xlink:href="#DejaVuSans-30" x="63.623047"/>
      </g>
     </g>
    </g>
    <g id="ytick_5">
     <g id="line2d_8">
      <g>
       <use xlink:href="#m43bf251573" x="172.8" y="104.685548" style="stroke: #000000; stroke-width: 0.8"/>
      </g>
     </g>
     <g id="text_9">
      <!-- 40 -->
      <g transform="translate(153.075 108.484767) scale(0.1 -0.1)">
       <use xlink:href="#DejaVuSans-34"/>
       <use xlink:href="#DejaVuSans-30" x="63.623047"/>
      </g>
     </g>
    </g>
    <g id="ytick_6">
     <g id="line2d_9">
      <g>
       <use xlink:href="#m43bf251573" x="172.8" y="31.496935" style="stroke: #000000; stroke-width: 0.8"/>
      </g>
     </g>
     <g id="text_10">
      <!-- 50 -->
      <g transform="translate(153.075 35.296154) scale(0.1 -0.1)">
       <defs>
        <path id="DejaVuSans-35" d="M 691 4666 
L 3169 4666 
L 3169 4134 
L 1269 4134 
L 1269 2991 
Q 1406 3038 1543 3061 
Q 1681 3084 1819 3084 
Q 2600 3084 3056 2656 
Q 3513 2228 3513 1497 
Q 3513 744 3044 326 
Q 2575 -91 1722 -91 
Q 1428 -91 1123 -41 
Q 819 9 494 109 
L 494 744 
Q 775 591 1075 516 
Q 1375 441 1709 441 
Q 2250 441 2565 725 
Q 2881 1009 2881 1497 
Q 2881 1984 2565 2268 
Q 2250 2553 1709 2553 
Q 1456 2553 1204 2497 
Q 953 2441 691 2322 
L 691 4666 
z
" transform="scale(0.015625)"/>
       </defs>
       <use xlink:href="#DejaVuSans-35"/>
       <use xlink:href="#DejaVuSans-30" x="63.623047"/>
      </g>
     </g>
    </g>
    <g id="text_11">
     <!-- Relative Abundance -->
     <g transform="translate(146.163437 283.725156) rotate(-90) scale(0.14 -0.14)">
      <defs>
       <path id="DejaVuSans-52" d="M 2841 2188 
Q 3044 2119 3236 1894 
Q 3428 1669 3622 1275 
L 4263 0 
L 3584 0 
L 2988 1197 
Q 2756 1666 2539 1819 
Q 2322 1972 1947 1972 
L 1259 1972 
L 1259 0 
L 628 0 
L 628 4666 
L 2053 4666 
Q 2853 4666 3247 4331 
Q 3641 3997 3641 3322 
Q 3641 2881 3436 2590 
Q 3231 2300 2841 2188 
z
M 1259 4147 
L 1259 2491 
L 2053 2491 
Q 2509 2491 2742 2702 
Q 2975 2913 2975 3322 
Q 2975 3731 2742 3939 
Q 2509 4147 2053 4147 
L 1259 4147 
z
" transform="scale(0.015625)"/>
       <path id="DejaVuSans-65" d="M 3597 1894 
L 3597 1613 
L 953 1613 
Q 991 1019 1311 708 
Q 1631 397 2203 397 
Q 2534 397 2845 478 
Q 3156 559 3463 722 
L 3463 178 
Q 3153 47 2828 -22 
Q 2503 -91 2169 -91 
Q 1331 -91 842 396 
Q 353 884 353 1716 
Q 353 2575 817 3079 
Q 1281 3584 2069 3584 
Q 2775 3584 3186 3129 
Q 3597 2675 3597 1894 
z
M 3022 2063 
Q 3016 2534 2758 2815 
Q 2500 3097 2075 3097 
Q 1594 3097 1305 2825 
Q 1016 2553 972 2059 
L 3022 2063 
z
" transform="scale(0.015625)"/>
       <path id="DejaVuSans-6c" d="M 603 4863 
L 1178 4863 
L 1178 0 
L 603 0 
L 603 4863 
z
" transform="scale(0.015625)"/>
       <path id="DejaVuSans-61" d="M 2194 1759 
Q 1497 1759 1228 1600 
Q 959 1441 959 1056 
Q 959 750 1161 570 
Q 1363 391 1709 391 
Q 2188 391 2477 730 
Q 2766 1069 2766 1631 
L 2766 1759 
L 2194 1759 
z
M 3341 1997 
L 3341 0 
L 2766 0 
L 2766 531 
Q 2569 213 2275 61 
Q 1981 -91 1556 -91 
Q 1019 -91 701 211 
Q 384 513 384 1019 
Q 384 1609 779 1909 
Q 1175 2209 1959 2209 
L 2766 2209 
L 2766 2266 
Q 2766 2663 2505 2880 
Q 2244 3097 1772 3097 
Q 1472 3097 1187 3025 
Q 903 2953 641 2809 
L 641 3341 
Q 956 3463 1253 3523 
Q 1550 3584 1831 3584 
Q 2591 3584 2966 3190 
Q 3341 2797 3341 1997 
z
" transform="scale(0.015625)"/>
       <path id="DejaVuSans-74" d="M 1172 4494 
L 1172 3500 
L 2356 3500 
L 2356 3053 
L 1172 3053 
L 1172 1153 
Q 1172 725 1289 603 
Q 1406 481 1766 481 
L 2356 481 
L 2356 0 
L 1766 0 
Q 1100 0 847 248 
Q 594 497 594 1153 
L 594 3053 
L 172 3053 
L 172 3500 
L 594 3500 
L 594 4494 
L 1172 4494 
z
" transform="scale(0.015625)"/>
       <path id="DejaVuSans-69" d="M 603 3500 
L 1178 3500 
L 1178 0 
L 603 0 
L 603 3500 
z
M 603 4863 
L 1178 4863 
L 1178 4134 
L 603 4134 
L 603 4863 
z
" transform="scale(0.015625)"/>
       <path id="DejaVuSans-76" d="M 191 3500 
L 800 3500 
L 1894 563 
L 2988 3500 
L 3597 3500 
L 2284 0 
L 1503 0 
L 191 3500 
z
" transform="scale(0.015625)"/>
       <path id="DejaVuSans-62" d="M 3116 1747 
Q 3116 2381 2855 2742 
Q 2594 3103 2138 3103 
Q 1681 3103 1420 2742 
Q 1159 2381 1159 1747 
Q 1159 1113 1420 752 
Q 1681 391 2138 391 
Q 2594 391 2855 752 
Q 3116 1113 3116 1747 
z
M 1159 2969 
Q 1341 3281 1617 3432 
Q 1894 3584 2278 3584 
Q 2916 3584 3314 3078 
Q 3713 2572 3713 1747 
Q 3713 922 3314 415 
Q 2916 -91 2278 -91 
Q 1894 -91 1617 61 
Q 1341 213 1159 525 
L 1159 0 
L 581 0 
L 581 4863 
L 1159 4863 
L 1159 2969 
z
" transform="scale(0.015625)"/>
       <path id="DejaVuSans-75" d="M 544 1381 
L 544 3500 
L 1119 3500 
L 1119 1403 
Q 1119 906 1312 657 
Q 1506 409 1894 409 
Q 2359 409 2629 706 
Q 2900 1003 2900 1516 
L 2900 3500 
L 3475 3500 
L 3475 0 
L 2900 0 
L 2900 538 
Q 2691 219 2414 64 
Q 2138 -91 1772 -91 
Q 1169 -91 856 284 
Q 544 659 544 1381 
z
M 1991 3584 
L 1991 3584 
z
" transform="scale(0.015625)"/>
       <path id="DejaVuSans-64" d="M 2906 2969 
L 2906 4863 
L 3481 4863 
L 3481 0 
L 2906 0 
L 2906 525 
Q 2725 213 2448 61 
Q 2172 -91 1784 -91 
Q 1150 -91 751 415 
Q 353 922 353 1747 
Q 353 2572 751 3078 
Q 1150 3584 1784 3584 
Q 2172 3584 2448 3432 
Q 2725 3281 2906 2969 
z
M 947 1747 
Q 947 1113 1208 752 
Q 1469 391 1925 391 
Q 2381 391 2643 752 
Q 2906 1113 2906 1747 
Q 2906 2381 2643 2742 
Q 2381 3103 1925 3103 
Q 1469 3103 1208 2742 
Q 947 2381 947 1747 
z
" transform="scale(0.015625)"/>
       <path id="DejaVuSans-63" d="M 3122 3366 
L 3122 2828 
Q 2878 2963 2633 3030 
Q 2388 3097 2138 3097 
Q 1578 3097 1268 2742 
Q 959 2388 959 1747 
Q 959 1106 1268 751 
Q 1578 397 2138 397 
Q 2388 397 2633 464 
Q 2878 531 3122 666 
L 3122 134 
Q 2881 22 2623 -34 
Q 2366 -91 2075 -91 
Q 1284 -91 818 406 
Q 353 903 353 1747 
Q 353 2603 823 3093 
Q 1294 3584 2113 3584 
Q 2378 3584 2631 3529 
Q 2884 3475 3122 3366 
z
" transform="scale(0.015625)"/>
      </defs>
      <use xlink:href="#DejaVuSans-52"/>
      <use xlink:href="#DejaVuSans-65" x="64.982422"/>
      <use xlink:href="#DejaVuSans-6c" x="126.505859"/>
      <use xlink:href="#DejaVuSans-61" x="154.289062"/>
      <use xlink:href="#DejaVuSans-74" x="215.568359"/>
      <use xlink:href="#DejaVuSans-69" x="254.777344"/>
      <use xlink:href="#DejaVuSans-76" x="282.560547"/>
      <use xlink:href="#DejaVuSans-65" x="341.740234"/>
      <use xlink:href="#DejaVuSans-20" x="403.263672"/>
      <use xlink:href="#DejaVuSans-41" x="435.050781"/>
      <use xlink:href="#DejaVuSans-62" x="503.458984"/>
      <use xlink:href="#DejaVuSans-75" x="566.935547"/>
      <use xlink:href="#DejaVuSans-6e" x="630.314453"/>
      <use xlink:href="#DejaVuSans-64" x="693.693359"/>
      <use xlink:href="#DejaVuSans-61" x="757.169922"/>
      <use xlink:href="#DejaVuSans-6e" x="818.449219"/>
      <use xlink:href="#DejaVuSans-63" x="881.828125"/>
      <use xlink:href="#DejaVuSans-65" x="936.808594"/>
     </g>
    </g>
   </g>
   <g id="patch_51">
    <path d="M 172.8 397.44 
L 172.8 30.24 
" style="fill: none; stroke: #000000; stroke-width: 0.8; stroke-linejoin: miter; stroke-linecap: square"/>
   </g>
   <g id="patch_52">
    <path d="M 434.618182 397.44 
L 434.618182 30.24 
" style="fill: none; stroke: #000000; stroke-width: 0.8; stroke-linejoin: miter; stroke-linecap: square"/>
   </g>
   <g id="patch_53">
    <path d="M 172.8 397.44 
L 434.618182 397.44 
" style="fill: none; stroke: #000000; stroke-width: 0.8; stroke-linejoin: miter; stroke-linecap: square"/>
   </g>
   <g id="patch_54">
    <path d="M 172.8 30.24 
L 434.618182 30.24 
" style="fill: none; stroke: #000000; stroke-width: 0.8; stroke-linejoin: miter; stroke-linecap: square"/>
   </g>
   <g id="text_12">
    <!-- Cape Town -->
    <g transform="translate(255.25956 24.24) scale(0.18 -0.18)">
     <defs>
      <path id="DejaVuSans-43" d="M 4122 4306 
L 4122 3641 
Q 3803 3938 3442 4084 
Q 3081 4231 2675 4231 
Q 1875 4231 1450 3742 
Q 1025 3253 1025 2328 
Q 1025 1406 1450 917 
Q 1875 428 2675 428 
Q 3081 428 3442 575 
Q 3803 722 4122 1019 
L 4122 359 
Q 3791 134 3420 21 
Q 3050 -91 2638 -91 
Q 1578 -91 968 557 
Q 359 1206 359 2328 
Q 359 3453 968 4101 
Q 1578 4750 2638 4750 
Q 3056 4750 3426 4639 
Q 3797 4528 4122 4306 
z
" transform="scale(0.015625)"/>
      <path id="DejaVuSans-70" d="M 1159 525 
L 1159 -1331 
L 581 -1331 
L 581 3500 
L 1159 3500 
L 1159 2969 
Q 1341 3281 1617 3432 
Q 1894 3584 2278 3584 
Q 2916 3584 3314 3078 
Q 3713 2572 3713 1747 
Q 3713 922 3314 415 
Q 2916 -91 2278 -91 
Q 1894 -91 1617 61 
Q 1341 213 1159 525 
z
M 3116 1747 
Q 3116 2381 2855 2742 
Q 2594 3103 2138 3103 
Q 1681 3103 1420 2742 
Q 1159 2381 1159 1747 
Q 1159 1113 1420 752 
Q 1681 391 2138 391 
Q 2594 391 2855 752 
Q 3116 1113 3116 1747 
z
" transform="scale(0.015625)"/>
      <path id="DejaVuSans-54" d="M -19 4666 
L 3928 4666 
L 3928 4134 
L 2272 4134 
L 2272 0 
L 1638 0 
L 1638 4134 
L -19 4134 
L -19 4666 
z
" transform="scale(0.015625)"/>
      <path id="DejaVuSans-6f" d="M 1959 3097 
Q 1497 3097 1228 2736 
Q 959 2375 959 1747 
Q 959 1119 1226 758 
Q 1494 397 1959 397 
Q 2419 397 2687 759 
Q 2956 1122 2956 1747 
Q 2956 2369 2687 2733 
Q 2419 3097 1959 3097 
z
M 1959 3584 
Q 2709 3584 3137 3096 
Q 3566 2609 3566 1747 
Q 3566 888 3137 398 
Q 2709 -91 1959 -91 
Q 1206 -91 779 398 
Q 353 888 353 1747 
Q 353 2609 779 3096 
Q 1206 3584 1959 3584 
z
" transform="scale(0.015625)"/>
      <path id="DejaVuSans-77" d="M 269 3500 
L 844 3500 
L 1563 769 
L 2278 3500 
L 2956 3500 
L 3675 769 
L 4391 3500 
L 4966 3500 
L 4050 0 
L 3372 0 
L 2619 2869 
L 1863 0 
L 1184 0 
L 269 3500 
z
" transform="scale(0.015625)"/>
     </defs>
     <use xlink:href="#DejaVuSans-43"/>
     <use xlink:href="#DejaVuSans-61" x="69.824219"/>
     <use xlink:href="#DejaVuSans-70" x="131.103516"/>
     <use xlink:href="#DejaVuSans-65" x="194.580078"/>
     <use xlink:href="#DejaVuSans-20" x="256.103516"/>
     <use xlink:href="#DejaVuSans-54" x="287.890625"/>
     <use xlink:href="#DejaVuSans-6f" x="331.974609"/>
     <use xlink:href="#DejaVuSans-77" x="393.15625"/>
     <use xlink:href="#DejaVuSans-6e" x="474.943359"/>
    </g>
   </g>
  </g>
  <g id="axes_2">
   <g id="patch_55">
    <path d="M 486.981818 397.44 
L 748.8 397.44 
L 748.8 30.24 
L 486.981818 30.24 
z
" style="fill: #ffffff"/>
   </g>
   <g id="patch_56">
    <path d="M 496.332468 397.44 
L 552.436364 397.44 
L 552.436364 397.210138 
L 496.332468 397.210138 
z
" clip-path="url(#p5e1a505148)" style="fill: #ff0000"/>
   </g>
   <g id="patch_57">
    <path d="M 589.838961 397.44 
L 645.942857 397.44 
L 645.942857 396.114939 
L 589.838961 396.114939 
z
" clip-path="url(#p5e1a505148)" style="fill: #ff0000"/>
   </g>
   <g id="patch_58">
    <path d="M 683.345455 397.44 
L 739.449351 397.44 
L 739.449351 395.26922 
L 683.345455 395.26922 
z
" clip-path="url(#p5e1a505148)" style="fill: #ff0000"/>
   </g>
   <g id="patch_59">
    <path d="M 496.332468 397.210138 
L 552.436364 397.210138 
L 552.436364 396.015482 
L 496.332468 396.015482 
z
" clip-path="url(#p5e1a505148)"/>
   </g>
   <g id="patch_60">
    <path d="M 589.838961 396.114939 
L 645.942857 396.114939 
L 645.942857 393.830775 
L 589.838961 393.830775 
z
" clip-path="url(#p5e1a505148)"/>
   </g>
   <g id="patch_61">
    <path d="M 683.345455 395.26922 
L 739.449351 395.26922 
L 739.449351 393.374147 
L 683.345455 393.374147 
z
" clip-path="url(#p5e1a505148)"/>
   </g>
   <g id="patch_62">
    <path d="M 496.332468 396.015482 
L 552.436364 396.015482 
L 552.436364 394.741716 
L 496.332468 394.741716 
z
" clip-path="url(#p5e1a505148)" style="fill: #a5d8ff"/>
   </g>
   <g id="patch_63">
    <path d="M 589.838961 393.830775 
L 645.942857 393.830775 
L 645.942857 393.34295 
L 589.838961 393.34295 
z
" clip-path="url(#p5e1a505148)" style="fill: #a5d8ff"/>
   </g>
   <g id="patch_64">
    <path d="M 683.345455 393.374147 
L 739.449351 393.374147 
L 739.449351 393.131544 
L 683.345455 393.131544 
z
" clip-path="url(#p5e1a505148)" style="fill: #a5d8ff"/>
   </g>
   <g id="patch_65">
    <path d="M 496.332468 394.741716 
L 552.436364 394.741716 
L 552.436364 393.73133 
L 496.332468 393.73133 
z
" clip-path="url(#p5e1a505148)" style="fill: #ffe59a"/>
   </g>
   <g id="patch_66">
    <path d="M 589.838961 393.34295 
L 645.942857 393.34295 
L 645.942857 392.995885 
L 589.838961 392.995885 
z
" clip-path="url(#p5e1a505148)" style="fill: #ffe59a"/>
   </g>
   <g id="patch_67">
    <path d="M 683.345455 393.131544 
L 739.449351 393.131544 
L 739.449351 392.911584 
L 683.345455 392.911584 
z
" clip-path="url(#p5e1a505148)" style="fill: #ffe59a"/>
   </g>
   <g id="patch_68">
    <path d="M 496.332468 393.73133 
L 552.436364 393.73133 
L 552.436364 393.154592 
L 496.332468 393.154592 
z
" clip-path="url(#p5e1a505148)" style="fill: #a5c9a1"/>
   </g>
   <g id="patch_69">
    <path d="M 589.838961 392.995885 
L 645.942857 392.995885 
L 645.942857 392.707851 
L 589.838961 392.707851 
z
" clip-path="url(#p5e1a505148)" style="fill: #a5c9a1"/>
   </g>
   <g id="patch_70">
    <path d="M 683.345455 392.911584 
L 739.449351 392.911584 
L 739.449351 392.62107 
L 683.345455 392.62107 
z
" clip-path="url(#p5e1a505148)" style="fill: #a5c9a1"/>
   </g>
   <g id="patch_71">
    <path d="M 496.332468 393.154592 
L 552.436364 393.154592 
L 552.436364 392.329929 
L 496.332468 392.329929 
z
" clip-path="url(#p5e1a505148)" style="fill: #0000ff"/>
   </g>
   <g id="patch_72">
    <path d="M 589.838961 392.707851 
L 645.942857 392.707851 
L 645.942857 392.296874 
L 589.838961 392.296874 
z
" clip-path="url(#p5e1a505148)" style="fill: #0000ff"/>
   </g>
   <g id="patch_73">
    <path d="M 683.345455 392.62107 
L 739.449351 392.62107 
L 739.449351 392.395454 
L 683.345455 392.395454 
z
" clip-path="url(#p5e1a505148)" style="fill: #0000ff"/>
   </g>
   <g id="patch_74">
    <path d="M 496.332468 392.329929 
L 552.436364 392.329929 
L 552.436364 392.296096 
L 496.332468 392.296096 
z
" clip-path="url(#p5e1a505148)" style="fill: #e6e6fa"/>
   </g>
   <g id="patch_75">
    <path d="M 589.838961 392.296874 
L 645.942857 392.296874 
L 645.942857 391.941183 
L 589.838961 391.941183 
z
" clip-path="url(#p5e1a505148)" style="fill: #e6e6fa"/>
   </g>
   <g id="patch_76">
    <path d="M 683.345455 392.395454 
L 739.449351 392.395454 
L 739.449351 392.169307 
L 683.345455 392.169307 
z
" clip-path="url(#p5e1a505148)" style="fill: #e6e6fa"/>
   </g>
   <g id="patch_77">
    <path d="M 496.332468 392.296096 
L 552.436364 392.296096 
L 552.436364 392.272412 
L 496.332468 392.272412 
z
" clip-path="url(#p5e1a505148)" style="fill: #fa5f55"/>
   </g>
   <g id="patch_78">
    <path d="M 589.838961 391.941183 
L 645.942857 391.941183 
L 645.942857 391.817107 
L 589.838961 391.817107 
z
" clip-path="url(#p5e1a505148)" style="fill: #fa5f55"/>
   </g>
   <g id="patch_79">
    <path d="M 683.345455 392.169307 
L 739.449351 392.169307 
L 739.449351 391.879551 
L 683.345455 391.879551 
z
" clip-path="url(#p5e1a505148)" style="fill: #fa5f55"/>
   </g>
   <g id="patch_80">
    <path d="M 496.332468 392.272412 
L 552.436364 392.272412 
L 552.436364 392.023541 
L 496.332468 392.023541 
z
" clip-path="url(#p5e1a505148)" style="fill: #accbe1"/>
   </g>
   <g id="patch_81">
    <path d="M 589.838961 391.817107 
L 645.942857 391.817107 
L 645.942857 391.705508 
L 589.838961 391.705508 
z
" clip-path="url(#p5e1a505148)" style="fill: #accbe1"/>
   </g>
   <g id="patch_82">
    <path d="M 683.345455 391.879551 
L 739.449351 391.879551 
L 739.449351 391.602667 
L 683.345455 391.602667 
z
" clip-path="url(#p5e1a505148)" style="fill: #accbe1"/>
   </g>
   <g id="patch_83">
    <path d="M 496.332468 392.023541 
L 552.436364 392.023541 
L 552.436364 391.959009 
L 496.332468 391.959009 
z
" clip-path="url(#p5e1a505148)" style="fill: #b0d9b1"/>
   </g>
   <g id="patch_84">
    <path d="M 589.838961 391.705508 
L 645.942857 391.705508 
L 645.942857 391.553097 
L 589.838961 391.553097 
z
" clip-path="url(#p5e1a505148)" style="fill: #b0d9b1"/>
   </g>
   <g id="patch_85">
    <path d="M 683.345455 391.602667 
L 739.449351 391.602667 
L 739.449351 391.421857 
L 683.345455 391.421857 
z
" clip-path="url(#p5e1a505148)" style="fill: #b0d9b1"/>
   </g>
   <g id="patch_86">
    <path d="M 496.332468 391.959009 
L 552.436364 391.959009 
L 552.436364 391.902561 
L 496.332468 391.902561 
z
" clip-path="url(#p5e1a505148)" style="fill: #f7c59f"/>
   </g>
   <g id="patch_87">
    <path d="M 589.838961 391.553097 
L 645.942857 391.553097 
L 645.942857 391.416913 
L 589.838961 391.416913 
z
" clip-path="url(#p5e1a505148)" style="fill: #f7c59f"/>
   </g>
   <g id="patch_88">
    <path d="M 683.345455 391.421857 
L 739.449351 391.421857 
L 739.449351 391.116902 
L 683.345455 391.116902 
z
" clip-path="url(#p5e1a505148)" style="fill: #f7c59f"/>
   </g>
   <g id="patch_89">
    <path d="M 496.332468 391.902561 
L 552.436364 391.902561 
L 552.436364 391.837682 
L 496.332468 391.837682 
z
" clip-path="url(#p5e1a505148)" style="fill: #fadadd"/>
   </g>
   <g id="patch_90">
    <path d="M 589.838961 391.416913 
L 645.942857 391.416913 
L 645.942857 391.328177 
L 589.838961 391.328177 
z
" clip-path="url(#p5e1a505148)" style="fill: #fadadd"/>
   </g>
   <g id="patch_91">
    <path d="M 683.345455 391.116902 
L 739.449351 391.116902 
L 739.449351 390.941222 
L 683.345455 390.941222 
z
" clip-path="url(#p5e1a505148)" style="fill: #fadadd"/>
   </g>
   <g id="patch_92">
    <path d="M 496.332468 391.837682 
L 552.436364 391.837682 
L 552.436364 391.824447 
L 496.332468 391.824447 
z
" clip-path="url(#p5e1a505148)" style="fill: #add8e6"/>
   </g>
   <g id="patch_93">
    <path d="M 589.838961 391.328177 
L 645.942857 391.328177 
L 645.942857 391.092158 
L 589.838961 391.092158 
z
" clip-path="url(#p5e1a505148)" style="fill: #add8e6"/>
   </g>
   <g id="patch_94">
    <path d="M 683.345455 390.941222 
L 739.449351 390.941222 
L 739.449351 390.904946 
L 683.345455 390.904946 
z
" clip-path="url(#p5e1a505148)" style="fill: #add8e6"/>
   </g>
   <g id="patch_95">
    <path d="M 496.332468 391.824447 
L 552.436364 391.824447 
L 552.436364 391.820605 
L 496.332468 391.820605 
z
" clip-path="url(#p5e1a505148)" style="fill: #d4a5a5"/>
   </g>
   <g id="patch_96">
    <path d="M 589.838961 391.092158 
L 645.942857 391.092158 
L 645.942857 391.079729 
L 589.838961 391.079729 
z
" clip-path="url(#p5e1a505148)" style="fill: #d4a5a5"/>
   </g>
   <g id="patch_97">
    <path d="M 683.345455 390.904946 
L 739.449351 390.904946 
L 739.449351 390.630319 
L 683.345455 390.630319 
z
" clip-path="url(#p5e1a505148)" style="fill: #d4a5a5"/>
   </g>
   <g id="patch_98">
    <path d="M 496.332468 391.820605 
L 552.436364 391.820605 
L 552.436364 388.802032 
L 496.332468 388.802032 
z
" clip-path="url(#p5e1a505148)" style="fill: #d9d9d9"/>
   </g>
   <g id="patch_99">
    <path d="M 589.838961 391.079729 
L 645.942857 391.079729 
L 645.942857 388.802032 
L 589.838961 388.802032 
z
" clip-path="url(#p5e1a505148)" style="fill: #d9d9d9"/>
   </g>
   <g id="patch_100">
    <path d="M 683.345455 390.630319 
L 739.449351 390.630319 
L 739.449351 388.802032 
L 683.345455 388.802032 
z
" clip-path="url(#p5e1a505148)" style="fill: #d9d9d9"/>
   </g>
   <g id="patch_101">
    <path d="M 496.332468 397.44 
L 552.436364 397.44 
L 552.436364 397.44 
L 496.332468 397.44 
z
" clip-path="url(#p5e1a505148)" style="fill: #add8e6"/>
   </g>
   <g id="patch_102">
    <path d="M 589.838961 388.802032 
L 645.942857 388.802032 
L 645.942857 66.924084 
L 589.838961 66.924084 
z
" clip-path="url(#p5e1a505148)" style="fill: #add8e6"/>
   </g>
   <g id="patch_103">
    <path d="M 683.345455 388.802032 
L 739.449351 388.802032 
L 739.449351 47.725714 
L 683.345455 47.725714 
z
" clip-path="url(#p5e1a505148)" style="fill: #add8e6"/>
   </g>
   <g id="matplotlib.axis_3">
    <g id="xtick_4">
     <g id="line2d_10">
      <g>
       <use xlink:href="#mf7798a0e9e" x="524.384416" y="397.44" style="stroke: #000000; stroke-width: 0.8"/>
      </g>
     </g>
     <g id="text_13">
      <!-- H (n=27) -->
      <g transform="translate(492.223791 415.077813) scale(0.14 -0.14)">
       <defs>
        <path id="DejaVuSans-37" d="M 525 4666 
L 3525 4666 
L 3525 4397 
L 1831 0 
L 1172 0 
L 2766 4134 
L 525 4134 
L 525 4666 
z
" transform="scale(0.015625)"/>
       </defs>
       <use xlink:href="#DejaVuSans-48"/>
       <use xlink:href="#DejaVuSans-20" x="75.195312"/>
       <use xlink:href="#DejaVuSans-28" x="106.982422"/>
       <use xlink:href="#DejaVuSans-6e" x="145.996094"/>
       <use xlink:href="#DejaVuSans-3d" x="209.375"/>
       <use xlink:href="#DejaVuSans-32" x="293.164062"/>
       <use xlink:href="#DejaVuSans-37" x="356.787109"/>
       <use xlink:href="#DejaVuSans-29" x="420.410156"/>
      </g>
     </g>
    </g>
    <g id="xtick_5">
     <g id="line2d_11">
      <g>
       <use xlink:href="#mf7798a0e9e" x="617.890909" y="397.44" style="stroke: #000000; stroke-width: 0.8"/>
      </g>
     </g>
     <g id="text_14">
      <!-- ADNL (n=19) -->
      <g transform="translate(571.678878 415.077813) scale(0.14 -0.14)">
       <use xlink:href="#DejaVuSans-41"/>
       <use xlink:href="#DejaVuSans-44" x="68.408203"/>
       <use xlink:href="#DejaVuSans-4e" x="145.410156"/>
       <use xlink:href="#DejaVuSans-4c" x="220.214844"/>
       <use xlink:href="#DejaVuSans-20" x="275.927734"/>
       <use xlink:href="#DejaVuSans-28" x="307.714844"/>
       <use xlink:href="#DejaVuSans-6e" x="346.728516"/>
       <use xlink:href="#DejaVuSans-3d" x="410.107422"/>
       <use xlink:href="#DejaVuSans-31" x="493.896484"/>
       <use xlink:href="#DejaVuSans-39" x="557.519531"/>
       <use xlink:href="#DejaVuSans-29" x="621.142578"/>
      </g>
     </g>
    </g>
    <g id="xtick_6">
     <g id="line2d_12">
      <g>
       <use xlink:href="#mf7798a0e9e" x="711.397403" y="397.44" style="stroke: #000000; stroke-width: 0.8"/>
      </g>
     </g>
     <g id="text_15">
      <!-- ADL (n=37) -->
      <g transform="translate(670.422246 415.077813) scale(0.14 -0.14)">
       <use xlink:href="#DejaVuSans-41"/>
       <use xlink:href="#DejaVuSans-44" x="68.408203"/>
       <use xlink:href="#DejaVuSans-4c" x="145.410156"/>
       <use xlink:href="#DejaVuSans-20" x="201.123047"/>
       <use xlink:href="#DejaVuSans-28" x="232.910156"/>
       <use xlink:href="#DejaVuSans-6e" x="271.923828"/>
       <use xlink:href="#DejaVuSans-3d" x="335.302734"/>
       <use xlink:href="#DejaVuSans-33" x="419.091797"/>
       <use xlink:href="#DejaVuSans-37" x="482.714844"/>
       <use xlink:href="#DejaVuSans-29" x="546.337891"/>
      </g>
     </g>
    </g>
   </g>
   <g id="matplotlib.axis_4">
    <g id="ytick_7">
     <g id="line2d_13">
      <g>
       <use xlink:href="#m43bf251573" x="486.981818" y="397.44" style="stroke: #000000; stroke-width: 0.8"/>
      </g>
     </g>
     <g id="text_16">
      <!-- 0 -->
      <g transform="translate(473.619318 401.239219) scale(0.1 -0.1)">
       <use xlink:href="#DejaVuSans-30"/>
      </g>
     </g>
    </g>
    <g id="ytick_8">
     <g id="line2d_14">
      <g>
       <use xlink:href="#m43bf251573" x="486.981818" y="354.250162" style="stroke: #000000; stroke-width: 0.8"/>
      </g>
     </g>
     <g id="text_17">
      <!-- 5 -->
      <g transform="translate(473.619318 358.049381) scale(0.1 -0.1)">
       <use xlink:href="#DejaVuSans-35"/>
      </g>
     </g>
    </g>
    <g id="ytick_9">
     <g id="line2d_15">
      <g>
       <use xlink:href="#m43bf251573" x="486.981818" y="311.060325" style="stroke: #000000; stroke-width: 0.8"/>
      </g>
     </g>
     <g id="text_18">
      <!-- 10 -->
      <g transform="translate(467.256818 314.859543) scale(0.1 -0.1)">
       <use xlink:href="#DejaVuSans-31"/>
       <use xlink:href="#DejaVuSans-30" x="63.623047"/>
      </g>
     </g>
    </g>
    <g id="ytick_10">
     <g id="line2d_16">
      <g>
       <use xlink:href="#m43bf251573" x="486.981818" y="267.870487" style="stroke: #000000; stroke-width: 0.8"/>
      </g>
     </g>
     <g id="text_19">
      <!-- 15 -->
      <g transform="translate(467.256818 271.669706) scale(0.1 -0.1)">
       <use xlink:href="#DejaVuSans-31"/>
       <use xlink:href="#DejaVuSans-35" x="63.623047"/>
      </g>
     </g>
    </g>
    <g id="ytick_11">
     <g id="line2d_17">
      <g>
       <use xlink:href="#m43bf251573" x="486.981818" y="224.680649" style="stroke: #000000; stroke-width: 0.8"/>
      </g>
     </g>
     <g id="text_20">
      <!-- 20 -->
      <g transform="translate(467.256818 228.479868) scale(0.1 -0.1)">
       <use xlink:href="#DejaVuSans-32"/>
       <use xlink:href="#DejaVuSans-30" x="63.623047"/>
      </g>
     </g>
    </g>
    <g id="ytick_12">
     <g id="line2d_18">
      <g>
       <use xlink:href="#m43bf251573" x="486.981818" y="181.490812" style="stroke: #000000; stroke-width: 0.8"/>
      </g>
     </g>
     <g id="text_21">
      <!-- 25 -->
      <g transform="translate(467.256818 185.29003) scale(0.1 -0.1)">
       <use xlink:href="#DejaVuSans-32"/>
       <use xlink:href="#DejaVuSans-35" x="63.623047"/>
      </g>
     </g>
    </g>
    <g id="ytick_13">
     <g id="line2d_19">
      <g>
       <use xlink:href="#m43bf251573" x="486.981818" y="138.300974" style="stroke: #000000; stroke-width: 0.8"/>
      </g>
     </g>
     <g id="text_22">
      <!-- 30 -->
      <g transform="translate(467.256818 142.100193) scale(0.1 -0.1)">
       <use xlink:href="#DejaVuSans-33"/>
       <use xlink:href="#DejaVuSans-30" x="63.623047"/>
      </g>
     </g>
    </g>
    <g id="ytick_14">
     <g id="line2d_20">
      <g>
       <use xlink:href="#m43bf251573" x="486.981818" y="95.111136" style="stroke: #000000; stroke-width: 0.8"/>
      </g>
     </g>
     <g id="text_23">
      <!-- 35 -->
      <g transform="translate(467.256818 98.910355) scale(0.1 -0.1)">
       <use xlink:href="#DejaVuSans-33"/>
       <use xlink:href="#DejaVuSans-35" x="63.623047"/>
      </g>
     </g>
    </g>
    <g id="ytick_15">
     <g id="line2d_21">
      <g>
       <use xlink:href="#m43bf251573" x="486.981818" y="51.921299" style="stroke: #000000; stroke-width: 0.8"/>
      </g>
     </g>
     <g id="text_24">
      <!-- 40 -->
      <g transform="translate(467.256818 55.720517) scale(0.1 -0.1)">
       <use xlink:href="#DejaVuSans-34"/>
       <use xlink:href="#DejaVuSans-30" x="63.623047"/>
      </g>
     </g>
    </g>
    <g id="text_25">
     <!-- Relative Abundance -->
     <g transform="translate(460.345256 283.725156) rotate(-90) scale(0.14 -0.14)">
      <use xlink:href="#DejaVuSans-52"/>
      <use xlink:href="#DejaVuSans-65" x="64.982422"/>
      <use xlink:href="#DejaVuSans-6c" x="126.505859"/>
      <use xlink:href="#DejaVuSans-61" x="154.289062"/>
      <use xlink:href="#DejaVuSans-74" x="215.568359"/>
      <use xlink:href="#DejaVuSans-69" x="254.777344"/>
      <use xlink:href="#DejaVuSans-76" x="282.560547"/>
      <use xlink:href="#DejaVuSans-65" x="341.740234"/>
      <use xlink:href="#DejaVuSans-20" x="403.263672"/>
      <use xlink:href="#DejaVuSans-41" x="435.050781"/>
      <use xlink:href="#DejaVuSans-62" x="503.458984"/>
      <use xlink:href="#DejaVuSans-75" x="566.935547"/>
      <use xlink:href="#DejaVuSans-6e" x="630.314453"/>
      <use xlink:href="#DejaVuSans-64" x="693.693359"/>
      <use xlink:href="#DejaVuSans-61" x="757.169922"/>
      <use xlink:href="#DejaVuSans-6e" x="818.449219"/>
      <use xlink:href="#DejaVuSans-63" x="881.828125"/>
      <use xlink:href="#DejaVuSans-65" x="936.808594"/>
     </g>
    </g>
   </g>
   <g id="patch_104">
    <path d="M 486.981818 397.44 
L 486.981818 30.24 
" style="fill: none; stroke: #000000; stroke-width: 0.8; stroke-linejoin: miter; stroke-linecap: square"/>
   </g>
   <g id="patch_105">
    <path d="M 748.8 397.44 
L 748.8 30.24 
" style="fill: none; stroke: #000000; stroke-width: 0.8; stroke-linejoin: miter; stroke-linecap: square"/>
   </g>
   <g id="patch_106">
    <path d="M 486.981818 397.44 
L 748.8 397.44 
" style="fill: none; stroke: #000000; stroke-width: 0.8; stroke-linejoin: miter; stroke-linecap: square"/>
   </g>
   <g id="patch_107">
    <path d="M 486.981818 30.24 
L 748.8 30.24 
" style="fill: none; stroke: #000000; stroke-width: 0.8; stroke-linejoin: miter; stroke-linecap: square"/>
   </g>
   <g id="text_26">
    <!-- Umtata -->
    <g transform="translate(584.450284 24.24) scale(0.18 -0.18)">
     <defs>
      <path id="DejaVuSans-55" d="M 556 4666 
L 1191 4666 
L 1191 1831 
Q 1191 1081 1462 751 
Q 1734 422 2344 422 
Q 2950 422 3222 751 
Q 3494 1081 3494 1831 
L 3494 4666 
L 4128 4666 
L 4128 1753 
Q 4128 841 3676 375 
Q 3225 -91 2344 -91 
Q 1459 -91 1007 375 
Q 556 841 556 1753 
L 556 4666 
z
" transform="scale(0.015625)"/>
      <path id="DejaVuSans-6d" d="M 3328 2828 
Q 3544 3216 3844 3400 
Q 4144 3584 4550 3584 
Q 5097 3584 5394 3201 
Q 5691 2819 5691 2113 
L 5691 0 
L 5113 0 
L 5113 2094 
Q 5113 2597 4934 2840 
Q 4756 3084 4391 3084 
Q 3944 3084 3684 2787 
Q 3425 2491 3425 1978 
L 3425 0 
L 2847 0 
L 2847 2094 
Q 2847 2600 2669 2842 
Q 2491 3084 2119 3084 
Q 1678 3084 1418 2786 
Q 1159 2488 1159 1978 
L 1159 0 
L 581 0 
L 581 3500 
L 1159 3500 
L 1159 2956 
Q 1356 3278 1631 3431 
Q 1906 3584 2284 3584 
Q 2666 3584 2933 3390 
Q 3200 3197 3328 2828 
z
" transform="scale(0.015625)"/>
     </defs>
     <use xlink:href="#DejaVuSans-55"/>
     <use xlink:href="#DejaVuSans-6d" x="73.193359"/>
     <use xlink:href="#DejaVuSans-74" x="170.605469"/>
     <use xlink:href="#DejaVuSans-61" x="209.814453"/>
     <use xlink:href="#DejaVuSans-74" x="271.09375"/>
     <use xlink:href="#DejaVuSans-61" x="310.302734"/>
    </g>
   </g>
  </g>
  <g id="text_27">
   <!-- Relative Abundance Skin -->
   <g transform="translate(451.73125 -6.403125) scale(0.2 -0.2)">
    <defs>
     <path id="DejaVuSans-53" d="M 3425 4513 
L 3425 3897 
Q 3066 4069 2747 4153 
Q 2428 4238 2131 4238 
Q 1616 4238 1336 4038 
Q 1056 3838 1056 3469 
Q 1056 3159 1242 3001 
Q 1428 2844 1947 2747 
L 2328 2669 
Q 3034 2534 3370 2195 
Q 3706 1856 3706 1288 
Q 3706 609 3251 259 
Q 2797 -91 1919 -91 
Q 1588 -91 1214 -16 
Q 841 59 441 206 
L 441 856 
Q 825 641 1194 531 
Q 1563 422 1919 422 
Q 2459 422 2753 634 
Q 3047 847 3047 1241 
Q 3047 1584 2836 1778 
Q 2625 1972 2144 2069 
L 1759 2144 
Q 1053 2284 737 2584 
Q 422 2884 422 3419 
Q 422 4038 858 4394 
Q 1294 4750 2059 4750 
Q 2388 4750 2728 4690 
Q 3069 4631 3425 4513 
z
" transform="scale(0.015625)"/>
     <path id="DejaVuSans-6b" d="M 581 4863 
L 1159 4863 
L 1159 1991 
L 2875 3500 
L 3609 3500 
L 1753 1863 
L 3688 0 
L 2938 0 
L 1159 1709 
L 1159 0 
L 581 0 
L 581 4863 
z
" transform="scale(0.015625)"/>
    </defs>
    <use xlink:href="#DejaVuSans-52"/>
    <use xlink:href="#DejaVuSans-65" x="64.982422"/>
    <use xlink:href="#DejaVuSans-6c" x="126.505859"/>
    <use xlink:href="#DejaVuSans-61" x="154.289062"/>
    <use xlink:href="#DejaVuSans-74" x="215.568359"/>
    <use xlink:href="#DejaVuSans-69" x="254.777344"/>
    <use xlink:href="#DejaVuSans-76" x="282.560547"/>
    <use xlink:href="#DejaVuSans-65" x="341.740234"/>
    <use xlink:href="#DejaVuSans-20" x="403.263672"/>
    <use xlink:href="#DejaVuSans-41" x="435.050781"/>
    <use xlink:href="#DejaVuSans-62" x="503.458984"/>
    <use xlink:href="#DejaVuSans-75" x="566.935547"/>
    <use xlink:href="#DejaVuSans-6e" x="630.314453"/>
    <use xlink:href="#DejaVuSans-64" x="693.693359"/>
    <use xlink:href="#DejaVuSans-61" x="757.169922"/>
    <use xlink:href="#DejaVuSans-6e" x="818.449219"/>
    <use xlink:href="#DejaVuSans-63" x="881.828125"/>
    <use xlink:href="#DejaVuSans-65" x="936.808594"/>
    <use xlink:href="#DejaVuSans-20" x="998.332031"/>
    <use xlink:href="#DejaVuSans-53" x="1030.119141"/>
    <use xlink:href="#DejaVuSans-6b" x="1093.595703"/>
    <use xlink:href="#DejaVuSans-69" x="1151.505859"/>
    <use xlink:href="#DejaVuSans-6e" x="1179.289062"/>
   </g>
  </g>
  <g id="legend_1">
   <g id="patch_108">
    <path d="M 757.2 370.987812 
L 977.244375 370.987812 
Q 979.644375 370.987812 979.644375 368.587812 
L 979.644375 63.412188 
Q 979.644375 61.012188 977.244375 61.012188 
L 757.2 61.012188 
Q 754.8 61.012188 754.8 63.412188 
L 754.8 368.587812 
Q 754.8 370.987812 757.2 370.987812 
z
" style="fill: #ffffff; opacity: 0.8; stroke: #cccccc; stroke-linejoin: miter"/>
   </g>
   <g id="text_28">
    <!-- Genus -->
    <g transform="translate(844.972031 76.45) scale(0.14 -0.14)">
     <defs>
      <path id="DejaVuSans-47" d="M 3809 666 
L 3809 1919 
L 2778 1919 
L 2778 2438 
L 4434 2438 
L 4434 434 
Q 4069 175 3628 42 
Q 3188 -91 2688 -91 
Q 1594 -91 976 548 
Q 359 1188 359 2328 
Q 359 3472 976 4111 
Q 1594 4750 2688 4750 
Q 3144 4750 3555 4637 
Q 3966 4525 4313 4306 
L 4313 3634 
Q 3963 3931 3569 4081 
Q 3175 4231 2741 4231 
Q 1884 4231 1454 3753 
Q 1025 3275 1025 2328 
Q 1025 1384 1454 906 
Q 1884 428 2741 428 
Q 3075 428 3337 486 
Q 3600 544 3809 666 
z
" transform="scale(0.015625)"/>
      <path id="DejaVuSans-73" d="M 2834 3397 
L 2834 2853 
Q 2591 2978 2328 3040 
Q 2066 3103 1784 3103 
Q 1356 3103 1142 2972 
Q 928 2841 928 2578 
Q 928 2378 1081 2264 
Q 1234 2150 1697 2047 
L 1894 2003 
Q 2506 1872 2764 1633 
Q 3022 1394 3022 966 
Q 3022 478 2636 193 
Q 2250 -91 1575 -91 
Q 1294 -91 989 -36 
Q 684 19 347 128 
L 347 722 
Q 666 556 975 473 
Q 1284 391 1588 391 
Q 1994 391 2212 530 
Q 2431 669 2431 922 
Q 2431 1156 2273 1281 
Q 2116 1406 1581 1522 
L 1381 1569 
Q 847 1681 609 1914 
Q 372 2147 372 2553 
Q 372 3047 722 3315 
Q 1072 3584 1716 3584 
Q 2034 3584 2315 3537 
Q 2597 3491 2834 3397 
z
" transform="scale(0.015625)"/>
     </defs>
     <use xlink:href="#DejaVuSans-47"/>
     <use xlink:href="#DejaVuSans-65" x="77.490234"/>
     <use xlink:href="#DejaVuSans-6e" x="139.013672"/>
     <use xlink:href="#DejaVuSans-75" x="202.392578"/>
     <use xlink:href="#DejaVuSans-73" x="265.771484"/>
    </g>
   </g>
   <g id="patch_109">
    <path d="M 759.6 94.479688 
L 783.6 94.479688 
L 783.6 86.079688 
L 759.6 86.079688 
z
" style="fill: #ff0000"/>
   </g>
   <g id="text_29">
    <!-- g__Streptococcus -->
    <g transform="translate(793.2 94.479688) scale(0.12 -0.12)">
     <defs>
      <path id="DejaVuSans-67" d="M 2906 1791 
Q 2906 2416 2648 2759 
Q 2391 3103 1925 3103 
Q 1463 3103 1205 2759 
Q 947 2416 947 1791 
Q 947 1169 1205 825 
Q 1463 481 1925 481 
Q 2391 481 2648 825 
Q 2906 1169 2906 1791 
z
M 3481 434 
Q 3481 -459 3084 -895 
Q 2688 -1331 1869 -1331 
Q 1566 -1331 1297 -1286 
Q 1028 -1241 775 -1147 
L 775 -588 
Q 1028 -725 1275 -790 
Q 1522 -856 1778 -856 
Q 2344 -856 2625 -561 
Q 2906 -266 2906 331 
L 2906 616 
Q 2728 306 2450 153 
Q 2172 0 1784 0 
Q 1141 0 747 490 
Q 353 981 353 1791 
Q 353 2603 747 3093 
Q 1141 3584 1784 3584 
Q 2172 3584 2450 3431 
Q 2728 3278 2906 2969 
L 2906 3500 
L 3481 3500 
L 3481 434 
z
" transform="scale(0.015625)"/>
      <path id="DejaVuSans-5f" d="M 3263 -1063 
L 3263 -1509 
L -63 -1509 
L -63 -1063 
L 3263 -1063 
z
" transform="scale(0.015625)"/>
      <path id="DejaVuSans-72" d="M 2631 2963 
Q 2534 3019 2420 3045 
Q 2306 3072 2169 3072 
Q 1681 3072 1420 2755 
Q 1159 2438 1159 1844 
L 1159 0 
L 581 0 
L 581 3500 
L 1159 3500 
L 1159 2956 
Q 1341 3275 1631 3429 
Q 1922 3584 2338 3584 
Q 2397 3584 2469 3576 
Q 2541 3569 2628 3553 
L 2631 2963 
z
" transform="scale(0.015625)"/>
     </defs>
     <use xlink:href="#DejaVuSans-67"/>
     <use xlink:href="#DejaVuSans-5f" x="63.476562"/>
     <use xlink:href="#DejaVuSans-5f" x="113.476562"/>
     <use xlink:href="#DejaVuSans-53" x="163.476562"/>
     <use xlink:href="#DejaVuSans-74" x="226.953125"/>
     <use xlink:href="#DejaVuSans-72" x="266.162109"/>
     <use xlink:href="#DejaVuSans-65" x="305.025391"/>
     <use xlink:href="#DejaVuSans-70" x="366.548828"/>
     <use xlink:href="#DejaVuSans-74" x="430.025391"/>
     <use xlink:href="#DejaVuSans-6f" x="469.234375"/>
     <use xlink:href="#DejaVuSans-63" x="530.416016"/>
     <use xlink:href="#DejaVuSans-6f" x="585.396484"/>
     <use xlink:href="#DejaVuSans-63" x="646.578125"/>
     <use xlink:href="#DejaVuSans-63" x="701.558594"/>
     <use xlink:href="#DejaVuSans-75" x="756.539062"/>
     <use xlink:href="#DejaVuSans-73" x="819.917969"/>
    </g>
   </g>
   <g id="patch_110">
    <path d="M 759.6 112.427188 
L 783.6 112.427188 
L 783.6 104.027188 
L 759.6 104.027188 
z
"/>
   </g>
   <g id="text_30">
    <!-- g__Staphylococcus -->
    <g transform="translate(793.2 112.427188) scale(0.12 -0.12)">
     <defs>
      <path id="DejaVuSans-68" d="M 3513 2113 
L 3513 0 
L 2938 0 
L 2938 2094 
Q 2938 2591 2744 2837 
Q 2550 3084 2163 3084 
Q 1697 3084 1428 2787 
Q 1159 2491 1159 1978 
L 1159 0 
L 581 0 
L 581 4863 
L 1159 4863 
L 1159 2956 
Q 1366 3272 1645 3428 
Q 1925 3584 2291 3584 
Q 2894 3584 3203 3211 
Q 3513 2838 3513 2113 
z
" transform="scale(0.015625)"/>
      <path id="DejaVuSans-79" d="M 2059 -325 
Q 1816 -950 1584 -1140 
Q 1353 -1331 966 -1331 
L 506 -1331 
L 506 -850 
L 844 -850 
Q 1081 -850 1212 -737 
Q 1344 -625 1503 -206 
L 1606 56 
L 191 3500 
L 800 3500 
L 1894 763 
L 2988 3500 
L 3597 3500 
L 2059 -325 
z
" transform="scale(0.015625)"/>
     </defs>
     <use xlink:href="#DejaVuSans-67"/>
     <use xlink:href="#DejaVuSans-5f" x="63.476562"/>
     <use xlink:href="#DejaVuSans-5f" x="113.476562"/>
     <use xlink:href="#DejaVuSans-53" x="163.476562"/>
     <use xlink:href="#DejaVuSans-74" x="226.953125"/>
     <use xlink:href="#DejaVuSans-61" x="266.162109"/>
     <use xlink:href="#DejaVuSans-70" x="327.441406"/>
     <use xlink:href="#DejaVuSans-68" x="390.917969"/>
     <use xlink:href="#DejaVuSans-79" x="454.296875"/>
     <use xlink:href="#DejaVuSans-6c" x="513.476562"/>
     <use xlink:href="#DejaVuSans-6f" x="541.259766"/>
     <use xlink:href="#DejaVuSans-63" x="602.441406"/>
     <use xlink:href="#DejaVuSans-6f" x="657.421875"/>
     <use xlink:href="#DejaVuSans-63" x="718.603516"/>
     <use xlink:href="#DejaVuSans-63" x="773.583984"/>
     <use xlink:href="#DejaVuSans-75" x="828.564453"/>
     <use xlink:href="#DejaVuSans-73" x="891.943359"/>
    </g>
   </g>
   <g id="patch_111">
    <path d="M 759.6 130.374688 
L 783.6 130.374688 
L 783.6 121.974688 
L 759.6 121.974688 
z
" style="fill: #a5d8ff"/>
   </g>
   <g id="text_31">
    <!-- g__Corynebacterium -->
    <g transform="translate(793.2 130.374688) scale(0.12 -0.12)">
     <use xlink:href="#DejaVuSans-67"/>
     <use xlink:href="#DejaVuSans-5f" x="63.476562"/>
     <use xlink:href="#DejaVuSans-5f" x="113.476562"/>
     <use xlink:href="#DejaVuSans-43" x="163.476562"/>
     <use xlink:href="#DejaVuSans-6f" x="233.300781"/>
     <use xlink:href="#DejaVuSans-72" x="294.482422"/>
     <use xlink:href="#DejaVuSans-79" x="335.595703"/>
     <use xlink:href="#DejaVuSans-6e" x="394.775391"/>
     <use xlink:href="#DejaVuSans-65" x="458.154297"/>
     <use xlink:href="#DejaVuSans-62" x="519.677734"/>
     <use xlink:href="#DejaVuSans-61" x="583.154297"/>
     <use xlink:href="#DejaVuSans-63" x="644.433594"/>
     <use xlink:href="#DejaVuSans-74" x="699.414062"/>
     <use xlink:href="#DejaVuSans-65" x="738.623047"/>
     <use xlink:href="#DejaVuSans-72" x="800.146484"/>
     <use xlink:href="#DejaVuSans-69" x="841.259766"/>
     <use xlink:href="#DejaVuSans-75" x="869.042969"/>
     <use xlink:href="#DejaVuSans-6d" x="932.421875"/>
    </g>
   </g>
   <g id="patch_112">
    <path d="M 759.6 148.322188 
L 783.6 148.322188 
L 783.6 139.922188 
L 759.6 139.922188 
z
" style="fill: #ffe59a"/>
   </g>
   <g id="text_32">
    <!-- g__Acinetobacter -->
    <g transform="translate(793.2 148.322188) scale(0.12 -0.12)">
     <use xlink:href="#DejaVuSans-67"/>
     <use xlink:href="#DejaVuSans-5f" x="63.476562"/>
     <use xlink:href="#DejaVuSans-5f" x="113.476562"/>
     <use xlink:href="#DejaVuSans-41" x="163.476562"/>
     <use xlink:href="#DejaVuSans-63" x="230.134766"/>
     <use xlink:href="#DejaVuSans-69" x="285.115234"/>
     <use xlink:href="#DejaVuSans-6e" x="312.898438"/>
     <use xlink:href="#DejaVuSans-65" x="376.277344"/>
     <use xlink:href="#DejaVuSans-74" x="437.800781"/>
     <use xlink:href="#DejaVuSans-6f" x="477.009766"/>
     <use xlink:href="#DejaVuSans-62" x="538.191406"/>
     <use xlink:href="#DejaVuSans-61" x="601.667969"/>
     <use xlink:href="#DejaVuSans-63" x="662.947266"/>
     <use xlink:href="#DejaVuSans-74" x="717.927734"/>
     <use xlink:href="#DejaVuSans-65" x="757.136719"/>
     <use xlink:href="#DejaVuSans-72" x="818.660156"/>
    </g>
   </g>
   <g id="patch_113">
    <path d="M 759.6 166.269688 
L 783.6 166.269688 
L 783.6 157.869688 
L 759.6 157.869688 
z
" style="fill: #a5c9a1"/>
   </g>
   <g id="text_33">
    <!-- g__Prevotella -->
    <g transform="translate(793.2 166.269688) scale(0.12 -0.12)">
     <defs>
      <path id="DejaVuSans-50" d="M 1259 4147 
L 1259 2394 
L 2053 2394 
Q 2494 2394 2734 2622 
Q 2975 2850 2975 3272 
Q 2975 3691 2734 3919 
Q 2494 4147 2053 4147 
L 1259 4147 
z
M 628 4666 
L 2053 4666 
Q 2838 4666 3239 4311 
Q 3641 3956 3641 3272 
Q 3641 2581 3239 2228 
Q 2838 1875 2053 1875 
L 1259 1875 
L 1259 0 
L 628 0 
L 628 4666 
z
" transform="scale(0.015625)"/>
     </defs>
     <use xlink:href="#DejaVuSans-67"/>
     <use xlink:href="#DejaVuSans-5f" x="63.476562"/>
     <use xlink:href="#DejaVuSans-5f" x="113.476562"/>
     <use xlink:href="#DejaVuSans-50" x="163.476562"/>
     <use xlink:href="#DejaVuSans-72" x="222.029297"/>
     <use xlink:href="#DejaVuSans-65" x="260.892578"/>
     <use xlink:href="#DejaVuSans-76" x="322.416016"/>
     <use xlink:href="#DejaVuSans-6f" x="381.595703"/>
     <use xlink:href="#DejaVuSans-74" x="442.777344"/>
     <use xlink:href="#DejaVuSans-65" x="481.986328"/>
     <use xlink:href="#DejaVuSans-6c" x="543.509766"/>
     <use xlink:href="#DejaVuSans-6c" x="571.292969"/>
     <use xlink:href="#DejaVuSans-61" x="599.076172"/>
    </g>
   </g>
   <g id="patch_114">
    <path d="M 759.6 184.217188 
L 783.6 184.217188 
L 783.6 175.817188 
L 759.6 175.817188 
z
" style="fill: #0000ff"/>
   </g>
   <g id="text_34">
    <!-- g__Micrococcus -->
    <g transform="translate(793.2 184.217188) scale(0.12 -0.12)">
     <defs>
      <path id="DejaVuSans-4d" d="M 628 4666 
L 1569 4666 
L 2759 1491 
L 3956 4666 
L 4897 4666 
L 4897 0 
L 4281 0 
L 4281 4097 
L 3078 897 
L 2444 897 
L 1241 4097 
L 1241 0 
L 628 0 
L 628 4666 
z
" transform="scale(0.015625)"/>
     </defs>
     <use xlink:href="#DejaVuSans-67"/>
     <use xlink:href="#DejaVuSans-5f" x="63.476562"/>
     <use xlink:href="#DejaVuSans-5f" x="113.476562"/>
     <use xlink:href="#DejaVuSans-4d" x="163.476562"/>
     <use xlink:href="#DejaVuSans-69" x="249.755859"/>
     <use xlink:href="#DejaVuSans-63" x="277.539062"/>
     <use xlink:href="#DejaVuSans-72" x="332.519531"/>
     <use xlink:href="#DejaVuSans-6f" x="371.382812"/>
     <use xlink:href="#DejaVuSans-63" x="432.564453"/>
     <use xlink:href="#DejaVuSans-6f" x="487.544922"/>
     <use xlink:href="#DejaVuSans-63" x="548.726562"/>
     <use xlink:href="#DejaVuSans-63" x="603.707031"/>
     <use xlink:href="#DejaVuSans-75" x="658.6875"/>
     <use xlink:href="#DejaVuSans-73" x="722.066406"/>
    </g>
   </g>
   <g id="patch_115">
    <path d="M 759.6 202.164688 
L 783.6 202.164688 
L 783.6 193.764688 
L 759.6 193.764688 
z
" style="fill: #e6e6fa"/>
   </g>
   <g id="text_35">
    <!-- g__Haemophilus_D_734546 -->
    <g transform="translate(793.2 202.164688) scale(0.12 -0.12)">
     <defs>
      <path id="DejaVuSans-36" d="M 2113 2584 
Q 1688 2584 1439 2293 
Q 1191 2003 1191 1497 
Q 1191 994 1439 701 
Q 1688 409 2113 409 
Q 2538 409 2786 701 
Q 3034 994 3034 1497 
Q 3034 2003 2786 2293 
Q 2538 2584 2113 2584 
z
M 3366 4563 
L 3366 3988 
Q 3128 4100 2886 4159 
Q 2644 4219 2406 4219 
Q 1781 4219 1451 3797 
Q 1122 3375 1075 2522 
Q 1259 2794 1537 2939 
Q 1816 3084 2150 3084 
Q 2853 3084 3261 2657 
Q 3669 2231 3669 1497 
Q 3669 778 3244 343 
Q 2819 -91 2113 -91 
Q 1303 -91 875 529 
Q 447 1150 447 2328 
Q 447 3434 972 4092 
Q 1497 4750 2381 4750 
Q 2619 4750 2861 4703 
Q 3103 4656 3366 4563 
z
" transform="scale(0.015625)"/>
     </defs>
     <use xlink:href="#DejaVuSans-67"/>
     <use xlink:href="#DejaVuSans-5f" x="63.476562"/>
     <use xlink:href="#DejaVuSans-5f" x="113.476562"/>
     <use xlink:href="#DejaVuSans-48" x="163.476562"/>
     <use xlink:href="#DejaVuSans-61" x="238.671875"/>
     <use xlink:href="#DejaVuSans-65" x="299.951172"/>
     <use xlink:href="#DejaVuSans-6d" x="361.474609"/>
     <use xlink:href="#DejaVuSans-6f" x="458.886719"/>
     <use xlink:href="#DejaVuSans-70" x="520.068359"/>
     <use xlink:href="#DejaVuSans-68" x="583.544922"/>
     <use xlink:href="#DejaVuSans-69" x="646.923828"/>
     <use xlink:href="#DejaVuSans-6c" x="674.707031"/>
     <use xlink:href="#DejaVuSans-75" x="702.490234"/>
     <use xlink:href="#DejaVuSans-73" x="765.869141"/>
     <use xlink:href="#DejaVuSans-5f" x="817.96875"/>
     <use xlink:href="#DejaVuSans-44" x="867.96875"/>
     <use xlink:href="#DejaVuSans-5f" x="944.970703"/>
     <use xlink:href="#DejaVuSans-37" x="994.970703"/>
     <use xlink:href="#DejaVuSans-33" x="1058.59375"/>
     <use xlink:href="#DejaVuSans-34" x="1122.216797"/>
     <use xlink:href="#DejaVuSans-35" x="1185.839844"/>
     <use xlink:href="#DejaVuSans-34" x="1249.462891"/>
     <use xlink:href="#DejaVuSans-36" x="1313.085938"/>
    </g>
   </g>
   <g id="patch_116">
    <path d="M 759.6 220.112188 
L 783.6 220.112188 
L 783.6 211.712187 
L 759.6 211.712187 
z
" style="fill: #fa5f55"/>
   </g>
   <g id="text_36">
    <!-- g__Veillonella_A -->
    <g transform="translate(793.2 220.112188) scale(0.12 -0.12)">
     <defs>
      <path id="DejaVuSans-56" d="M 1831 0 
L 50 4666 
L 709 4666 
L 2188 738 
L 3669 4666 
L 4325 4666 
L 2547 0 
L 1831 0 
z
" transform="scale(0.015625)"/>
     </defs>
     <use xlink:href="#DejaVuSans-67"/>
     <use xlink:href="#DejaVuSans-5f" x="63.476562"/>
     <use xlink:href="#DejaVuSans-5f" x="113.476562"/>
     <use xlink:href="#DejaVuSans-56" x="163.476562"/>
     <use xlink:href="#DejaVuSans-65" x="224.134766"/>
     <use xlink:href="#DejaVuSans-69" x="285.658203"/>
     <use xlink:href="#DejaVuSans-6c" x="313.441406"/>
     <use xlink:href="#DejaVuSans-6c" x="341.224609"/>
     <use xlink:href="#DejaVuSans-6f" x="369.007812"/>
     <use xlink:href="#DejaVuSans-6e" x="430.189453"/>
     <use xlink:href="#DejaVuSans-65" x="493.568359"/>
     <use xlink:href="#DejaVuSans-6c" x="555.091797"/>
     <use xlink:href="#DejaVuSans-6c" x="582.875"/>
     <use xlink:href="#DejaVuSans-61" x="610.658203"/>
     <use xlink:href="#DejaVuSans-5f" x="671.9375"/>
     <use xlink:href="#DejaVuSans-41" x="721.9375"/>
    </g>
   </g>
   <g id="patch_117">
    <path d="M 759.6 238.059687 
L 783.6 238.059687 
L 783.6 229.659687 
L 759.6 229.659687 
z
" style="fill: #accbe1"/>
   </g>
   <g id="text_37">
    <!-- g__Psychrobacter -->
    <g transform="translate(793.2 238.059687) scale(0.12 -0.12)">
     <use xlink:href="#DejaVuSans-67"/>
     <use xlink:href="#DejaVuSans-5f" x="63.476562"/>
     <use xlink:href="#DejaVuSans-5f" x="113.476562"/>
     <use xlink:href="#DejaVuSans-50" x="163.476562"/>
     <use xlink:href="#DejaVuSans-73" x="222.029297"/>
     <use xlink:href="#DejaVuSans-79" x="274.128906"/>
     <use xlink:href="#DejaVuSans-63" x="333.308594"/>
     <use xlink:href="#DejaVuSans-68" x="388.289062"/>
     <use xlink:href="#DejaVuSans-72" x="451.667969"/>
     <use xlink:href="#DejaVuSans-6f" x="490.53125"/>
     <use xlink:href="#DejaVuSans-62" x="551.712891"/>
     <use xlink:href="#DejaVuSans-61" x="615.189453"/>
     <use xlink:href="#DejaVuSans-63" x="676.46875"/>
     <use xlink:href="#DejaVuSans-74" x="731.449219"/>
     <use xlink:href="#DejaVuSans-65" x="770.658203"/>
     <use xlink:href="#DejaVuSans-72" x="832.181641"/>
    </g>
   </g>
   <g id="patch_118">
    <path d="M 759.6 256.007187 
L 783.6 256.007187 
L 783.6 247.607187 
L 759.6 247.607187 
z
" style="fill: #b0d9b1"/>
   </g>
   <g id="text_38">
    <!-- g__Neisseria_563205 -->
    <g transform="translate(793.2 256.007187) scale(0.12 -0.12)">
     <use xlink:href="#DejaVuSans-67"/>
     <use xlink:href="#DejaVuSans-5f" x="63.476562"/>
     <use xlink:href="#DejaVuSans-5f" x="113.476562"/>
     <use xlink:href="#DejaVuSans-4e" x="163.476562"/>
     <use xlink:href="#DejaVuSans-65" x="238.28125"/>
     <use xlink:href="#DejaVuSans-69" x="299.804688"/>
     <use xlink:href="#DejaVuSans-73" x="327.587891"/>
     <use xlink:href="#DejaVuSans-73" x="379.6875"/>
     <use xlink:href="#DejaVuSans-65" x="431.787109"/>
     <use xlink:href="#DejaVuSans-72" x="493.310547"/>
     <use xlink:href="#DejaVuSans-69" x="534.423828"/>
     <use xlink:href="#DejaVuSans-61" x="562.207031"/>
     <use xlink:href="#DejaVuSans-5f" x="623.486328"/>
     <use xlink:href="#DejaVuSans-35" x="673.486328"/>
     <use xlink:href="#DejaVuSans-36" x="737.109375"/>
     <use xlink:href="#DejaVuSans-33" x="800.732422"/>
     <use xlink:href="#DejaVuSans-32" x="864.355469"/>
     <use xlink:href="#DejaVuSans-30" x="927.978516"/>
     <use xlink:href="#DejaVuSans-35" x="991.601562"/>
    </g>
   </g>
   <g id="patch_119">
    <path d="M 759.6 273.954687 
L 783.6 273.954687 
L 783.6 265.554688 
L 759.6 265.554688 
z
" style="fill: #f7c59f"/>
   </g>
   <g id="text_39">
    <!-- g__SIO2C1 -->
    <g transform="translate(793.2 273.954687) scale(0.12 -0.12)">
     <defs>
      <path id="DejaVuSans-49" d="M 628 4666 
L 1259 4666 
L 1259 0 
L 628 0 
L 628 4666 
z
" transform="scale(0.015625)"/>
      <path id="DejaVuSans-4f" d="M 2522 4238 
Q 1834 4238 1429 3725 
Q 1025 3213 1025 2328 
Q 1025 1447 1429 934 
Q 1834 422 2522 422 
Q 3209 422 3611 934 
Q 4013 1447 4013 2328 
Q 4013 3213 3611 3725 
Q 3209 4238 2522 4238 
z
M 2522 4750 
Q 3503 4750 4090 4092 
Q 4678 3434 4678 2328 
Q 4678 1225 4090 567 
Q 3503 -91 2522 -91 
Q 1538 -91 948 565 
Q 359 1222 359 2328 
Q 359 3434 948 4092 
Q 1538 4750 2522 4750 
z
" transform="scale(0.015625)"/>
     </defs>
     <use xlink:href="#DejaVuSans-67"/>
     <use xlink:href="#DejaVuSans-5f" x="63.476562"/>
     <use xlink:href="#DejaVuSans-5f" x="113.476562"/>
     <use xlink:href="#DejaVuSans-53" x="163.476562"/>
     <use xlink:href="#DejaVuSans-49" x="226.953125"/>
     <use xlink:href="#DejaVuSans-4f" x="256.445312"/>
     <use xlink:href="#DejaVuSans-32" x="335.15625"/>
     <use xlink:href="#DejaVuSans-43" x="398.779297"/>
     <use xlink:href="#DejaVuSans-31" x="468.603516"/>
    </g>
   </g>
   <g id="patch_120">
    <path d="M 759.6 291.902187 
L 783.6 291.902187 
L 783.6 283.502187 
L 759.6 283.502187 
z
" style="fill: #fadadd"/>
   </g>
   <g id="text_40">
    <!-- g__Cutibacterium -->
    <g transform="translate(793.2 291.902187) scale(0.12 -0.12)">
     <use xlink:href="#DejaVuSans-67"/>
     <use xlink:href="#DejaVuSans-5f" x="63.476562"/>
     <use xlink:href="#DejaVuSans-5f" x="113.476562"/>
     <use xlink:href="#DejaVuSans-43" x="163.476562"/>
     <use xlink:href="#DejaVuSans-75" x="233.300781"/>
     <use xlink:href="#DejaVuSans-74" x="296.679688"/>
     <use xlink:href="#DejaVuSans-69" x="335.888672"/>
     <use xlink:href="#DejaVuSans-62" x="363.671875"/>
     <use xlink:href="#DejaVuSans-61" x="427.148438"/>
     <use xlink:href="#DejaVuSans-63" x="488.427734"/>
     <use xlink:href="#DejaVuSans-74" x="543.408203"/>
     <use xlink:href="#DejaVuSans-65" x="582.617188"/>
     <use xlink:href="#DejaVuSans-72" x="644.140625"/>
     <use xlink:href="#DejaVuSans-69" x="685.253906"/>
     <use xlink:href="#DejaVuSans-75" x="713.037109"/>
     <use xlink:href="#DejaVuSans-6d" x="776.416016"/>
    </g>
   </g>
   <g id="patch_121">
    <path d="M 759.6 309.849687 
L 783.6 309.849687 
L 783.6 301.449687 
L 759.6 301.449687 
z
" style="fill: #add8e6"/>
   </g>
   <g id="text_41">
    <!-- g__Chryseobacterium_796614 -->
    <g transform="translate(793.2 309.849687) scale(0.12 -0.12)">
     <use xlink:href="#DejaVuSans-67"/>
     <use xlink:href="#DejaVuSans-5f" x="63.476562"/>
     <use xlink:href="#DejaVuSans-5f" x="113.476562"/>
     <use xlink:href="#DejaVuSans-43" x="163.476562"/>
     <use xlink:href="#DejaVuSans-68" x="233.300781"/>
     <use xlink:href="#DejaVuSans-72" x="296.679688"/>
     <use xlink:href="#DejaVuSans-79" x="337.792969"/>
     <use xlink:href="#DejaVuSans-73" x="396.972656"/>
     <use xlink:href="#DejaVuSans-65" x="449.072266"/>
     <use xlink:href="#DejaVuSans-6f" x="510.595703"/>
     <use xlink:href="#DejaVuSans-62" x="571.777344"/>
     <use xlink:href="#DejaVuSans-61" x="635.253906"/>
     <use xlink:href="#DejaVuSans-63" x="696.533203"/>
     <use xlink:href="#DejaVuSans-74" x="751.513672"/>
     <use xlink:href="#DejaVuSans-65" x="790.722656"/>
     <use xlink:href="#DejaVuSans-72" x="852.246094"/>
     <use xlink:href="#DejaVuSans-69" x="893.359375"/>
     <use xlink:href="#DejaVuSans-75" x="921.142578"/>
     <use xlink:href="#DejaVuSans-6d" x="984.521484"/>
     <use xlink:href="#DejaVuSans-5f" x="1081.933594"/>
     <use xlink:href="#DejaVuSans-37" x="1131.933594"/>
     <use xlink:href="#DejaVuSans-39" x="1195.556641"/>
     <use xlink:href="#DejaVuSans-36" x="1259.179688"/>
     <use xlink:href="#DejaVuSans-36" x="1322.802734"/>
     <use xlink:href="#DejaVuSans-31" x="1386.425781"/>
     <use xlink:href="#DejaVuSans-34" x="1450.048828"/>
    </g>
   </g>
   <g id="patch_122">
    <path d="M 759.6 327.797187 
L 783.6 327.797187 
L 783.6 319.397187 
L 759.6 319.397187 
z
" style="fill: #d4a5a5"/>
   </g>
   <g id="text_42">
    <!-- g__Pseudomonas_E_647464 -->
    <g transform="translate(793.2 327.797187) scale(0.12 -0.12)">
     <defs>
      <path id="DejaVuSans-45" d="M 628 4666 
L 3578 4666 
L 3578 4134 
L 1259 4134 
L 1259 2753 
L 3481 2753 
L 3481 2222 
L 1259 2222 
L 1259 531 
L 3634 531 
L 3634 0 
L 628 0 
L 628 4666 
z
" transform="scale(0.015625)"/>
     </defs>
     <use xlink:href="#DejaVuSans-67"/>
     <use xlink:href="#DejaVuSans-5f" x="63.476562"/>
     <use xlink:href="#DejaVuSans-5f" x="113.476562"/>
     <use xlink:href="#DejaVuSans-50" x="163.476562"/>
     <use xlink:href="#DejaVuSans-73" x="222.029297"/>
     <use xlink:href="#DejaVuSans-65" x="274.128906"/>
     <use xlink:href="#DejaVuSans-75" x="335.652344"/>
     <use xlink:href="#DejaVuSans-64" x="399.03125"/>
     <use xlink:href="#DejaVuSans-6f" x="462.507812"/>
     <use xlink:href="#DejaVuSans-6d" x="523.689453"/>
     <use xlink:href="#DejaVuSans-6f" x="621.101562"/>
     <use xlink:href="#DejaVuSans-6e" x="682.283203"/>
     <use xlink:href="#DejaVuSans-61" x="745.662109"/>
     <use xlink:href="#DejaVuSans-73" x="806.941406"/>
     <use xlink:href="#DejaVuSans-5f" x="859.041016"/>
     <use xlink:href="#DejaVuSans-45" x="909.041016"/>
     <use xlink:href="#DejaVuSans-5f" x="972.224609"/>
     <use xlink:href="#DejaVuSans-36" x="1022.224609"/>
     <use xlink:href="#DejaVuSans-34" x="1085.847656"/>
     <use xlink:href="#DejaVuSans-37" x="1149.470703"/>
     <use xlink:href="#DejaVuSans-34" x="1213.09375"/>
     <use xlink:href="#DejaVuSans-36" x="1276.716797"/>
     <use xlink:href="#DejaVuSans-34" x="1340.339844"/>
    </g>
   </g>
   <g id="patch_123">
    <path d="M 759.6 345.744687 
L 783.6 345.744687 
L 783.6 337.344687 
L 759.6 337.344687 
z
" style="fill: #d9d9d9"/>
   </g>
   <g id="text_43">
    <!-- Others -->
    <g transform="translate(793.2 345.744687) scale(0.12 -0.12)">
     <use xlink:href="#DejaVuSans-4f"/>
     <use xlink:href="#DejaVuSans-74" x="78.710938"/>
     <use xlink:href="#DejaVuSans-68" x="117.919922"/>
     <use xlink:href="#DejaVuSans-65" x="181.298828"/>
     <use xlink:href="#DejaVuSans-72" x="242.822266"/>
     <use xlink:href="#DejaVuSans-73" x="283.935547"/>
    </g>
   </g>
   <g id="patch_124">
    <path d="M 759.6 363.358437 
L 783.6 363.358437 
L 783.6 354.958438 
L 759.6 354.958438 
z
" style="fill: #add8e6"/>
   </g>
   <g id="text_44">
    <!-- o_scorad -->
    <g transform="translate(793.2 363.358437) scale(0.12 -0.12)">
     <use xlink:href="#DejaVuSans-6f"/>
     <use xlink:href="#DejaVuSans-5f" x="61.181641"/>
     <use xlink:href="#DejaVuSans-73" x="111.181641"/>
     <use xlink:href="#DejaVuSans-63" x="163.28125"/>
     <use xlink:href="#DejaVuSans-6f" x="218.261719"/>
     <use xlink:href="#DejaVuSans-72" x="279.443359"/>
     <use xlink:href="#DejaVuSans-61" x="320.556641"/>
     <use xlink:href="#DejaVuSans-64" x="381.835938"/>
    </g>
   </g>
  </g>
 </g>
 <defs>
  <clipPath id="pee43340537">
   <rect x="172.8" y="30.24" width="261.818182" height="367.2"/>
  </clipPath>
  <clipPath id="p5e1a505148">
   <rect x="486.981818" y="30.24" width="261.818182" height="367.2"/>
  </clipPath>
 </defs>
</svg>
